<svg width="108" height="100" xmlns="http://www.w3.org/2000/svg"><g fill="none" fill-rule="evenodd"><path d="M43.367 99.4C15.818 95.11-3.723 80.46.6 53.125c4.324-27.333 30.874-57 58.425-52.71 27.551 4.289 41.56 27.088 48.38 57.1 6.133 26.99-36.487 46.173-64.038 41.883z" fill="#FFF" opacity=".37"/><path d="M64.582 48.34a3.658 3.658 0 0 0 3.65 3.668 3.658 3.658 0 0 0 3.648-3.667 3.657 3.657 0 0 0-3.649-3.667 3.658 3.658 0 0 0-3.649 3.667zm-14.072 0a3.658 3.658 0 0 0 3.649 3.668 3.658 3.658 0 0 0 3.649-3.667 3.657 3.657 0 0 0-3.65-3.667 3.658 3.658 0 0 0-3.649 3.667zm-14.071 0a3.658 3.658 0 0 0 3.649 3.668 3.658 3.658 0 0 0 3.65-3.667 3.657 3.657 0 0 0-3.65-3.667 3.658 3.658 0 0 0-3.65 3.667z" fill="#263835"/><path d="M14.62 47.642c0 15.983 13.651 29.487 32.458 32.114a2.98 2.98 0 0 1 2.56 2.953v6.828l6.053-8.32a2.953 2.953 0 0 1 2.124-1.207c19.717-1.822 34.587-15.735 34.587-32.366-.002-17.96-17.447-32.57-38.89-32.57-21.445 0-38.892 14.61-38.892 32.568z" stroke="#263835" stroke-width="3.3"/></g></svg>