<svg width="97" height="86" xmlns="http://www.w3.org/2000/svg"><g fill="none" fill-rule="evenodd"><path d="M41.942 85.484C18.475 81.794 1.828 69.196 5.511 45.689s26.3-49.02 49.77-45.331C78.75 4.046 90.683 23.654 96.492 49.463c5.224 23.212-31.081 39.71-54.55 36.02z" fill="#FFF" opacity=".37"/><g opacity=".7" fill="#000" fill-rule="nonzero"><path d="M38.76 30.383c-7.691 0-13.949 6.258-13.949 13.949S31.068 58.28 38.76 58.28s13.949-6.257 13.949-13.948c0-7.691-6.258-13.949-13.949-13.949zm0 24.898c-6.037 0-10.949-4.911-10.949-10.948 0-6.037 4.912-10.949 10.949-10.949 6.038 0 10.949 4.912 10.949 10.949S44.797 55.281 38.76 55.281zM9.399 30.384a1.5 1.5 0 0 0-1.5 1.5V56.78a1.5 1.5 0 1 0 3 0V31.884a1.5 1.5 0 0 0-1.5-1.5zm58.249 0a1.5 1.5 0 0 0-1.5 1.5V56.78a1.5 1.5 0 0 0 3 0V31.884a1.5 1.5 0 0 0-1.5-1.5z"/><path d="M92.287 4.142H18.869a1.5 1.5 0 0 0-1.5 1.5v7.419h-6.72a1.5 1.5 0 0 0-1.5 1.5v8.248H1.714a1.5 1.5 0 0 0-1.5 1.5v40.047a1.5 1.5 0 0 0 1.5 1.5h73.419a1.5 1.5 0 0 0 1.5-1.5v-8.248h7.436a1.5 1.5 0 0 0 1.5-1.5v-7.419h6.719a1.5 1.5 0 0 0 1.5-1.5V5.642a1.501 1.501 0 0 0-1.501-1.5zM3.214 62.856V25.809h70.419v28.789l-.001.01.001.01v8.238H3.214zm79.354-9.748h-5.936V24.309a1.5 1.5 0 0 0-1.5-1.5H12.149v-6.748h70.419v37.047zm8.219-8.919h-5.219V14.561a1.5 1.5 0 0 0-1.5-1.5H20.369V7.142h70.418v37.047z"/></g></g></svg>