<svg width="113" height="102" xmlns="http://www.w3.org/2000/svg"><g fill="none" fill-rule="evenodd"><path d="M36.942 101.484C13.475 97.794-3.172 85.196.511 61.689s26.3-49.02 49.77-45.331c23.469 3.688 35.403 23.296 41.212 49.105 5.224 23.212-31.081 39.71-54.55 36.02z" fill="#FFF" opacity=".37"/><path d="M94.316 85.775C76.68 101.69 56.413 106.7 40.462 89.044c-15.95-17.656-21.544-51.289-3.908-67.206C54.191 5.92 76.94 8.985 100.652 20.713c21.327 10.547 11.3 49.144-6.336 65.062z" fill="#FFF" opacity=".37"/><path d="M95.645 40.738c5.774 23.044.682 43.29-22.396 49.084-23.077 5.795-55.4-5.056-61.174-28.1C6.3 38.677 19.686 20.03 41.175 4.598 60.498-9.28 89.87 17.693 95.644 40.738z" fill="#FFF" opacity=".37"/><path d="M82.638 55.503H85.8V54.6h.269V35.55H85.8v-1.703h-3.162v1.703H66.732V17.387h1.302v-3.161H46.377v3.161h1.302V35.55H33.362v-1.703H30.2v1.703h-.269v19.052h.269v.902h3.162V54.6h14.317v39.012h-1.302v3.161h21.657v-3.161h-1.302V54.6h15.906v.902zm3.43 0H87v.298h-.931v-.298zm-56.137 0v.298H29v-.298h.931z" stroke="#000" stroke-width="2.4" opacity=".7"/></g></svg>