<svg width="110" height="100" xmlns="http://www.w3.org/2000/svg"><g fill="none" fill-rule="evenodd"><path d="M45.367 99.4C17.818 95.11-1.723 80.46 2.6 53.125c4.324-27.333 30.874-57 58.425-52.71 27.551 4.289 41.56 27.088 48.38 57.1 6.133 26.99-36.487 46.173-64.038 41.883z" fill="#FFF" opacity=".37"/><path d="M36.36 45.72h-.072c-1.944.144-3.744.433-5.184.938-3.096 1.01-8.208 4.039-11.88 6.275-.216.144-.432.216-.576.36v-2.596c0-.794-.648-1.443-1.44-1.443H1.44c-.792 0-1.44.65-1.44 1.443v36.787c0 .793.648 1.442 1.44 1.442h15.696c.792 0 1.44-.649 1.44-1.442V83.3l4.536-3.678a16.483 16.483 0 0 1 11.16-3.319c4.464.289 7.776.722 9.504 1.082l10.584 2.309c4.896 1.082 9.936.937 14.472-.289 1.584-.433 2.952-.938 4.032-1.587l32.688-18.754c2.304-1.298 3.096-4.183 1.872-6.492-1.512-2.813-4.032-4.183-7.632-4.255-1.944 0-3.96.432-5.976 1.298l-5.256 2.236-2.88 1.298-6.552 2.813c-.288-.937-.864-1.875-1.512-2.596-1.224-1.226-2.808-1.948-4.536-1.948h-3.528l-2.88.072h-4.32c-.864 0-2.232-.288-4.104-.721l-2.88-.866c-2.16-.649-4.68-1.442-7.416-2.452-2.88-1.01-5.832-1.587-8.64-1.731H36.36zM2.88 52.14h12.816v33.9H2.88v-33.9zm101.232 4.4L71.424 75.294c-.864.505-2.016.937-3.384 1.298-4.104 1.154-8.64 1.226-13.104.289l-10.584-2.309c-1.944-.432-5.256-.793-9.936-1.154-4.68-.36-9.36 1.082-13.176 3.967l-2.736 2.237v-23.01a41.095 41.095 0 0 1 2.088-1.227c3.384-2.02 8.496-5.12 11.304-6.059 1.296-.432 2.736-.649 4.464-.793 3.384-.216 6.912.36 10.512 1.587 5.328 1.875 12.312 4.11 15.408 4.11h10.728c.936 0 1.8.361 2.52 1.082.648.722 1.08 1.587 1.08 2.597v.072c0 1.01-.36 1.876-1.08 2.597-.648.721-1.584 1.082-2.52 1.082H52.416c-.792 0-1.44.649-1.44 1.442 0 .794.648 1.443 1.44 1.443h20.592c1.728 0 3.312-.721 4.536-1.947 1.008-1.01 1.584-2.309 1.8-3.68l15.624-6.78c1.656-.72 3.312-1.081 4.752-1.01 2.52.073 4.176.938 5.112 2.742.576.937.216 2.164-.72 2.669zM89.487 23.476l-17.06 17.089-17.061-17.089c-4.387-4.398-4.387-11.549 0-15.947a11.183 11.183 0 0 1 7.965-3.303 11.18 11.18 0 0 1 7.96 3.303c.605.605 1.673.605 2.275 0 4.255-4.264 11.673-4.258 15.921 0 4.388 4.395 4.388 11.549 0 15.947M81.523 1c-3.351 0-6.53 1.134-9.096 3.222A14.357 14.357 0 0 0 63.331 1a14.374 14.374 0 0 0-10.239 4.247c-5.642 5.652-5.642 14.852 0 20.504l18.197 18.23a1.617 1.617 0 0 0 2.277 0l18.196-18.23c5.645-5.652 5.645-14.852 0-20.504A14.388 14.388 0 0 0 81.522 1" fill="#263835"/></g></svg>