<svg width="100" height="86" xmlns="http://www.w3.org/2000/svg" xmlns:xlink="http://www.w3.org/1999/xlink"><defs><path id="a" d="M0 .224h84.46V69H0z"/></defs><g fill="none" fill-rule="evenodd"><path d="M44.942 85.484C21.475 81.794 4.828 69.196 8.511 45.689s26.3-49.02 49.77-45.331C81.75 4.046 93.683 23.654 99.492 49.463c5.224 23.212-31.081 39.71-54.55 36.02z" fill="#FFF" opacity=".37"/><g opacity=".7"><g transform="translate(0 9.776)"><mask id="b" fill="#fff"><use xlink:href="#a"/></mask><path d="M81.46 61.792l-30.81-3.55v-3.16A39.535 39.535 0 0 1 76 57.762a1.5 1.5 0 0 0 2.25-1.32V7.952c1.07.56 2.15 1.18 3.24 1.86l-.03 51.98zm-59.71-43.65l3-5.43 3 5.43h-6zm22-11.29a37.508 37.508 0 0 1 31.5-.33v47.59a42.211 42.211 0 0 0-24.6-2.13c-.494.107-.994.227-1.5.36a45.75 45.75 0 0 0-1.5.42c-1.26.374-2.534.824-3.82 1.35h-.08v-47.3.04zm-3 0v47.29h-.08a41.52 41.52 0 0 0-3.82-1.35c-.5-.153-1-.293-1.5-.42-.5-.126-1-.246-1.5-.36a41.349 41.349 0 0 0-2.1-.4v-32.07a1.588 1.588 0 0 0 0-.17v-.28l-.06-.14v-.07l-4.44-7.92a2.83 2.83 0 0 0-5 0l-4.33 7.92v.07l-.06.14v.27a1.607 1.607 0 0 0 0 .17v32.12a41.76 41.76 0 0 0-8.61 2.46V6.502c15.77-6.85 28.38-1.32 31.5.3v.05zm-37.71 3a49.235 49.235 0 0 1 3.24-1.87v48.5a1.5 1.5 0 0 0 2.21 1.32 35.859 35.859 0 0 1 9.26-3v5.3l-14.71 1.69V9.852zm25.71 52v.21a4 4 0 0 1-8 0v-41h2.75v40.96a1.24 1.24 0 0 0 2.47.15c.003-.05.003-.1 0-.15v-40.92h2.78v40.75zm3-3.36v-3.84c.69.12 1.39.26 2.1.42v3.16l-2.1.26zm14.12 2.24a2.563 2.563 0 0 1-.8.14h-5.63a2.535 2.535 0 0 1-.8-.14 2.588 2.588 0 0 1-1.78-2.44v-2.38c1.327.433 2.628.937 3.9 1.51l.86.38.16.05h.11c.121.033.245.049.37.05.125-.001.249-.017.37-.05h.11l.16-.05.86-.38a38.788 38.788 0 0 1 3.9-1.51v2.36a2.585 2.585 0 0 1-1.8 2.44l.01.02zm37.91-53a49.932 49.932 0 0 0-6.38-3.53l-.15-.08a40.76 40.76 0 0 0-35 .1 40.76 40.76 0 0 0-35-.1l-.2.09a49.867 49.867 0 0 0-6.37 3.53A1.5 1.5 0 0 0 0 9.002v54.47a1.5 1.5 0 0 0 1.5 1.5h.17l16.13-1.86a7 7 0 0 0 13.91-1v-.56l2.92-.34a5.581 5.581 0 0 0 4.77 2.68h5.62a5.59 5.59 0 0 0 4.77-2.68l33 3.79h.17a1.5 1.5 0 0 0 1.5-1.5V8.992a1.502 1.502 0 0 0-.68-1.26z" fill="#000" mask="url(#b)"/></g><path d="M49.14 23.768c.385.414.977.562 1.51.38h.15a19.175 19.175 0 0 1 5.45-1.47 25.267 25.267 0 0 1 5.26 0c2.19.195 4.348.649 6.43 1.35a1.5 1.5 0 0 0 1.07-2.8c-.41-.16-10-3.71-19 0l-.37.14a1.51 1.51 0 0 0-.786 1.985l.007.015c.07.148.165.283.279.4m19.87 7.88a24.324 24.324 0 0 0-2.8-.82c-3.44-.82-9.56-1.65-15.56.58-.35.13-.7.25-1 .4a1.509 1.509 0 0 0-.786 1.985c0 .005.004.01.006.015.079.173.192.33.33.46.385.406.97.55 1.5.37h.15a19.14 19.14 0 0 1 5.4-1.5 25.13 25.13 0 0 1 5.26 0c1.06.1 2 .25 2.88.41a25.06 25.06 0 0 1 3.55.94 1.5 1.5 0 0 0 1.07-2.8v-.04zm0 10.46a30.51 30.51 0 0 0-9.3-1.68 24.36 24.36 0 0 0-9.06 1.43c-.35.13-.7.25-1 .4a1.509 1.509 0 0 0-.786 1.985c0 .005.004.01.006.015.079.173.192.33.33.46a1.43 1.43 0 0 0 1.5.37h.15a19.14 19.14 0 0 1 5.4-1.5 25.64 25.64 0 0 1 1.4-.12 26.03 26.03 0 0 1 3.87.08c2.186.196 4.34.65 6.42 1.35a1.5 1.5 0 0 0 1.07-2.8v.01zm0 10.45c-.38-.14-8.63-3.21-17-.69-.44.13-.87.28-1.31.44-.44.16-.7.25-1 .4a1.51 1.51 0 0 0-.786 1.986l.006.014c.152.323.409.584.73.74.339.182.739.211 1.1.08h.15a19.13 19.13 0 0 1 5.35-1.48 25.226 25.226 0 0 1 5.27 0c2.189.196 4.347.65 6.43 1.35a1.5 1.5 0 0 0 1.07-2.8l-.01-.04z" fill="#000"/></g></g></svg>