<svg width="118" height="111" xmlns="http://www.w3.org/2000/svg"><g fill="none" fill-rule="evenodd"><path d="M43.877 6.063c27.699-10.692 53.557-7.522 64.194 20.11 10.636 27.63 2.023 69.256-25.677 79.949-27.701 10.695-52.818-2.974-75.162-27.153-20.096-21.746 8.943-62.212 36.645-72.906z" fill="#DEB540"/><path d="M118 38.3c.016-9.198-3.672-18.004-10.212-24.381a35.187 35.187 0 0 0-47.632-1.235 35.005 35.005 0 0 0-47.402 1.538c-6.33 6.301-9.852 14.946-9.752 23.938.003 9.524 3.714 18.662 10.327 25.43-1.264 3.695-.274 7.8 2.53 10.488 1.975 1.93 4.616 3 7.36 2.983.398.023.797.023 1.196 0a9.395 9.395 0 0 0 2.967 8.438 10.46 10.46 0 0 0 7.36 2.983c.398.023.797.023 1.195 0a9.395 9.395 0 0 0 2.967 8.438c1.975 1.93 4.617 3 7.36 2.984.406-.101.805-.226 1.196-.373-.017.349-.017.7 0 1.048.099 4.185 2.601 7.924 6.4 9.566A10.427 10.427 0 0 0 65.1 108.2l6.9-6.992c.8-.808 1.461-1.745 1.956-2.774A10.46 10.46 0 0 0 83.961 95.8a9.394 9.394 0 0 0 2.967-8.39h.897a10.53 10.53 0 0 0 7.405-3.03 9.514 9.514 0 0 0 2.944-8.555 9.9 9.9 0 0 0 8.717-2.914c3.117-3.014 3.962-7.72 2.093-11.654 5.767-6.219 8.99-14.424 9.016-22.959zM19.102 70.72a5.584 5.584 0 0 1-1.667-3.985c0-1.503.602-2.941 1.667-3.986l6.9-6.993a5.946 5.946 0 0 1 8.303 0 5.584 5.584 0 0 1 1.666 3.986c0 1.503-.601 2.94-1.666 3.986l-6.9 6.992a5.946 5.946 0 0 1-8.303 0zm11.5 11.328a5.584 5.584 0 0 1-1.667-3.985 5.58 5.58 0 0 1 1.667-3.986l6.9-6.993a5.923 5.923 0 0 1 8.302 0 5.584 5.584 0 0 1 1.667 3.986c0 1.503-.601 2.94-1.667 3.986l-6.9 6.992a5.946 5.946 0 0 1-8.302 0zm19.802 11.328a5.946 5.946 0 0 1-8.303 0 5.584 5.584 0 0 1-1.666-3.986c0-1.502.601-2.94 1.666-3.985l6.9-6.993a5.946 5.946 0 0 1 8.303 0 5.584 5.584 0 0 1 1.667 3.986c0 1.502-.602 2.94-1.667 3.986l-6.9 6.992zm18.63 4.662l-6.9 6.992a5.946 5.946 0 0 1-8.303 0 5.936 5.936 0 0 1-1.748-4.195 5.449 5.449 0 0 1 1.518-4.102l6.9-6.993a6.127 6.127 0 0 1 8.44.14 5.582 5.582 0 0 1 1.75 4.034 5.577 5.577 0 0 1-1.703 4.054l.046.07zm34.568-28.32a5.9 5.9 0 0 1-8.234 0 2.294 2.294 0 0 0-.805-.49L79.062 53.964a2.278 2.278 0 0 0-3.123.165 2.354 2.354 0 0 0-.074 3.168l16.1 15.896a5.536 5.536 0 0 1 1.686 3.986c0 1.507-.61 2.947-1.687 3.986a5.897 5.897 0 0 1-7.52.582c-.161-.186-.3-.396-.483-.582l-16.1-15.897a2.281 2.281 0 0 0-2.294-.714 2.317 2.317 0 0 0-1.673 1.744c-.19.853.107 1.743.77 2.303l15.433 15.197c.117.262.28.499.483.7.23.233.483.396.736.582a5.5 5.5 0 0 1 1.173 3.38 5.58 5.58 0 0 1-1.794 4.08 5.88 5.88 0 0 1-5.428 1.49 10.23 10.23 0 0 0-3.06-7.341 10.789 10.789 0 0 0-8.693-2.937 9.394 9.394 0 0 0-3.013-8.578 10.447 10.447 0 0 0-8.533-2.89 9.395 9.395 0 0 0-2.967-8.438 10.447 10.447 0 0 0-8.533-2.89 9.395 9.395 0 0 0-2.967-8.437 10.524 10.524 0 0 0-14.696 0l-6.9 6.992c-5.32-5.805-8.284-13.428-8.303-21.35-.094-7.737 2.93-15.179 8.372-20.605a30.47 30.47 0 0 1 40.801-1.701L42.745 29.84a9.91 9.91 0 0 0-3.47 7.27 9.926 9.926 0 0 0 3.056 7.46 10.479 10.479 0 0 0 14.651 0l15.019-14.8 16.1 16.315 15.57 15.664a5.538 5.538 0 0 1 1.653 4 5.535 5.535 0 0 1-1.722 3.971zm2.53-12.143L91.32 42.75 73.61 24.944a2.298 2.298 0 0 0-.344-.233 2.298 2.298 0 0 0-.414-.28 2.27 2.27 0 0 0-.391 0 1.204 1.204 0 0 0-.874 0 2.27 2.27 0 0 0-.437 0c-.13.066-.253.144-.368.233a2.161 2.161 0 0 0-.368.256L53.785 41.236a5.9 5.9 0 0 1-8.28 0 5.256 5.256 0 0 1-1.61-3.915 5.456 5.456 0 0 1 1.978-3.986l15.939-15.733a30.64 30.64 0 0 1 42.78-.35c11.078 10.858 11.757 28.63 1.54 40.324z" fill="#000" fill-rule="nonzero"/></g></svg>