<svg width="92" height="86" xmlns="http://www.w3.org/2000/svg"><g fill="none" fill-rule="evenodd"><path d="M36.942 85.484C13.475 81.794-3.172 69.196.511 45.689s26.3-49.02 49.77-45.331C73.75 4.046 85.683 23.654 91.492 49.463c5.224 23.212-31.081 39.71-54.55 36.02z" fill="#FFF" opacity=".47"/><path d="M66.187 39.93c10.141-.135 18.327-8.329 18.45-18.47a18 18 0 0 0-1.65-7.36l-1.05-2.47a1 1 0 0 0-1.64-.31l-10.7 10.71a2.7 2.7 0 0 1-4 0 2.7 2.7 0 0 1 0-4l10.7-10.7a1 1 0 0 0-.31-1.63l-2.46-1.05A18 18 0 0 0 66.167 3c-10.129.145-18.3 8.33-18.43 18.46a16.37 16.37 0 0 0 .56 4.08l-2.09-2.09c-5.153-5.143-13.497-5.143-18.65 0l-13.7 13.7c-5.143 5.153-5.143 13.497 0 18.65l3 3-3.56 3.58a8.46 8.46 0 1 0 12 11.93l3.53-3.54 4.65 4.65a4.3 4.3 0 0 0 3 1.06 6 6 0 0 0 4.24-1.73 5.59 5.59 0 0 0 1.64-4 4.85 4.85 0 0 0 2.07.45h.44a6 6 0 0 0 3.81-1.72 5.58 5.58 0 0 0 1.62-4.23 5.59 5.59 0 0 0 8-5.06v-.24a5.6 5.6 0 0 0 6.33-9l-8-8 4-4a16.92 16.92 0 0 0 5.56.98zm-42.34 33a6.3 6.3 0 0 1-9.11 0 6.28 6.28 0 0 1 0-9.11l3.56-3.57 5.69 5.68 3.4 3.4-3.54 3.6zm39.32-15.49a3.61 3.61 0 0 1-5.1 0l-1.82-1.82a1 1 0 0 0-1.41 1.41l.14.14a1 1 0 0 0 .25.47 3.61 3.61 0 1 1-5.1 5.1l-1.83-1.81a1 1 0 0 0-1.41 1.41l.14.14a1 1 0 0 0 .27.45 3.61 3.61 0 0 1 0 5.1c-1.41 1.41-3.69 1.41-4.44.66l-2.56-2.46a1 1 0 0 0-1.41 1.41l.14.14a1 1 0 0 0 .25.47 3.61 3.61 0 0 1 0 5.1c-1.41 1.41-3.69 1.41-4.44.66l-8.36-8.36-1.1-1.1-2.3-2.3-7.86-7.86c-4.36-4.372-4.36-11.448 0-15.82l13.7-13.7c4.372-4.361 11.449-4.361 15.82 0l3 3-3.06 3.16-1.14-1.1a1 1 0 0 0-1.41 1.41l21 21a3.61 3.61 0 0 1 .04 5.1zm-3.51-20.35l-4.46 4.46-9.11-9.11 4.46-4.46a1 1 0 0 0 .23-1.05 15.29 15.29 0 0 1-1-5.47c.118-9.02 7.39-16.31 16.41-16.45 2.27.03 4.51.537 6.57 1.49l1.1.47-9.66 9.66a4.82 4.82 0 0 0 6.81 6.81l9.66-9.66.47 1.1a16.12 16.12 0 0 1 1.49 6.57c-.102 9.043-7.396 16.356-16.44 16.48a15.31 15.31 0 0 1-5.47-1 1 1 0 0 0-1.06.16z" stroke="#000" fill="#000" fill-rule="nonzero" opacity=".7"/></g></svg>