<svg width="121" height="118" xmlns="http://www.w3.org/2000/svg"><g transform="translate(-17 -12)" fill="none" fill-rule="evenodd"><path d="M31.67 110.175c-24.128-17.06-4.188-62.58 20.63-78.762 24.814-16.18 57.998-9.222 74.117 15.545 16.118 24.765 9.067 57.959-15.75 74.14-24.816 16.181-52.168 8.046-78.997-10.923" fill="#DEB540"/><path d="M110.847 104.3l-7.647-7.592c-18.9 19.249-49.857 19.98-69.659 1.6-19.865-18.436-21.16-49.287-2.908-69.3 18.251-20.014 49.297-21.79 69.743-3.992 20.388 17.749 22.718 48.417 5.281 68.998l7.773 7.716 1.917-1.96a5.943 5.943 0 0 1 8.26.002l14.748 14.643-2.602 2.566-.176-.175-14.57-14.465a2.135 2.135 0 0 0-3 0l-5.9 5.857a2.109 2.109 0 0 0-.002 2.976l14.766 14.612-2.601 2.564-.176-.171-14.648-14.276a5.712 5.712 0 0 1-1.745-4.106 5.71 5.71 0 0 1 1.743-4.104l1.403-1.393zm-43.291 3.692c25.5-.035 46.161-20.548 46.196-45.863 0-25.328-20.682-45.862-46.196-45.862S21.36 36.8 21.36 62.129c0 25.33 20.682 45.863 46.196 45.863z" stroke="#666B49" stroke-width=".5" fill="#000" fill-rule="nonzero"/><path d="M95.136 55.968a51.343 51.343 0 0 1 3.73 4.147c.512.65.512 1.563.007 2.204-.346.481-1.47 1.795-2.77 3.152a60.746 60.746 0 0 1-6.815 6.116C82.226 77.01 74.694 80.25 67 80.25c-7.69 0-15.217-3.25-22.289-8.692a61.54 61.54 0 0 1-6.813-6.12 54.897 54.897 0 0 1-1.943-2.126 31.715 31.715 0 0 1-.821-.984 1.788 1.788 0 0 1 .003-2.216 53.843 53.843 0 0 1 4.783-5.123L36.623 51.1a1.789 1.789 0 0 1 .218-2.536 1.822 1.822 0 0 1 2.55.214l3.322 3.822a67.608 67.608 0 0 1 3.217-2.527 2.162 2.162 0 0 1-.1-.15l-3.011-4.913a1.99 1.99 0 0 1 .804-2.572 2.028 2.028 0 0 1 2.664.57l2.936 4.788a45.564 45.564 0 0 1 3.366-1.88l-2-4.511a2.022 2.022 0 0 1 .717-2.723 2.028 2.028 0 0 1 2.758.734l2.168 4.874a33.703 33.703 0 0 1 3.93-1.232l-.729-5.15a2.03 2.03 0 0 1 1.413-2.439 2.02 2.02 0 0 1 2.466 1.427l.823 5.426a27.419 27.419 0 0 1 2.912-.16h1.423l.405-5.511c.089-1.16 1.023-1.902 2.134-1.902 1.125 0 1.969.763 1.878 1.94l-.437 5.97a32.49 32.49 0 0 1 4.896 1.43l2.385-5.365a2.025 2.025 0 0 1 2.752-.703c.924.576 1.237 1.767.721 2.696l-2.182 4.933a44.965 44.965 0 0 1 4.278 2.387l2.517-4.117a2.025 2.025 0 0 1 2.654-.554 1.995 1.995 0 0 1 .791 2.596l-2.66 4.354a56.68 56.68 0 0 1 3.622 2.926l2.6-3.117a2.028 2.028 0 0 1 2.84.006c.748.788.748 2.017.01 2.793l-2.538 3.043zm-.11 5.262a57.426 57.426 0 0 0-10.075-8.97c-5.906-4.101-11.972-6.472-17.982-6.472s-12.072 2.37-17.976 6.472c-3.983 2.767-7.403 5.955-10.08 8.97 2.672 3.007 6.1 6.2 10.09 8.968 5.91 4.102 11.98 6.473 17.997 6.473 6.024 0 12.094-2.372 17.99-6.472a56.628 56.628 0 0 0 10.037-8.969z" stroke="#666B49" stroke-width=".5" fill="#000" fill-rule="nonzero"/><path d="M73.611 50.452c3.05 1.69 5.276 4.476 6.187 7.748.912 3.272.432 6.76-1.333 9.69-3.665 6.088-11.76 8.166-18.09 4.65-6.335-3.521-8.507-11.317-4.847-17.415 3.656-6.092 11.749-8.182 18.083-4.673zm1.607 15.632l.008-.03a8.808 8.808 0 0 0 .955-6.93c-.652-2.341-2.249-4.338-4.437-5.547-4.546-2.51-10.348-1.005-12.964 3.357-2.612 4.357-1.062 9.924 3.469 12.447 4.532 2.523 10.332 1.045 12.969-3.297z" stroke="#666B49" stroke-width=".5" fill="#000" fill-rule="nonzero"/><circle fill="#000" fill-rule="nonzero" cx="67.5" cy="61.5" r="4.5"/><circle fill="#000" fill-rule="nonzero" cx="125.5" cy="127.5" r="1.5"/><circle fill="#000" fill-rule="nonzero" cx="136.5" cy="115.5" r="1.5"/></g></svg>