<svg width="98" height="91" xmlns="http://www.w3.org/2000/svg"><g fill="none" fill-rule="evenodd"><path d="M36.942 85.484C13.475 81.794-3.172 69.196.511 45.689s26.3-49.02 49.77-45.331C73.75 4.046 85.683 23.654 91.492 49.463c5.224 23.212-31.081 39.71-54.55 36.02z" fill="#FFF" opacity=".37"/><g opacity=".7" fill="#000" stroke="#000"><path d="M13.682 44.601a1 1 0 0 1-1-1c0-5.22 4.247-9.467 9.468-9.467a1 1 0 1 1 0 2c-4.118 0-7.468 3.35-7.468 7.467a1 1 0 0 1-1 1m8.467 40.136c-5.221 0-9.468-4.247-9.468-9.469a1 1 0 1 1 2 0c0 4.118 3.35 7.47 7.468 7.47a1 1 0 1 1 0 2m60.701-.001a1 1 0 1 1 0-2c4.119 0 7.47-3.35 7.47-7.469a1 1 0 1 1 2 0c-.001 5.222-4.248 9.47-9.47 9.47m8.468-40.137a1 1 0 0 1-1-1c0-4.118-3.35-7.467-7.469-7.467a1 1 0 0 1 0-2c5.222 0 9.47 4.247 9.47 9.467a1 1 0 0 1-1 1"/><path d="M95 77.667C95 83.374 90.374 88 84.667 88H20.333C14.626 88 10 83.374 10 77.667V41.333C10 35.626 14.626 31 20.333 31h64.334C90.374 31 95 35.626 95 41.333v36.334zM66 29H38v-3.274c0-3.465 2.962-6.288 6.417-6.329l5.642.874a11.79 11.79 0 0 0 3.563.007l5.841-.881c3.456.041 6.537 2.864 6.537 6.329V29zm-32-4.76A9.24 9.24 0 0 1 43.24 15h17.369A9.39 9.39 0 0 1 70 24.391V29h-2v-3.274c0-4.593-3.979-8.329-8.571-8.329l-5.593.852a11.812 11.812 0 0 1-3.586-.005l-5.379-.835-.348-.012c-4.593 0-8.523 3.736-8.523 8.329V29h-2v-4.76zM84.667 29H72v-4.76C72 17.959 66.891 13 60.609 13H43.234C36.953 13 32 17.959 32 24.24V29H20.333C13.532 29 8 34.494 8 41.294v36.282C8 84.377 13.532 90 20.333 90h64.334C91.468 90 97 84.377 97 77.576V41.294C97 34.494 91.468 29 84.667 29z"/><path d="M65 63h-8a1 1 0 0 0-1 1v8h-8v-8a1 1 0 0 0-1-1h-8v-8h8a1 1 0 0 0 1-1v-8h8v8a1 1 0 0 0 1 1c.009 0 .017-.005.026-.005.009 0 .017.005.026.005H65v8zm1-10h-8v-8a1 1 0 0 0-1-1H47a1 1 0 0 0-1 1v8h-8a1 1 0 0 0-1 1v10a1 1 0 0 0 1 1h8v8a1 1 0 0 0 1 1h10a1 1 0 0 0 1-1v-8h8a1 1 0 0 0 1-1V54a1 1 0 0 0-1-1z"/></g></g></svg>