<svg width="115" height="119" xmlns="http://www.w3.org/2000/svg"><g fill="none" fill-rule="evenodd"><path d="M46.178 117.357C16.843 112.767-3.965 97.093.638 67.845c4.605-29.247 32.876-60.99 62.212-56.4 29.338 4.589 44.254 28.985 51.516 61.096 6.53 28.88-38.851 49.406-68.188 44.816z" fill="#DEB540"/><path d="M37.776 91.426l.401-6.686 38.378.263v5.161a1.555 1.555 0 0 1-1.545 1.511l-37.234-.249zM18.227 47.721l1.552-.605a22.898 22.898 0 0 1 19.813 1.482l.496.285 7.132 31.622h-5.716L18.227 47.721zm-.849-6.297C19.17 20.672 36.201 4.94 56.994 4.831c20.807-.112 37.989 15.442 39.997 36.174l.188 1.932-1.859-.563a27.042 27.042 0 0 0-22.586 3.167l-1.113.851-.8-.528C62.338 40.1 51.508 39.63 42.56 44.639l-.631.353-.633-.35a27.318 27.318 0 0 0-22.194-1.88l-1.896.664.172-2.002zm44.694 39.081H51.557l-7.209-31.941.901-.459a22.985 22.985 0 0 1 23.173 1.362l.748.499-7.098 30.539zm10.681 0h-6.359l7.007-30.161.381-.284a22.97 22.97 0 0 1 20.639-3.486l1.687.535-23.355 33.396zm-.933 29.037a5.217 5.217 0 0 1-5.208 5.214H47.81a5.218 5.218 0 0 1-5.208-5.215V95.896h29.231l-.013 13.646zM47.802 119h18.799c5.198-.006 9.434-4.25 9.44-9.461V95.795l.876-.303a5.737 5.737 0 0 0 3.858-5.387v-3.834a5.696 5.696 0 0 0-2.261-4.451l-1.006-.755 23.424-33.463c.042-.115.081-.209.129-.3.128-.23.206-.453.244-.686a1.4 1.4 0 0 1 .07-.313c.026-.472.025-.948.025-1.395C101.372 20.523 81.546.645 57.203.599 32.867.642 13.036 20.511 13 44.893l.031 1.971c.028.093.055.211.063.349.018.246.086.497.201.732l.05.117c.02.053.043.107.068.159l.095.193 23.253 32.712-.969.766a5.654 5.654 0 0 0-2.156 4.393v3.827a5.735 5.735 0 0 0 3.858 5.38l.876.303v13.746c.006 5.203 4.237 9.447 9.432 9.459z" fill="#000"/></g></svg>