<svg width="119" height="114" xmlns="http://www.w3.org/2000/svg"><g fill="none" fill-rule="evenodd"><path d="M55.942 103.484c-23.467-3.69-40.114-16.288-36.431-39.795s26.3-49.02 49.77-45.331c23.469 3.688 35.403 23.296 41.212 49.105 5.224 23.212-31.081 39.71-54.55 36.02z" fill="#FFF" opacity=".47"/><path d="M76.958 61.312l-18.46 18.484L40.04 61.312c-4.747-4.758-4.747-12.492 0-17.25a12.1 12.1 0 0 1 8.617-3.573 12.1 12.1 0 0 1 8.614 3.573c.654.655 1.81.655 2.46 0 4.605-4.612 12.634-4.605 17.228 0 4.748 4.754 4.748 12.492 0 17.25M68.341 37a15.515 15.515 0 0 0-9.842 3.486A15.535 15.535 0 0 0 48.656 37a15.56 15.56 0 0 0-11.078 4.594c-6.104 6.114-6.104 16.065 0 22.179l19.689 19.718a1.747 1.747 0 0 0 2.464 0l19.688-19.718c6.108-6.114 6.108-16.065 0-22.179A15.563 15.563 0 0 0 68.341 37M58 1.3v10.4c0 .718.672 1.3 1.5 1.3s1.5-.582 1.5-1.3V1.3c0-.718-.672-1.3-1.5-1.3S58 .582 58 1.3m1.5 99.7c-.828 0-1.5.582-1.5 1.3v10.4c0 .718.672 1.3 1.5 1.3s1.5-.582 1.5-1.3v-10.4c0-.718-.672-1.3-1.5-1.3M11.7 58H1.3c-.718 0-1.3.672-1.3 1.5S.582 61 1.3 61h10.4c.718 0 1.3-.672 1.3-1.5s-.582-1.5-1.3-1.5m106 0h-10.4c-.718 0-1.3.672-1.3 1.5s.582 1.5 1.3 1.5h10.4c.718 0 1.3-.672 1.3-1.5s-.582-1.5-1.3-1.5M99.77 17.382l-7.388 7.39a1.306 1.306 0 0 0 0 1.847 1.313 1.313 0 0 0 1.849 0l7.387-7.39a1.308 1.308 0 0 0-1.849-1.847m-71 71l-7.387 7.39a1.307 1.307 0 0 0 1.85 1.847l7.386-7.39a1.307 1.307 0 0 0-1.85-1.847M25.693 27a1.307 1.307 0 0 0 .925-2.229l-7.39-7.389a1.307 1.307 0 0 0-1.846 1.847l7.39 7.39c.253.256.587.381.921.381m68.535 65.382a1.306 1.306 0 0 0-1.846 1.847l7.387 7.39a1.311 1.311 0 0 0 1.849 0c.51-.51.51-1.338 0-1.847l-7.39-7.39z" opacity=".7" fill="#000"/></g></svg>