<svg width="60" height="60" xmlns="http://www.w3.org/2000/svg" xmlns:xlink="http://www.w3.org/1999/xlink"><defs><path d="M12 22C6.477 22 2 17.523 2 12S6.477 2 12 2s10 4.477 10 10-4.477 10-10 10zm0-1.481A8.519 8.519 0 1 0 12 3.48a8.519 8.519 0 0 0 0 17.038zm4.695-8.561c.318.2.321.522 0 .724l-6.807 4.275c-.158.099-.287.028-.287-.158V7.841c0-.187.127-.258.287-.158l6.807 4.275z" id="a"/></defs><g fill="none" fill-rule="evenodd"><mask id="b" fill="#fff"><use xlink:href="#a"/></mask><use fill="#000" xlink:href="#a"/><g mask="url(#b)" fill="#222223"><path d="M0 0h60v60H0z"/></g></g></svg>