<svg width="67" height="67" xmlns="http://www.w3.org/2000/svg" xmlns:xlink="http://www.w3.org/1999/xlink"><defs><path d="M39.5 72.417c-18.18 0-32.917-14.738-32.917-32.917 0-18.18 14.738-32.917 32.917-32.917 18.18 0 32.917 14.738 32.917 32.917 0 18.18-14.738 32.917-32.917 32.917zm0-4.876c15.487 0 28.041-12.554 28.041-28.041S54.987 11.459 39.5 11.459 11.459 24.013 11.459 39.5 24.013 67.541 39.5 67.541zm15.454-28.18c1.048.659 1.057 1.72 0 2.384l-22.406 14.07c-.521.328-.944.095-.944-.517v-29.49c0-.612.418-.847.944-.517l22.406 14.07z" id="a"/></defs><g transform="translate(-6 -6)" fill="none" fill-rule="evenodd"><mask id="b" fill="#fff"><use xlink:href="#a"/></mask><use fill="#000" xlink:href="#a"/><g mask="url(#b)" fill="#FFF"><path d="M0 0h79v79H0z"/></g></g></svg>