<svg id="C-Symbols_Play_Copy" data-name="C-Symbols/Play Copy" xmlns="http://www.w3.org/2000/svg" viewBox="0 0 60 60"><defs><style>.cls-1{fill:transparent}</style><clipPath id="clip-path"><path id="Combined_Shape" data-name="Combined Shape" d="M25 50a25 25 0 1 1 25-25 25.028 25.028 0 0 1-25 25zm0-46.3A21.3 21.3 0 1 0 46.3 25 21.32 21.32 0 0 0 25 3.7zm-5.617 33.8c-.234 0-.38-.193-.38-.5V14.6c0-.313.145-.508.378-.508a.651.651 0 0 1 .338.114l17.019 10.688a.984.984 0 0 1 0 1.811L19.719 37.39a.645.645 0 0 1-.336.11z"/></clipPath></defs><path id="C-Symbols_Play_Copy_background" data-name="C-Symbols/Play Copy background" class="cls-1" d="M0 0h60v60H0z"/><path id="Combined_Shape-2" data-name="Combined Shape" d="M25 50a25 25 0 1 1 25-25 25.028 25.028 0 0 1-25 25zm0-46.3A21.3 21.3 0 1 0 46.3 25 21.32 21.32 0 0 0 25 3.7zm-5.617 33.8c-.234 0-.38-.193-.38-.5V14.6c0-.313.145-.508.378-.508a.651.651 0 0 1 .338.114l17.019 10.688a.984.984 0 0 1 0 1.811L19.719 37.39a.645.645 0 0 1-.336.11z" transform="translate(5 5)"/><g transform="translate(5 5)" clip-path="url(#clip-path)"><g id="C-Color_Black" data-name="C-Color/Black" transform="translate(-5 -5)"><path id="C-Color_Black_background" data-name="C-Color/Black background" class="cls-1" d="M0 0h60v60H0z"/><path id="Rectangle" fill="#fff" d="M0 0h60v60H0z"/></g></g></svg>