<svg width="108" height="100" xmlns="http://www.w3.org/2000/svg"><g fill="none" fill-rule="evenodd"><path d="M43.367 99.4C15.818 95.11-3.723 80.46.6 53.125c4.324-27.333 30.874-57 58.425-52.71 27.551 4.289 41.56 27.088 48.38 57.1 6.133 26.99-36.487 46.173-64.038 41.883z" fill="#FFF" opacity=".37"/><path d="M81.04 11.663a7.133 7.133 0 0 0-.546-1.373 4.262 4.262 0 0 1 1.503.347 7.23 7.23 0 0 0-.957 1.026M68.422 9.26L54.178 27.924a12.91 12.91 0 0 0-.8-4.121L64.243 9.567a4.308 4.308 0 0 1 5.144-1.333c-.352.31-.678.65-.965 1.027m28.753 30.966a7.187 7.187 0 0 0-4.296-1.471l5.227-6.849a7.179 7.179 0 0 0-5.649-11.534 7.179 7.179 0 0 0-1.352-10.062 7.163 7.163 0 0 0-6.21-1.222c-.084-.071-.163-.147-.252-.214a7.152 7.152 0 0 0-6.42-1.157 7.164 7.164 0 0 0-5.95-1.033 7.157 7.157 0 0 0-6.558-1.414 7.18 7.18 0 0 0-3.755 2.554L51.917 20.983a4.186 4.186 0 0 0-3.279-1.729 4.304 4.304 0 0 0-2.8.905c-.09-.15-.166-.306-.263-.452a4.193 4.193 0 0 0-3.4-1.889 4.307 4.307 0 0 0-3.584 1.69L23.206 39.667A29.92 29.92 0 0 0 18.16 66.16a1.436 1.436 0 1 0 2.765-.779l-.001-.002a27.07 27.07 0 0 1 4.565-23.97l15.385-20.158a1.437 1.437 0 0 1 1.223-.585c.444.01.855.236 1.101.605.26.392.477.802.676 1.218L29.668 41.102a29.92 29.92 0 0 0-5.045 26.494 1.436 1.436 0 1 0 2.764-.78v-.001a27.07 27.07 0 0 1 4.565-23.97l15.385-20.159a1.437 1.437 0 0 1 1.223-.584c.443.01.855.235 1.1.605a10.05 10.05 0 0 1-.404 11.666l-6.97 9.132a1.436 1.436 0 1 0 2.283 1.742l26.136-34.244a4.308 4.308 0 0 1 6.85 5.226L57.52 42.483a1.436 1.436 0 0 0 2.283 1.742l23.522-30.82a4.309 4.309 0 0 1 6.85 5.226L66.652 49.45a1.436 1.436 0 1 0 2.284 1.742L88.972 24.94a4.309 4.309 0 0 1 6.85 5.226L74.044 58.702a1.435 1.435 0 1 0 2.284 1.742l13.068-17.122a4.308 4.308 0 0 1 6.85 5.226l-20.91 27.395c-5.097 6.678-10.569 13.35-16.544 15.239a1.436 1.436 0 1 0 .775 2.764c.03-.008.06-.018.09-.028 6.777-2.135 12.586-9.19 17.961-16.233l20.91-27.395a7.18 7.18 0 0 0-1.353-10.063" fill="#263835"/></g></svg>