<svg width="53" height="52" xmlns="http://www.w3.org/2000/svg"><g fill="none" fill-rule="evenodd"><path d="M21.282 51.706C7.762 49.604-1.828 42.426.294 29.032 2.416 15.639 15.446 1.102 28.966 3.204c13.52 2.101 20.395 13.273 23.742 27.979 3.01 13.225-17.905 22.625-31.426 20.523z" fill="#C6B299"/><path d="M40.363 4A5.494 5.494 0 0 0 40 3c.34.017.678.1 1 .253-.23.222-.444.47-.637.747m-6.905-1.24L25.45 13a6.935 6.935 0 0 0-.45-2.261l6.108-7.811c.69-.883 1.893-1.156 2.892-.732-.198.17-.381.357-.542.564m15.977 17.03a3.949 3.949 0 0 0-2.382-.826l2.897-3.848c1.334-1.77.998-4.301-.75-5.653a3.942 3.942 0 0 0-2.38-.826c1.333-1.771.997-4.302-.75-5.653a3.928 3.928 0 0 0-3.441-.687c-.047-.04-.091-.082-.14-.12a3.921 3.921 0 0 0-3.558-.65 3.926 3.926 0 0 0-3.298-.58A3.926 3.926 0 0 0 32 .152a3.978 3.978 0 0 0-2.081 1.435l-5.566 7.392a2.311 2.311 0 0 0-1.818-.971 2.364 2.364 0 0 0-1.551.508c-.05-.084-.093-.172-.146-.254a2.317 2.317 0 0 0-1.884-1.06 2.375 2.375 0 0 0-1.987.949L8.44 19.476A16.992 16.992 0 0 0 5.643 34.36c.12.429.559.678.982.557a.808.808 0 0 0 .55-.995v-.001a15.373 15.373 0 0 1 2.53-13.467L18.232 9.13a.793.793 0 0 1 .677-.328.75.75 0 0 1 .61.34c.144.22.265.45.375.684l-7.873 10.457a16.992 16.992 0 0 0-2.796 14.884c.119.43.558.679.982.558a.808.808 0 0 0 .55-.995v-.002a15.373 15.373 0 0 1 2.53-13.466l8.526-11.325a.793.793 0 0 1 .678-.328.75.75 0 0 1 .61.34 5.709 5.709 0 0 1-.224 6.554l-3.863 5.13c-.266.354-.2.86.15 1.13a.79.79 0 0 0 1.116-.151l14.484-19.24a2.367 2.367 0 0 1 3.348-.456 2.443 2.443 0 0 1 .449 3.392l-11.105 14.75c-.267.354-.2.86.15 1.13.35.27.849.202 1.115-.152L41.758 4.722a2.367 2.367 0 0 1 3.346-.456 2.442 2.442 0 0 1 .45 3.392L32.518 24.973c-.267.354-.2.86.15 1.13a.79.79 0 0 0 1.116-.152l11.104-14.75a2.367 2.367 0 0 1 3.347-.455 2.442 2.442 0 0 1 .45 3.392l-12.07 16.031c-.267.355-.2.86.15 1.13a.788.788 0 0 0 1.115-.15l7.242-9.62a2.366 2.366 0 0 1 3.347-.456 2.441 2.441 0 0 1 .45 3.392L37.33 39.855c-2.825 3.752-5.857 7.5-9.169 8.562a.808.808 0 0 0-.551.994.795.795 0 0 0 .981.559l.05-.016c3.756-1.2 6.975-5.163 9.954-9.12l11.588-15.39c1.333-1.771.998-4.302-.75-5.653" fill="#263835"/></g></svg>