<svg width="120" height="86" xmlns="http://www.w3.org/2000/svg"><g fill="none" fill-rule="evenodd"><path d="M49.942 85.484c-23.467-3.69-40.114-16.288-36.431-39.795s26.3-49.02 49.77-45.331c23.469 3.688 35.403 23.296 41.212 49.105 5.224 23.212-31.081 39.71-54.55 36.02z" fill="#FFF" opacity=".37"/><g opacity=".7" stroke="#000" stroke-width="3"><path d="M83.711 72.378c0 1.448-1.434 2.615-3.21 2.615H66.64V51.7H54.36v23.247L40.502 75c-1.784 0-3.21-1.174-3.21-2.622l-.003-26.214H29L60.495 14 92 46.164h-8.289v26.214z"/><path d="M87.848 64h22.317c1.206 0 2.183-.815 2.183-1.814V43.3H118L96.552 21 84 34.054M32.147 64H9.835c-1.213 0-2.185-.813-2.185-1.814V43.3H2L23.442 21 36 34.054"/></g></g></svg>