<svg width="108" height="100" xmlns="http://www.w3.org/2000/svg"><g fill="none" fill-rule="evenodd"><path d="M43.367 99.4C15.818 95.11-3.723 80.46.6 53.125c4.324-27.333 30.874-57 58.425-52.71 27.551 4.289 41.56 27.088 48.38 57.1 6.133 26.99-36.487 46.173-64.038 41.883z" fill="#FFF" opacity=".37"/><path d="M39.552 52.39l13.27 10.298a1.09 1.09 0 0 0 1.355 0l13.27-10.298 27.559 23.456h-83.01L39.551 52.39zm57.281-22.784v44.962L69.208 51.01l27.625-21.404zm-86.666 0L37.792 51.01 10.167 74.568V29.606zm0-5.452h86.666v2.659L53.5 60.433l-43.333-33.62v-2.66zM9.083 22A1.08 1.08 0 0 0 8 23.077v53.846A1.08 1.08 0 0 0 9.083 78h88.834c.599 0 1.083-.481 1.083-1.077V23.077A1.08 1.08 0 0 0 97.917 22H9.083z" stroke="#000" stroke-width=".9" fill="#263835"/></g></svg>