<?xml version="1.0" encoding="UTF-8"?>
<svg width="108px" height="100px" viewBox="0 0 108 100" version="1.1" xmlns="http://www.w3.org/2000/svg" xmlns:xlink="http://www.w3.org/1999/xlink">
    <!-- Generator: Sketch 50.2 (55047) - http://www.bohemiancoding.com/sketch -->
    <title>Group 12</title>
    <desc>Created with Sketch.</desc>
    <defs></defs>
    <g id="Desktop" stroke="none" stroke-width="1" fill="none" fill-rule="evenodd">
        <g id="Get-Involved" transform="translate(-1195.000000, -482.000000)">
            <g id="Group-8" transform="translate(37.000000, 433.000000)">
                <g id="Group-12" transform="translate(1158.000000, 49.000000)">
                    <path d="M43.367019,99.3994934 C15.8180523,95.1097465 -3.72391668,80.4609463 0.599861836,53.1263376 C4.92364036,25.7929662 31.4744456,-3.8736576 59.0246594,0.416089296 C86.5761204,4.70459889 100.585063,27.5044737 107.404336,57.5153797 C113.537692,84.5060168 70.91848,103.68924 43.367019,99.3994934 Z" id="Fill-1" fill="#FFFFFF" opacity="0.370000005"></path>
                    <g id="Group-7" transform="translate(14.000000, 15.000000)">
                        <path d="M50.5822713,33.340723 C50.5822713,35.3659794 52.2160179,37.0077448 54.2313824,37.0077448 C56.2467469,37.0077448 57.8804935,35.3659794 57.8804935,33.340723 C57.8787348,31.3136994 56.2467469,29.6737012 54.2313824,29.6737012 C52.2160179,29.6737012 50.5822713,31.3154667 50.5822713,33.340723 Z" id="Path" fill="#263835"></path>
                        <path d="M36.5094681,33.340723 C36.5094681,35.3659794 38.1432147,37.0077448 40.1585792,37.0077448 C42.1739436,37.0077448 43.8076902,35.3659794 43.8076902,33.340723 C43.8076902,31.3136994 42.1739436,29.6737012 40.1585792,29.6737012 C38.1432147,29.6737012 36.5094681,31.3154667 36.5094681,33.340723 Z" id="Path" fill="#263835"></path>
                        <path d="M22.4389054,33.340723 C22.4389054,35.3659794 24.072652,37.0077448 26.0880165,37.0077448 C28.1033809,37.0077448 29.7371275,35.3659794 29.7371275,33.340723 C29.7371275,31.3136994 28.1033809,29.6737012 26.0880165,29.6737012 C24.072652,29.6737012 22.4389054,31.3154667 22.4389054,33.340723 Z" id="Path" fill="#263835"></path>
                        <path d="M0.619849896,32.6421114 C0.619849896,48.6246931 14.2714325,62.1286925 33.0784871,64.7557198 C34.5437973,64.9626431 35.6371786,66.2221767 35.6371786,67.7088762 L35.6371786,74.5373476 L41.6911054,66.2176784 C42.1929853,65.5271841 42.9659701,65.0863473 43.815133,65.0098756 C63.5318451,63.1880503 78.4022789,49.2747024 78.4022789,32.6443606 C78.4000384,14.6847611 60.9552293,0.0741713764 39.5110644,0.0741713764 C18.0668995,0.0741713764 0.619849896,14.6847611 0.619849896,32.6421114 Z" id="Path" stroke="#263835" stroke-width="3.30000007"></path>
                    </g>
                </g>
            </g>
        </g>
    </g>
</svg>