<?xml version="1.0" encoding="UTF-8"?>
<svg width="97px" height="86px" viewBox="0 0 97 86" version="1.1" xmlns="http://www.w3.org/2000/svg" xmlns:xlink="http://www.w3.org/1999/xlink">
    <!-- Generator: Sketch 50.2 (55047) - http://www.bohemiancoding.com/sketch -->
    <title>Group 13</title>
    <desc>Created with Sketch.</desc>
    <defs></defs>
    <g id="Desktop" stroke="none" stroke-width="1" fill="none" fill-rule="evenodd">
        <g id="How-We-Work" transform="translate(-1163.000000, -2202.000000)">
            <g id="Group-9" transform="translate(0.000000, 2132.000000)">
                <g id="Group">
                    <g id="Group-13" transform="translate(1163.000000, 70.000000)">
                        <path d="M41.9422755,85.4835643 C18.4746372,81.794382 1.82777468,69.1964138 5.51099342,45.6886503 C9.19421215,22.1819509 31.8115648,-3.33134554 55.2802655,0.357836795 C78.7500285,4.04595504 90.6835722,23.6538474 96.4925829,49.4632265 C101.717293,72.6751744 65.4120385,89.1727466 41.9422755,85.4835643 Z" id="Fill-1" fill="#FFFFFF" opacity="0.370000005"></path>
                        <g id="money" opacity="0.699999988" transform="translate(0.000000, 4.000000)" fill="#000000" fill-rule="nonzero">
                            <path d="M38.76,26.383 C31.069,26.383 24.811,32.641 24.811,40.332 C24.811,48.023 31.068,54.28 38.76,54.28 C46.452,54.28 52.709,48.023 52.709,40.332 C52.709,32.641 46.451,26.383 38.76,26.383 Z M38.76,51.281 C32.723,51.281 27.811,46.37 27.811,40.333 C27.811,34.296 32.723,29.384 38.76,29.384 C44.798,29.384 49.709,34.296 49.709,40.333 C49.709,46.37 44.797,51.281 38.76,51.281 Z" id="Shape"></path>
                            <path d="M9.399,26.384 C8.57,26.384 7.899,27.055 7.899,27.884 L7.899,52.78 C7.899,53.608 8.57,54.28 9.399,54.28 C10.228,54.28 10.899,53.608 10.899,52.78 L10.899,27.884 C10.899,27.055 10.228,26.384 9.399,26.384 Z" id="Shape"></path>
                            <path d="M67.648,26.384 C66.82,26.384 66.148,27.055 66.148,27.884 L66.148,52.78 C66.148,53.608 66.82,54.28 67.648,54.28 C68.476,54.28 69.148,53.608 69.148,52.78 L69.148,27.884 C69.148,27.055 68.477,26.384 67.648,26.384 Z" id="Shape"></path>
                            <path d="M92.287,0.142 L18.869,0.142 C18.04,0.142 17.369,0.813 17.369,1.642 L17.369,9.061 L10.649,9.061 C9.82,9.061 9.149,9.732 9.149,10.561 L9.149,18.809 L1.714,18.809 C0.885,18.809 0.214,19.48 0.214,20.309 L0.214,60.356 C0.214,61.184 0.885,61.856 1.714,61.856 L75.133,61.856 C75.961,61.856 76.633,61.184 76.633,60.356 L76.633,52.108 L84.069,52.108 C84.897,52.108 85.569,51.436 85.569,50.608 L85.569,43.189 L92.288,43.189 C93.116,43.189 93.788,42.517 93.788,41.689 L93.788,1.642 C93.787,0.813 93.115,0.142 92.287,0.142 Z M3.214,58.856 L3.214,21.809 L73.633,21.809 L73.633,50.598 C73.633,50.601 73.632,50.604 73.632,50.608 C73.632,50.612 73.633,50.614 73.633,50.618 L73.633,58.856 L3.214,58.856 Z M82.568,49.108 L76.632,49.108 L76.632,20.309 C76.632,19.48 75.96,18.809 75.132,18.809 L12.149,18.809 L12.149,12.061 L82.568,12.061 L82.568,49.108 Z M90.787,40.189 L85.568,40.189 L85.568,10.561 C85.568,9.732 84.896,9.061 84.068,9.061 L20.369,9.061 L20.369,3.142 L90.787,3.142 L90.787,40.189 Z" id="Shape"></path>
                        </g>
                    </g>
                </g>
            </g>
        </g>
    </g>
</svg>