<?xml version="1.0" encoding="UTF-8"?>
<svg width="113px" height="102px" viewBox="0 0 113 102" version="1.1" xmlns="http://www.w3.org/2000/svg" xmlns:xlink="http://www.w3.org/1999/xlink">
    <!-- Generator: Sketch 50.2 (55047) - http://www.bohemiancoding.com/sketch -->
    <title>Group 8</title>
    <desc>Created with Sketch.</desc>
    <defs></defs>
    <g id="Desktop" stroke="none" stroke-width="1" fill="none" fill-rule="evenodd">
        <g id="How-We-Work" transform="translate(-666.000000, -3171.000000)">
            <g id="Group-9" transform="translate(0.000000, 2132.000000)">
                <g id="Group">
                    <g id="Group-8" transform="translate(661.000000, 1028.000000)">
                        <path d="M41.9422755,112.483564 C18.4746372,108.794382 1.82777468,96.1964138 5.51099342,72.6886503 C9.19421215,49.1819509 31.8115648,23.6686545 55.2802655,27.3578368 C78.7500285,31.045955 90.6835722,50.6538474 96.4925829,76.4632265 C101.717293,99.6751744 65.4120385,116.172747 41.9422755,112.483564 Z" id="Fill-1" fill="#FFFFFF" opacity="0.370000005"></path>
                        <path d="M62.9422755,105.483564 C39.4746372,101.794382 22.8277747,89.1964138 26.5109934,65.6886503 C30.1942122,42.1819509 52.8115648,16.6686545 76.2802655,20.3578368 C99.7500285,24.045955 111.683572,43.6538474 117.492583,69.4632265 C122.717293,92.6751744 86.4120385,109.172747 62.9422755,105.483564 Z" id="Fill-1" fill="#FFFFFF" opacity="0.370000005" transform="translate(72.000000, 63.000000) rotate(-51.000000) translate(-72.000000, -63.000000) "></path>
                        <path d="M48.9422755,102.483564 C25.4746372,98.794382 8.82777468,86.1964138 12.5109934,62.6886503 C16.1942122,39.1819509 38.8115648,13.6686545 62.2802655,17.3578368 C85.7500285,21.045955 97.6835722,40.6538474 103.492583,66.4632265 C108.717293,89.6751744 72.4120385,106.172747 48.9422755,102.483564 Z" id="Fill-1" fill="#FFFFFF" opacity="0.370000005" transform="translate(58.000000, 60.000000) rotate(-113.000000) translate(-58.000000, -60.000000) "></path>
                        <path d="M87.6383561,66.5028303 L90.8000001,66.5028303 L90.8000001,65.6014992 L91.068868,65.6014992 L91.068868,46.5494442 L90.8000001,46.5494442 L90.8000001,44.8462263 L87.6383561,44.8462263 L87.6383561,46.5494442 L71.7315069,46.5494442 L71.7315069,28.3874258 L73.0337814,28.3874258 L73.0337814,25.2257818 L51.3771775,25.2257818 L51.3771775,28.3874258 L52.679452,28.3874258 L52.679452,46.5494442 L38.3616439,46.5494442 L38.3616439,44.8462263 L35.1999999,44.8462263 L35.1999999,46.5494442 L34.931132,46.5494442 L34.931132,65.6014992 L35.1999999,65.6014992 L35.1999999,66.5028303 L38.3616439,66.5028303 L38.3616439,65.6014992 L52.679452,65.6014992 L52.679452,104.612574 L51.3771775,104.612574 L51.3771775,107.774218 L73.0337814,107.774218 L73.0337814,104.612574 L71.7315069,104.612574 L71.7315069,65.6014992 L87.6383561,65.6014992 L87.6383561,66.5028303 Z M91.068868,66.5028303 L92,66.5028303 L92,66.8014991 L91.068868,66.8014991 L91.068868,66.5028303 Z M34.931132,66.5028303 L34.931132,66.8014991 L34,66.8014991 L34,66.5028303 L34.931132,66.5028303 Z" id="Combined-Shape" stroke="#000000" stroke-width="2.39999986" opacity="0.699999988"></path>
                    </g>
                </g>
            </g>
        </g>
    </g>
</svg>