<?xml version="1.0" encoding="UTF-8"?>
<svg width="110px" height="100px" viewBox="0 0 110 100" version="1.1" xmlns="http://www.w3.org/2000/svg" xmlns:xlink="http://www.w3.org/1999/xlink">
    <!-- Generator: Sketch 50.2 (55047) - http://www.bohemiancoding.com/sketch -->
    <title>Group 9</title>
    <desc>Created with Sketch.</desc>
    <defs></defs>
    <g id="Desktop" stroke="none" stroke-width="1" fill="none" fill-rule="evenodd">
        <g id="Get-Involved" transform="translate(-141.000000, -482.000000)">
            <g id="Group-8" transform="translate(37.000000, 433.000000)">
                <g id="Group-9" transform="translate(104.000000, 49.000000)">
                    <path d="M45.367019,99.3994934 C17.8180523,95.1097465 -1.72391668,80.4609463 2.59986184,53.1263376 C6.92364036,25.7929662 33.4744456,-3.8736576 61.0246594,0.416089296 C88.5761204,4.70459889 102.585063,27.5044737 109.404336,57.5153797 C115.537692,84.5060168 72.91848,103.68924 45.367019,99.3994934 Z" id="Fill-1" fill="#FFFFFF" opacity="0.370000005"></path>
                    <g id="give" transform="translate(0.000000, 1.000000)" fill="#263835">
                        <path d="M36.36,44.7198689 L36.288,44.7198689 C34.344,44.8641311 32.544,45.1526557 31.104,45.6575738 C28.008,46.6674098 22.896,49.696918 19.224,51.9329836 C19.008,52.0772459 18.792,52.149377 18.648,52.2936393 L18.648,49.696918 C18.648,48.9034754 18,48.2542951 17.208,48.2542951 L1.44,48.2542951 C0.648,48.2542951 0,48.9034754 0,49.696918 L0,86.4838033 C0,87.2772459 0.648,87.9264262 1.44,87.9264262 L17.136,87.9264262 C17.928,87.9264262 18.576,87.2772459 18.576,86.4838033 L18.576,82.3001967 L23.112,78.6215082 C26.352,76.1690492 30.312,75.0149508 34.272,75.3034754 C38.736,75.592 42.048,76.0247869 43.776,76.3854426 L54.36,78.6936393 C59.256,79.7756066 64.296,79.6313443 68.832,78.4051148 C70.416,77.9723279 71.784,77.4674098 72.864,76.8182295 L105.552,58.0641311 C107.856,56.7657705 108.648,53.8805246 107.424,51.5723279 C105.912,48.7592131 103.392,47.3887213 99.792,47.3165902 C97.848,47.3165902 95.832,47.749377 93.816,48.6149508 L88.56,50.8510164 L85.68,52.149377 L79.128,54.9624918 C78.84,54.0247869 78.264,53.087082 77.616,52.3657705 C76.392,51.139541 74.808,50.4182295 73.08,50.4182295 L69.552,50.4182295 L66.672,50.4903607 L62.352,50.4903607 C61.488,50.4903607 60.12,50.2018361 58.248,49.7690492 L55.368,48.9034754 C53.208,48.2542951 50.688,47.4608525 47.952,46.4510164 C45.072,45.4411803 42.12,44.8641311 39.312,44.7198689 L36.36,44.7198689 Z M2.88,51.139541 L15.696,51.139541 L15.696,54.8182295 L15.696,81.6510164 L15.696,85.0411803 L2.88,85.0411803 L2.88,51.139541 Z M104.112,55.539541 L71.424,74.2936393 C70.56,74.7985574 69.408,75.2313443 68.04,75.592 C63.936,76.7460984 59.4,76.8182295 54.936,75.8805246 L44.352,73.5723279 C42.408,73.139541 39.096,72.7788852 34.416,72.4182295 C29.736,72.0575738 25.056,73.5001967 21.24,76.3854426 L18.504,78.6215082 L18.504,55.6116721 C19.08,55.2510164 19.8,54.8182295 20.592,54.3854426 C23.976,52.3657705 29.088,49.2641311 31.896,48.3264262 C33.192,47.8936393 34.632,47.6772459 36.36,47.5329836 C39.744,47.3165902 43.272,47.8936393 46.872,49.1198689 C52.2,50.9952787 59.184,53.2313443 62.28,53.2313443 L73.008,53.2313443 C73.944,53.2313443 74.808,53.592 75.528,54.3133115 C76.176,55.034623 76.608,55.9001967 76.608,56.9100328 L76.608,56.9821639 C76.608,57.992 76.248,58.8575738 75.528,59.5788852 C74.88,60.3001967 73.944,60.6608525 73.008,60.6608525 L52.416,60.6608525 C51.624,60.6608525 50.976,61.3100328 50.976,62.1034754 C50.976,62.896918 51.624,63.5460984 52.416,63.5460984 L73.008,63.5460984 C74.736,63.5460984 76.32,62.8247869 77.544,61.5985574 C78.552,60.5887213 79.128,59.2903607 79.344,57.9198689 L94.968,51.139541 C96.624,50.4182295 98.28,50.0575738 99.72,50.1297049 C102.24,50.2018361 103.896,51.0674098 104.832,52.8706885 C105.408,53.8083934 105.048,55.034623 104.112,55.539541 Z" id="Fill-1"></path>
                        <path d="M89.487432,22.4761377 L72.427032,39.5647279 L55.365912,22.4761377 C50.978952,18.0775803 50.978952,10.9272197 55.365912,6.5286623 C57.492072,4.39862951 60.323112,3.22577705 63.330552,3.22577705 C66.337992,3.22577705 69.162552,4.39862951 71.291592,6.5286623 C71.896392,7.13384262 72.964152,7.13384262 73.566072,6.5286623 C77.821272,2.26499016 85.238712,2.27148197 89.487432,6.5286623 C93.875112,10.9236131 93.875112,18.0775803 89.487432,22.4761377 M81.522792,7.21311475e-05 C78.171912,7.21311475e-05 74.993832,1.13397377 72.427032,3.22217049 C69.860232,1.13758033 66.682152,7.21311475e-05 63.330552,7.21311475e-05 C59.464152,7.21311475e-05 55.825992,1.50833443 53.092152,4.2471541 C47.450232,9.89935082 47.450232,19.0989574 53.092152,24.7511541 L71.288712,42.980859 C71.603352,43.2960721 72.015192,43.4511541 72.427032,43.4511541 C72.838872,43.4511541 73.249992,43.2931869 73.566072,42.980859 L91.761912,24.7511541 C97.406712,19.0989574 97.406712,9.89935082 91.761912,4.2471541 C89.027352,1.51121967 85.389912,7.21311475e-05 81.522792,7.21311475e-05" id="Fill-3"></path>
                    </g>
                </g>
            </g>
        </g>
    </g>
</svg>