<?xml version="1.0" encoding="UTF-8"?>
<svg width="100px" height="86px" viewBox="0 0 100 86" version="1.1" xmlns="http://www.w3.org/2000/svg" xmlns:xlink="http://www.w3.org/1999/xlink">
    <!-- Generator: Sketch 50.2 (55047) - http://www.bohemiancoding.com/sketch -->
    <title>Group 14</title>
    <desc>Created with Sketch.</desc>
    <defs>
        <polygon id="path-1" points="0 0.224135297 84.46 0.224135297 84.46 68.9997327 0 68.9997327"></polygon>
    </defs>
    <g id="Desktop" stroke="none" stroke-width="1" fill="none" fill-rule="evenodd">
        <g id="How-We-Work" transform="translate(-687.000000, -2195.000000)">
            <g id="Group-9" transform="translate(0.000000, 2132.000000)">
                <g id="Group">
                    <g id="Group-14" transform="translate(687.000000, 63.000000)">
                        <path d="M44.9422755,85.4835643 C21.4746372,81.794382 4.82777468,69.1964138 8.51099342,45.6886503 C12.1942122,22.1819509 34.8115648,-3.33134554 58.2802655,0.357836795 C81.7500285,4.04595504 93.6835722,23.6538474 99.4925829,49.4632265 C104.717293,72.6751744 68.4120385,89.1727466 44.9422755,85.4835643 Z" id="Fill-1" fill="#FFFFFF" opacity="0.370000005"></path>
                        <g id="book" opacity="0.699999988" transform="translate(0.000000, 9.000000)">
                            <g id="Group-3" transform="translate(0.000000, 0.776000)">
                                <mask id="mask-2" fill="white">
                                    <use xlink:href="#path-1"></use>
                                </mask>
                                <g id="Clip-2"></g>
                                <path d="M81.46,61.7918 L50.65,58.2418 L50.65,55.0818 C59.164,53.1518 68.077,54.0948 76,57.7628 C76.718,58.1768 77.635,57.9308 78.049,57.2138 C78.185,56.9798 78.254,56.7128 78.25,56.4418 L78.25,7.9518 C79.32,8.5118 80.4,9.1318 81.49,9.8128 L81.46,61.7918 Z M21.75,18.1428 L24.75,12.7118 L27.75,18.1428 L21.75,18.1428 Z M43.75,6.8528 C53.692,2.1248 65.21,2.0038 75.25,6.5218 L75.25,54.1118 C67.445,50.9658 58.879,50.2238 50.65,51.9818 C50.156,52.0888 49.656,52.2088 49.15,52.3428 C48.644,52.4758 48.144,52.6148 47.65,52.7628 C46.39,53.1358 45.116,53.5858 43.83,54.1118 L43.75,54.1118 L43.75,6.8128 L43.75,6.8528 Z M40.75,6.8528 L40.75,54.1428 L40.67,54.1428 C39.376,53.6148 38.104,53.1658 36.85,52.7918 C36.35,52.6388 35.85,52.4988 35.35,52.3718 C34.85,52.2458 34.35,52.1258 33.85,52.0128 C33.144,51.8588 32.443,51.7258 31.75,51.6118 L31.75,19.6118 L31.75,19.5418 C31.753,19.4858 31.753,19.4288 31.75,19.3728 L31.75,19.2318 L31.75,19.0918 L31.69,18.9518 L31.69,18.8818 L27.25,10.9618 C26.518,9.5818 24.805,9.0558 23.424,9.7888 C22.924,10.0538 22.515,10.4618 22.25,10.9618 L17.92,18.8818 L17.92,18.9518 L17.86,19.0918 L17.86,19.2318 L17.86,19.3618 C17.857,19.4188 17.857,19.4758 17.86,19.5318 L17.86,19.6028 L17.86,51.6518 C14.91,52.1608 12.023,52.9858 9.25,54.1118 L9.25,6.5018 C25.02,-0.3482 37.63,5.1818 40.75,6.8018 L40.75,6.8528 Z M3.04,9.8528 C4.13,9.1618 5.21,8.5518 6.28,7.9818 L6.28,56.4818 C6.281,57.3108 6.953,57.9808 7.781,57.9808 C8.029,57.9798 8.272,57.9188 8.49,57.8028 C11.426,56.3868 14.542,55.3768 17.75,54.8028 L17.75,60.1028 L3.04,61.7918 L3.04,9.8528 Z M28.75,61.8528 L28.75,62.0628 C28.75,64.2708 26.959,66.0628 24.75,66.0628 C22.541,66.0628 20.75,64.2708 20.75,62.0628 L20.75,21.0628 L23.5,21.0628 L23.5,62.0218 C23.504,62.7068 24.062,63.2588 24.747,63.2548 C25.369,63.2518 25.891,62.7888 25.97,62.1718 C25.973,62.1218 25.973,62.0718 25.97,62.0218 L25.97,21.1028 L28.75,21.1028 L28.75,61.8528 Z M31.75,58.4918 L31.75,54.6518 C32.44,54.7718 33.14,54.9118 33.85,55.0718 L33.85,58.2318 L31.75,58.4918 Z M45.87,60.7318 C45.612,60.8208 45.343,60.8678 45.07,60.8718 L39.44,60.8718 C39.168,60.8688 38.897,60.8208 38.64,60.7318 C37.974,60.5128 37.426,60.0328 37.12,59.4018 C36.951,59.0568 36.862,58.6768 36.86,58.2918 L36.86,55.9118 C38.187,56.3448 39.488,56.8488 40.76,57.4218 L41.62,57.8028 L41.78,57.8528 L41.89,57.8528 C42.011,57.8848 42.135,57.9008 42.26,57.9018 C42.385,57.9008 42.509,57.8848 42.63,57.8528 L42.74,57.8528 L42.9,57.8028 L43.76,57.4218 C45.031,56.8488 46.334,56.3448 47.66,55.9118 L47.66,58.2718 C47.658,58.6568 47.569,59.0358 47.4,59.3828 C47.09,60.0178 46.533,60.4978 45.86,60.7118 L45.87,60.7318 Z M83.78,7.7318 C81.742,6.4008 79.61,5.2218 77.4,4.2018 L77.25,4.1228 C66.162,-1.1102 53.308,-1.0732 42.25,4.2218 C31.192,-1.0732 18.338,-1.1102 7.25,4.1228 L7.05,4.2118 C4.843,5.2318 2.714,6.4118 0.68,7.7418 C0.254,8.0198 -0.001,8.4938 0,9.0018 L0,63.4728 C0,64.3008 0.671,64.9728 1.5,64.9728 L1.67,64.9728 L17.8,63.1118 C18.415,66.9288 22.007,69.5238 25.824,68.9098 C29.174,68.3698 31.655,65.5058 31.71,62.1118 L31.71,61.5528 L34.63,61.2118 C35.643,62.8768 37.451,63.8938 39.4,63.8928 L45.02,63.8928 C46.969,63.8918 48.775,62.8758 49.79,61.2118 L82.79,65.0018 L82.96,65.0018 C83.788,65.0018 84.46,64.3308 84.46,63.5018 L84.46,8.9918 C84.461,8.4838 84.205,8.0098 83.78,7.7318 Z" id="Fill-1" fill="#000000" mask="url(#mask-2)"></path>
                            </g>
                            <path d="M49.1396,14.768 C49.5246,15.182 50.1166,15.33 50.6506,15.148 L50.7996,15.148 C52.5346,14.392 54.3706,13.896 56.2496,13.678 C57.9986,13.495 59.7616,13.495 61.5096,13.678 C63.6996,13.873 65.8576,14.327 67.9406,15.028 C68.7256,15.292 69.5766,14.869 69.8396,14.084 C70.0876,13.344 69.7276,12.537 69.0096,12.228 C68.5996,12.068 59.0096,8.518 50.0096,12.228 L49.6396,12.368 C48.8746,12.699 48.5226,13.588 48.8536,14.353 C48.8556,14.358 48.8576,14.363 48.8606,14.368 C48.9306,14.516 49.0256,14.651 49.1396,14.768" id="Fill-4" fill="#000000"></path>
                            <path d="M69.0098,22.6484 C68.0938,22.3194 67.1588,22.0454 66.2098,21.8284 C62.7698,21.0084 56.6508,20.1784 50.6508,22.4084 C50.2998,22.5384 49.9498,22.6584 49.6508,22.8084 C48.8848,23.1394 48.5318,24.0284 48.8638,24.7934 C48.8648,24.7984 48.8678,24.8034 48.8698,24.8084 C48.9488,24.9814 49.0618,25.1374 49.1998,25.2684 C49.5848,25.6744 50.1708,25.8184 50.6998,25.6384 L50.8498,25.6384 C52.5668,24.8764 54.3858,24.3704 56.2498,24.1384 C57.9978,23.9544 59.7618,23.9544 61.5098,24.1384 C62.5708,24.2384 63.5098,24.3884 64.3898,24.5484 C65.5948,24.7744 66.7808,25.0884 67.9408,25.4884 C68.7258,25.7524 69.5758,25.3294 69.8398,24.5444 C70.0878,23.8034 69.7278,22.9964 69.0098,22.6884 L69.0098,22.6484 Z" id="Fill-6" fill="#000000"></path>
                            <path d="M69.0098,33.1084 C66.0158,32.0684 62.8788,31.5024 59.7098,31.4284 C56.6268,31.3274 53.5518,31.8124 50.6508,32.8584 C50.2998,32.9884 49.9498,33.1084 49.6508,33.2584 C48.8848,33.5894 48.5318,34.4784 48.8638,35.2434 C48.8648,35.2484 48.8678,35.2534 48.8698,35.2584 C48.9488,35.4314 49.0618,35.5874 49.1998,35.7184 C49.5848,36.1244 50.1708,36.2694 50.6998,36.0884 L50.8498,36.0884 C52.5668,35.3264 54.3858,34.8204 56.2498,34.5884 C56.7238,34.5344 57.1908,34.4954 57.6508,34.4684 C58.9408,34.3994 60.2338,34.4254 61.5198,34.5484 C63.7058,34.7444 65.8608,35.1974 67.9408,35.8984 C68.7258,36.1624 69.5758,35.7394 69.8398,34.9544 C70.0878,34.2134 69.7278,33.4064 69.0098,33.0984 L69.0098,33.1084 Z" id="Fill-8" fill="#000000"></path>
                            <path d="M69.0098,43.5581 C68.6298,43.4181 60.3798,40.3481 52.0098,42.8681 C51.5708,42.9981 51.1398,43.1481 50.6998,43.3081 C50.2598,43.4681 49.9998,43.5581 49.6998,43.7081 C48.9348,44.0391 48.5818,44.9281 48.9138,45.6941 C48.9158,45.6991 48.9178,45.7031 48.9198,45.7081 C49.0718,46.0311 49.3288,46.2921 49.6508,46.4481 C49.9888,46.6301 50.3888,46.6591 50.7498,46.5281 L50.9008,46.5281 C52.6018,45.7771 54.4048,45.2791 56.2498,45.0481 C58.0018,44.8641 59.7688,44.8641 61.5198,45.0481 C63.7088,45.2441 65.8668,45.6971 67.9498,46.3981 C68.7358,46.6621 69.5858,46.2391 69.8498,45.4541 C70.0978,44.7141 69.7378,43.9071 69.0198,43.5981 L69.0098,43.5581 Z" id="Fill-10" fill="#000000"></path>
                        </g>
                    </g>
                </g>
            </g>
        </g>
    </g>
</svg>