<?xml version="1.0" encoding="UTF-8"?>
<svg width="118px" height="111px" viewBox="0 0 118 111" version="1.1" xmlns="http://www.w3.org/2000/svg" xmlns:xlink="http://www.w3.org/1999/xlink">
    <!-- Generator: Sketch 50.2 (55047) - http://www.bohemiancoding.com/sketch -->
    <title>Group 17</title>
    <desc>Created with Sketch.</desc>
    <defs></defs>
    <g id="Desktop" stroke="none" stroke-width="1" fill="none" fill-rule="evenodd">
        <g id="Home" transform="translate(-1015.000000, -1109.000000)">
            <g id="Group-22" transform="translate(998.000000, 1091.000000)">
                <g id="Group-17">
                    <path d="M66.1778443,128.357458 C36.8432965,123.767429 16.0347183,108.093213 20.6387418,78.8451812 C25.2427652,49.5984738 53.514456,17.8551864 82.8503318,22.4452155 C112.187536,27.0339208 127.104465,51.4297869 134.365729,83.5414563 C140.896616,112.421438 95.5150481,132.947487 66.1778443,128.357458 Z" id="Fill-1-Copy-2" fill="#DEB540" transform="translate(77.500000, 75.500000) rotate(-210.000000) translate(-77.500000, -75.500000) "></path>
                    <path d="M134.999946,56.2994967 C135.016215,47.1020138 131.32789,38.2961837 124.788137,31.9189279 C111.575504,19.1822609 90.9942068,18.6484826 77.1560265,30.6835836 C63.3095418,18.7853056 42.8208491,19.4502305 29.7539116,32.2219369 C23.4232842,38.5230731 19.9015896,47.1677486 20.0020937,56.1596464 C20.0046372,65.6837674 23.7156877,74.8221155 30.3289008,81.5890924 C29.0648945,85.2853989 30.0547861,89.3893282 32.8588536,92.0778648 C34.8339064,94.007677 37.4752337,95.0783938 40.2187162,95.0613378 C40.6170686,95.0837523 41.0163414,95.0837523 41.4146939,95.0613378 C40.9184205,98.2026702 42.0369457,101.383622 44.3816385,103.498973 C46.3580394,105.42667 48.9984814,106.497028 51.741501,106.482446 C52.1398535,106.50486 52.5391262,106.50486 52.9374787,106.482446 C52.4412054,109.623778 53.5597306,112.804729 55.9044233,114.92008 C57.8794761,116.849892 60.5208034,117.920609 63.2642859,117.903553 C63.6697438,117.802851 64.0690776,117.678329 64.4602635,117.530619 C64.44273,117.880019 64.44273,118.230096 64.4602635,118.579496 C64.5588933,122.763525 67.0609706,126.503199 70.8598981,128.144566 C74.6588257,129.785934 79.0537549,129.026186 82.1009341,126.201338 L89.0008053,119.208823 C89.8005689,118.401245 90.4613479,117.463733 90.9557688,116.435125 C94.5157395,117.38506 98.3069024,116.387006 100.960582,113.801278 C103.290263,111.695546 104.407346,108.536247 103.927527,105.41026 C104.226521,105.41026 104.525515,105.41026 104.82451,105.41026 C107.588482,105.417094 110.24583,104.329847 112.230372,102.38017 C114.585903,100.223452 115.695441,96.999485 115.174317,93.8259935 C118.374357,94.3465423 121.624582,93.2601753 123.891154,90.9124456 C127.008253,87.8984311 127.853477,83.19199 125.984115,79.2582541 C131.751019,73.0392911 134.973366,64.833607 134.999946,56.2994967 Z M36.1017931,88.7214576 C35.0365832,87.6764233 34.43521,86.2382032 34.43521,84.7357241 C34.43521,83.233245 35.0365832,81.7950249 36.1017931,80.7499906 L43.0016642,73.7574756 C45.3230509,71.5050326 48.9831225,71.5050326 51.3045092,73.7574756 C52.369719,74.8025099 52.9710922,76.2407301 52.9710922,77.7432092 C52.9710922,79.2456882 52.369719,80.6839084 51.3045092,81.7289427 L44.404638,88.7214576 C42.0832514,90.9739007 38.4231797,90.9739007 36.1017931,88.7214576 Z M47.6015783,100.049332 C46.5363685,99.0042975 45.9349953,97.5660774 45.9349953,96.0635983 C45.9349953,94.5611192 46.5363685,93.122899 47.6015783,92.0778648 L54.5014495,85.0853498 C56.8180593,82.8208828 60.4876846,82.8208828 62.8042945,85.0853498 C63.8695043,86.1303841 64.4708775,87.5686043 64.4708775,89.0710834 C64.4708775,90.5735624 63.8695043,92.0117826 62.8042945,93.0568169 L55.9044233,100.049332 C53.5830366,102.301775 49.922965,102.301775 47.6015783,100.049332 Z M67.4042086,111.377206 C65.0828219,113.629649 61.4227503,113.629649 59.1013636,111.377206 C58.0361538,110.332172 57.4347806,108.893952 57.4347806,107.391472 C57.4347806,105.888993 58.0361538,104.450773 59.1013636,103.405739 L66.0012348,96.413224 C68.3226214,94.160781 71.9826931,94.160781 74.3040797,96.413224 C75.3692896,97.4582583 75.9706628,98.8964785 75.9706628,100.398958 C75.9706628,101.901437 75.3692896,103.339657 74.3040797,104.384691 L67.4042086,111.377206 Z M86.0338607,116.038883 L79.1339895,123.031398 C76.8126029,125.283841 73.1525312,125.283841 70.8311446,123.031398 C69.7176345,121.926523 69.0879649,120.415176 69.0831772,118.835889 C68.9954182,117.312669 69.5467296,115.822765 70.6011489,114.733613 L77.50102,107.741098 C79.9138796,105.532967 83.6015172,105.594064 85.9418624,107.880949 C87.0497335,108.923058 87.6830827,110.383045 87.6917947,111.914866 C87.7005067,113.446686 87.0838058,114.913975 85.9878616,115.968957 L86.0338607,116.038883 Z M120.602215,87.7191971 C118.299321,89.9509051 114.671263,89.9509051 112.368369,87.7191971 C112.136101,87.5016868 111.862065,87.3350577 111.563384,87.2297211 L96.0616735,71.9627301 C95.138268,71.1819816 93.7772508,71.2539552 92.9390438,72.1278616 C92.1008368,73.001768 92.0684481,74.3825459 92.8647332,75.2958289 L108.964433,91.1921462 C110.041653,92.2305221 110.651453,93.6712286 110.651453,95.1778797 C110.651453,96.6845309 110.041653,98.1252374 108.964433,99.1636132 C106.913564,101.146475 103.768041,101.390187 101.443573,99.7463228 C101.282576,99.5598558 101.144579,99.3500803 100.960582,99.1636132 L84.8608826,83.267296 C84.2891732,82.6115855 83.4032459,82.3356094 82.5668155,82.552669 C81.7303852,82.7697285 81.0843741,83.4432534 80.8940003,84.2967298 C80.7036265,85.1502063 81.0009642,86.0398401 81.6639423,86.6003947 L97.0966541,101.797461 C97.2138079,102.058686 97.3775498,102.295744 97.5796451,102.496712 C97.8096408,102.729796 98.0626361,102.892955 98.3156314,103.079422 C99.0709888,104.040002 99.4842899,105.230852 99.4886095,106.459137 C99.4809034,108.013452 98.8300997,109.493193 97.694643,110.538104 C96.2475082,111.927859 94.2084366,112.488253 92.2667443,112.029841 C92.2760762,109.262455 91.1713638,106.610901 89.2078014,104.6877 C86.8779379,102.459182 83.6972499,101.384717 80.5139638,101.750844 C81.049142,98.5553036 79.9082747,95.3073929 77.50102,93.1733588 C75.2261761,90.965544 72.0957996,89.9052244 68.9681794,90.2831193 C69.4644527,87.1417869 68.3459275,83.9608353 66.0012348,81.8454846 C63.7263908,79.6376698 60.5960143,78.5773502 57.4683941,78.9552451 C57.9646674,75.8139127 56.8461422,72.6329611 54.5014495,70.5176104 C50.3923628,66.5306983 43.9138106,66.5306983 39.8047239,70.5176104 L32.9048527,77.5101253 C27.5857579,71.7050585 24.6210906,64.081519 24.6020078,56.1596464 C24.5078186,48.422719 27.531255,40.9814989 32.9738515,35.5550357 C44.1903917,24.6073836 61.7089211,23.8768179 73.7750896,33.8535237 L59.7453516,47.8385536 C57.6170489,49.6488674 56.3541136,52.2950401 56.2750083,55.1098113 C56.1959029,57.9245825 57.3081771,60.6393119 59.3313593,62.5694517 C63.4249552,66.550517 69.8884898,66.550517 73.9820857,62.5694517 L89.0008053,47.7686285 L105.100505,64.0844967 L120.671214,79.7477301 C121.739502,80.7956518 122.33687,82.2417911 122.323829,83.7484616 C122.310788,85.2551321 121.688478,86.6904288 120.602215,87.7191971 Z M123.132168,75.5755295 L108.320445,60.7513979 L90.6107753,42.9437932 C90.5029365,42.8557306 90.3874696,42.7777191 90.2657817,42.7107093 C90.1381707,42.6025785 89.9993612,42.5087963 89.8517894,42.4310087 C89.7216948,42.4197615 89.5908914,42.4197615 89.4607967,42.4310087 C89.1794834,42.3215298 88.8681263,42.3215298 88.586813,42.4310087 C88.4414792,42.4169531 88.295155,42.4169531 88.1498212,42.4310087 C88.0201822,42.496776 87.8969696,42.5748179 87.7818281,42.6640926 C87.6507595,42.7364543 87.5274374,42.8223766 87.4138349,42.9204848 L70.7851454,59.236353 C68.4763048,61.4979388 64.8141407,61.4979388 62.5053,59.236353 C61.4460077,58.2208019 60.8609854,56.7978962 60.8953301,55.3205446 C60.9608793,53.7661775 61.6810717,52.3149396 62.8732932,51.3348111 L78.8119956,35.6016525 C90.6811765,23.9007983 109.537349,23.7466907 121.591197,35.2520267 C132.669955,46.1095098 133.349143,63.8822246 123.132168,75.5755295 Z" id="Shape" fill="#000000" fill-rule="nonzero"></path>
                </g>
            </g>
        </g>
    </g>
</svg>