<?xml version="1.0" encoding="UTF-8"?>
<svg width="18px" height="16px" viewBox="0 0 18 16" version="1.1" xmlns="http://www.w3.org/2000/svg" xmlns:xlink="http://www.w3.org/1999/xlink">
    <!-- Generator: Sketch 50.2 (55047) - http://www.bohemiancoding.com/sketch -->
    <title>link arrow</title>
    <desc>Created with Sketch.</desc>
    <defs></defs>
    <g id="link-arrow" stroke="none" stroke-width="1" fill="none" fill-rule="evenodd">
        <path d="M2.66172107,7.69129288 L8.07418398,2.27704485 L8.07418398,16.0501319 C8.07418398,16.5725594 8.50148368,17 9.02373887,17 C9.54599407,17 9.97329377,16.5725594 9.97329377,16.0501319 L9.97329377,2.27704485 L15.3857567,7.69129288 C15.5756677,7.88126649 15.8130564,7.9762533 16.0504451,7.9762533 C16.2878338,7.9762533 16.5252226,7.88126649 16.7151335,7.69129288 C17.0949555,7.31134565 17.0949555,6.7414248 16.7151335,6.36147757 L9.6884273,-0.715039578 C9.30860534,-1.09498681 8.7388724,-1.09498681 8.35905045,-0.715039578 L1.28486647,6.36147757 C0.90504451,6.7414248 0.90504451,7.31134565 1.28486647,7.69129288 C1.47477745,7.88126649 1.71216617,7.9762533 1.99703264,7.9762533 C2.23442136,7.9762533 2.47181009,7.88126649 2.66172107,7.69129288 Z" id="Page-1" fill="#222223" transform="translate(9.000000, 8.000000) rotate(-270.000000) translate(-9.000000, -8.000000) "></path>
    </g>
</svg>