<?xml version="1.0" encoding="UTF-8"?>
<svg width="92px" height="86px" viewBox="0 0 92 86" version="1.1" xmlns="http://www.w3.org/2000/svg" xmlns:xlink="http://www.w3.org/1999/xlink">
    <!-- Generator: Sketch 50.2 (55047) - http://www.bohemiancoding.com/sketch -->
    <title>Group 11</title>
    <desc>Created with Sketch.</desc>
    <defs></defs>
    <g id="Desktop" stroke="none" stroke-width="1" fill="none" fill-rule="evenodd">
        <g id="How-We-Work" transform="translate(-201.000000, -2701.000000)">
            <g id="Group-9" transform="translate(0.000000, 2132.000000)">
                <g id="Group">
                    <g id="Group-11" transform="translate(201.000000, 569.000000)">
                        <path d="M36.9422755,85.4835643 C13.4746372,81.794382 -3.17222532,69.1964138 0.510993416,45.6886503 C4.19421215,22.1819509 26.8115648,-3.33134554 50.2802655,0.357836795 C73.7500285,4.04595504 85.6835722,23.6538474 91.4925829,49.4632265 C96.7172929,72.6751744 60.4120385,89.1727466 36.9422755,85.4835643 Z" id="Fill-1" fill="#FFFFFF" opacity="0.469999999"></path>
                        <path d="M66.1873893,39.93 C76.3284391,39.7951686 84.5135451,31.60119 84.6373893,21.46 C84.61335,18.9176699 84.0510055,16.4092727 82.9873893,14.1 L81.9373893,11.63 C81.8075869,11.3201534 81.5308804,11.0961849 81.2007888,11.0337895 C80.8706973,10.9713942 80.5313322,11.0789101 80.2973893,11.32 L69.5973893,22.03 C69.0855979,22.5943195 68.3592206,22.9161643 67.5973893,22.9161643 C66.835558,22.9161643 66.1091807,22.5943195 65.5973893,22.03 C65.0330698,21.5182086 64.711225,20.7918313 64.711225,20.03 C64.711225,19.2681687 65.0330698,18.5417914 65.5973893,18.03 L76.2973893,7.33 C76.5339034,7.09587123 76.6384451,6.75942232 76.5762665,6.43248347 C76.514088,6.10554461 76.2933376,5.83096108 75.9873893,5.7 L73.5273893,4.65 C71.2181166,3.58638375 68.7097193,3.02403927 66.1673893,3 C56.0379872,3.14544746 47.8663615,11.3303747 47.7373893,21.46 C47.7515599,22.8381512 47.9397151,24.2089963 48.2973893,25.54 L46.2073893,23.45 C41.0544904,18.3068143 32.7102882,18.3068143 27.5573893,23.45 L13.8573893,37.15 C8.71420357,42.3028989 8.71420357,50.6471011 13.8573893,55.8 L16.8573893,58.8 L13.2973893,62.38 C11.1662999,64.5235935 10.3406857,67.6412783 11.1315476,70.5586525 C11.9224094,73.4760268 14.2095965,75.749872 17.1315477,76.5236526 C20.0534988,77.2974332 23.1663001,76.4535936 25.2973893,74.31 L28.8273893,70.77 L33.4773893,75.42 C34.3050737,76.1439175 35.3786409,76.5232446 36.4773893,76.48 C38.0638584,76.4865691 39.588356,75.8645453 40.7173893,74.75 C41.778379,73.690567 42.3692909,72.2493184 42.3573893,70.75 C43.0058019,71.050695 43.7126604,71.2043599 44.4273893,71.2 L44.8673893,71.2 C46.3025092,71.1019167 47.6546301,70.4915104 48.6773893,69.48 C49.7911299,68.3624414 50.3796995,66.8256207 50.2973893,65.25 C52.0319988,66.0788299 54.070806,65.958167 55.6955435,64.9305205 C57.320281,63.902874 58.3029617,62.1124459 58.2973893,60.19 C58.2973893,60.11 58.2973893,60.03 58.2973893,59.95 C60.7475935,61.0594729 63.6404997,60.270272 65.1878534,58.0702431 C66.7352071,55.8702141 66.4999007,52.8808371 64.6273893,50.95 L56.6273893,42.95 L60.6273893,38.95 C62.4127594,39.5857448 64.2922509,39.9170221 66.1873893,39.93 Z M23.8473893,72.93 C22.6587396,74.1740265 21.0129967,74.8777621 19.2923893,74.8777621 C17.5717819,74.8777621 15.9260389,74.1740265 14.7373893,72.93 C13.4880796,71.7442566 12.7806259,70.0974292 12.7806259,68.375 C12.7806259,66.6525708 13.4880796,65.0057434 14.7373893,63.82 L18.2973893,60.25 L23.9873893,65.93 L27.3873893,69.33 L23.8473893,72.93 Z M63.1673893,57.44 C61.7582062,58.8462557 59.4765723,58.8462557 58.0673893,57.44 L56.2473893,55.62 C55.850629,55.2802232 55.2591951,55.3030677 54.8898261,55.6724368 C54.520457,56.0418058 54.4976125,56.6332397 54.8373893,57.03 L54.9773893,57.17 C55.0167248,57.3463777 55.1031197,57.5088 55.2273893,57.64 C56.2090339,58.5359353 56.6190091,59.8987848 56.2945896,61.187613 C55.9701701,62.4764413 54.9638306,63.4827808 53.6750023,63.8072003 C52.3861741,64.1316198 51.0233246,63.7216446 50.1273893,62.74 L48.2973893,60.93 C47.900629,60.5902232 47.3091951,60.6130677 46.9398261,60.9824368 C46.570457,61.3518058 46.5476125,61.9432397 46.8873893,62.34 L47.0273893,62.48 C47.0757237,62.6513617 47.1689334,62.8067112 47.2973893,62.93 C48.703645,64.3391831 48.703645,66.6208169 47.2973893,68.03 C45.8873893,69.44 43.6073893,69.44 42.8573893,68.69 L40.2973893,66.23 C39.900629,65.8902232 39.3091951,65.9130677 38.9398261,66.2824368 C38.570457,66.6518058 38.5476125,67.2432397 38.8873893,67.64 L39.0273893,67.78 C39.0667248,67.9563777 39.1531197,68.1188 39.2773893,68.25 C40.683645,69.6591831 40.683645,71.9408169 39.2773893,73.35 C37.8673893,74.76 35.5873893,74.76 34.8373893,74.01 L26.4773893,65.65 L25.3773893,64.55 L23.0773893,62.25 L15.2173893,54.39 C10.8562963,50.0183322 10.8562963,42.9416678 15.2173893,38.57 L28.9173893,24.87 C33.2890571,20.508907 40.3657215,20.508907 44.7373893,24.87 L47.7373893,27.87 L44.6773893,31.03 L43.5373893,29.93 C43.140629,29.5902232 42.5491951,29.6130677 42.1798261,29.9824368 C41.810457,30.3518058 41.7876125,30.9432397 42.1273893,31.34 L63.1273893,52.34 C64.5447583,53.7381279 64.5626539,56.0198123 63.1673893,57.44 Z M59.6573893,37.09 L55.1973893,41.55 L46.0873893,32.44 L50.5473893,27.98 C50.8216364,27.7044615 50.9113383,27.2949529 50.7773893,26.93 C50.1125166,25.1831163 49.7735793,23.3291292 49.7773893,21.46 C49.8953576,12.4397566 57.1674598,5.14992832 66.1873893,5.01 C68.4577814,5.03929555 70.6964811,5.54700673 72.7573893,6.5 L73.8573893,6.97 L64.1973893,16.63 C62.4544291,18.532384 62.518633,21.4699276 64.3430473,23.294342 C66.1674617,25.1187563 69.1050052,25.1829602 71.0073893,23.44 L80.6673893,13.78 L81.1373893,14.88 C82.0912404,16.9406161 82.5989937,19.1795013 82.6273893,21.45 C82.5251611,30.4934336 75.2305478,37.8057954 66.1873893,37.93 C64.3183006,37.9333584 62.4643949,37.594436 60.7173893,36.93 C60.362901,36.7734422 59.9498742,36.8357859 59.6573893,37.09 Z" id="Shape" stroke="#000000" fill="#000000" fill-rule="nonzero" opacity="0.699999988"></path>
                    </g>
                </g>
            </g>
        </g>
    </g>
</svg>