<?xml version="1.0" encoding="UTF-8"?>
<svg width="155px" height="57px" viewBox="0 0 155 57" version="1.1" xmlns="http://www.w3.org/2000/svg" xmlns:xlink="http://www.w3.org/1999/xlink">
    <!-- Generator: Sketch 50.2 (55047) - http://www.bohemiancoding.com/sketch -->
    <title>D-Logo/1/Black</title>
    <desc>Created with Sketch.</desc>
    <defs>
        <path d="M44,52 L44,31 L48.86,31 C52.16,31 53.78,32.83 53.78,36.19 L53.78,38.26 C53.78,41.62 52.16,43.45 48.86,43.45 L47.3,43.45 L47.3,52 L44,52 Z M47.3,40.45 L48.86,40.45 C49.91,40.45 50.48,39.97 50.48,38.47 L50.48,35.98 C50.48,34.48 49.91,34 48.86,34 L47.3,34 L47.3,40.45 Z M55.38,52 L55.38,31 L64.38,31 L64.38,34 L58.68,34 L58.68,39.55 L63.21,39.55 L63.21,42.55 L58.68,42.55 L58.68,49 L64.38,49 L64.38,52 L55.38,52 Z M66.07,52 L66.07,31 L70.96,31 C74.38,31 75.85,32.59 75.85,35.83 L75.85,37.12 C75.85,39.28 75.16,40.66 73.69,41.26 L73.69,41.32 C75.34,41.83 75.88,43.39 75.88,45.76 L75.88,49.45 C75.88,50.47 75.91,51.22 76.24,52 L72.88,52 C72.7,51.46 72.58,51.13 72.58,49.42 L72.58,45.58 C72.58,43.63 72.01,43 70.51,43 L69.37,43 L69.37,52 L66.07,52 Z M69.37,40 L70.57,40 C71.8,40 72.55,39.46 72.55,37.78 L72.55,36.16 C72.55,34.66 72.04,34 70.87,34 L69.37,34 L69.37,40 Z M82.25,52.3 C79.01,52.3 77.39,50.38 77.39,47.02 L77.39,45.82 L80.51,45.82 L80.51,47.26 C80.51,48.76 81.17,49.3 82.22,49.3 C83.27,49.3 83.93,48.76 83.93,47.2 C83.93,45.46 83.27,44.35 81.11,42.46 C78.35,40.03 77.45,38.32 77.45,35.92 C77.45,32.62 79.16,30.7 82.37,30.7 C85.58,30.7 87.17,32.62 87.17,35.98 L87.17,36.85 L84.05,36.85 L84.05,35.77 C84.05,34.27 83.45,33.7 82.4,33.7 C81.35,33.7 80.75,34.27 80.75,35.71 C80.75,37.24 81.44,38.35 83.6,40.24 C86.36,42.67 87.23,44.35 87.23,46.96 C87.23,50.38 85.49,52.3 82.25,52.3 Z M88.92,52 L88.92,31 L97.92,31 L97.92,34 L92.22,34 L92.22,39.55 L96.75,39.55 L96.75,42.55 L92.22,42.55 L92.22,49 L97.92,49 L97.92,52 L88.92,52 Z M104.26,52.3 C101.08,52.3 99.4,50.38 99.4,47.14 L99.4,35.86 C99.4,32.62 101.08,30.7 104.26,30.7 C107.44,30.7 109.12,32.62 109.12,35.86 L109.12,38.08 L106,38.08 L106,35.65 C106,34.27 105.34,33.7 104.35,33.7 C103.36,33.7 102.7,34.27 102.7,35.65 L102.7,47.38 C102.7,48.76 103.36,49.3 104.35,49.3 C105.34,49.3 106,48.76 106,47.38 L106,44.17 L109.12,44.17 L109.12,47.14 C109.12,50.38 107.44,52.3 104.26,52.3 Z M115.7,52.3 C112.46,52.3 110.78,50.38 110.78,47.02 L110.78,31 L114.08,31 L114.08,47.26 C114.08,48.76 114.71,49.3 115.76,49.3 C116.81,49.3 117.44,48.76 117.44,47.26 L117.44,31 L120.62,31 L120.62,47.02 C120.62,50.38 118.94,52.3 115.7,52.3 Z M125.34,52 L125.34,34 L121.89,34 L121.89,31 L132.09,31 L132.09,34 L128.64,34 L128.64,52 L125.34,52 Z M133.48,52 L133.48,31 L142.48,31 L142.48,34 L136.78,34 L136.78,39.55 L141.31,39.55 L141.31,42.55 L136.78,42.55 L136.78,49 L142.48,49 L142.48,52 L133.48,52 Z M144.17,52 L144.17,31 L149.21,31 C152.51,31 154.13,32.83 154.13,36.19 L154.13,46.81 C154.13,50.17 152.51,52 149.21,52 L144.17,52 Z M147.47,49 L149.15,49 C150.2,49 150.83,48.46 150.83,46.96 L150.83,36.04 C150.83,34.54 150.2,34 149.15,34 L147.47,34 L147.47,49 Z M44,28 L44,7 L47.3,7 L47.3,15.55 L50.84,15.55 L50.84,7 L54.14,7 L54.14,28 L50.84,28 L50.84,18.55 L47.3,18.55 L47.3,28 L44,28 Z M56.4,28 L56.4,7 L65.4,7 L65.4,10 L59.7,10 L59.7,15.55 L64.23,15.55 L64.23,18.55 L59.7,18.55 L59.7,25 L65.4,25 L65.4,28 L56.4,28 Z M67.09,28 L67.09,7 L70.39,7 L70.39,25 L75.82,25 L75.82,28 L67.09,28 Z M77.21,28 L77.21,7 L82.07,7 C85.37,7 86.99,8.83 86.99,12.19 L86.99,14.26 C86.99,17.62 85.37,19.45 82.07,19.45 L80.51,19.45 L80.51,28 L77.21,28 Z M80.51,16.45 L82.07,16.45 C83.12,16.45 83.69,15.97 83.69,14.47 L83.69,11.98 C83.69,10.48 83.12,10 82.07,10 L80.51,10 L80.51,16.45 Z M95.77,28 L95.77,10 L92.32,10 L92.32,7 L102.52,7 L102.52,10 L99.07,10 L99.07,28 L95.77,28 Z M103.91,28 L103.91,7 L107.21,7 L107.21,15.55 L110.75,15.55 L110.75,7 L114.05,7 L114.05,28 L110.75,28 L110.75,18.55 L107.21,18.55 L107.21,28 L103.91,28 Z M116.31,28 L116.31,7 L125.31,7 L125.31,10 L119.61,10 L119.61,15.55 L124.14,15.55 L124.14,18.55 L119.61,18.55 L119.61,25 L125.31,25 L125.31,28 L116.31,28 Z M13.2223983,6.92469294 C13.26244,6.83631728 13.3006143,6.75211568 13.3361672,6.67368282 C13.3784632,6.65513151 13.4046887,6.63383186 13.4310129,6.63363555 C13.7296485,6.63127982 14.0288757,6.61685102 14.3267226,6.63618758 C14.415021,6.64188803 14.5032107,6.6505562 14.591347,6.66064129 L14.5942721,6.65201999 C14.6276264,6.649399 14.6543018,6.6564484 14.6761463,6.67073239 C14.905678,6.69895765 15.1349682,6.73342303 15.3649965,6.74671022 C15.7078014,6.76653755 16.0605641,6.68693376 16.3929183,6.76771541 C16.7859066,6.86322032 17.1882612,6.91072738 17.5675452,7.16151366 C17.7945043,7.31169095 18.0645482,7.37912351 18.3176343,7.56326247 C18.3506627,7.5301842 18.3791558,7.50162107 18.4202687,7.46039593 C18.4335787,7.54539824 18.4421562,7.5994817 18.4505365,7.65376147 C18.4751845,7.67005521 18.5003255,7.70077776 18.524875,7.69999252 C18.7542989,7.69312166 18.9171732,7.89394699 19.0909911,8.03813683 C19.3312602,8.23748983 19.5869097,8.43880593 19.7696009,8.71619223 C19.9439118,8.98081838 20.0763211,9.30119661 20.2508292,9.57691428 C20.3281255,9.69901922 20.3600693,9.87118326 20.4134077,10.0201827 C20.5261971,10.3351624 20.6361273,10.6459214 20.7120433,10.987403 C20.7814522,11.2991436 20.8231566,11.6248222 20.9372278,11.9327348 C21.0686511,12.2876636 21.0799892,13.9215533 21.0411439,14.3701221 C20.8779739,14.5455253 21.1611305,14.7840422 20.9938197,14.9587582 C20.9596082,15.4631773 20.6714233,15.8706191 20.6823671,16.3924116 C20.68286,16.4111592 20.6839445,16.4347164 20.6765501,16.4481637 C20.5681973,16.6465351 20.4183373,16.8270424 20.3523791,17.0422965 C19.7786714,17.7853306 19.7957278,18.4128361 18.8259754,19.1472325 C18.1922648,19.6271729 16.8668757,20.2086929 15.7545799,20.5372439 C15.7777712,20.6269542 15.8217853,20.706216 15.7771807,20.7937156 C15.7236452,20.8986434 15.7805329,21.0373365 15.6894337,21.1450127 C15.6434898,21.1991943 15.673659,21.3945229 15.683814,21.5237932 C15.6919971,21.6294081 15.6141093,21.7011594 15.6691237,21.8446622 C15.7162508,21.9678468 15.6568983,22.1713224 15.6370813,22.4440954 C15.6350108,22.4353596 15.6772083,22.5359685 15.6782928,22.6374609 C15.6791887,22.727092 15.6798754,22.8167271 15.680399,22.9063655 C15.8585832,22.8995181 16.0378271,22.8892091 16.2259919,22.8513998 C16.5865434,22.7790595 17.0181799,22.8075244 17.425957,22.7641399 C18.1542572,22.6865974 18.9133182,22.6736409 19.6602524,22.6688313 C21.1809781,22.6590922 22.7020353,22.6664474 24.2229347,22.6645938 C24.2207945,22.5577595 24.2182969,22.4509296 24.2154168,22.3441048 C24.2436142,22.3438103 24.2711214,22.3435158 24.3007976,22.3435158 C24.3095723,21.7588059 24.3021779,21.17282 24.3056287,20.578589 C24.2575157,20.5656326 24.2229098,20.5563078 24.1755856,20.5435477 C24.283544,20.1628041 24.208614,19.7638036 24.2253746,19.3701035 C24.2275437,19.3177868 24.1838673,19.262231 24.1683884,19.2248339 C24.1891913,19.1490582 24.2251775,19.0777976 24.2260648,19.0057518 C24.2313888,18.575538 24.2754595,18.134429 24.2190647,17.7171717 C24.0998668,16.8361315 24.228431,15.947239 24.1415713,15.0769959 C24.030458,13.9627392 24.0984865,12.8518198 24.0804442,11.7401152 C24.062599,10.631846 24.0760075,9.5226934 24.077092,8.41383527 C24.0772892,8.20770957 24.0769934,8.00855288 24.1458108,7.80566629 C24.2077266,7.62329412 24.1410783,7.41304591 24.2082196,7.19445451 C24.278713,6.96467342 24.2614594,6.6569572 24.1788391,6.3690683 C24.1784448,6.36965723 24.2020083,6.33520479 24.2314874,6.2921147 C24.1813039,6.26855748 24.1372333,6.24794491 24.0871484,6.22448584 C24.1287543,6.11926358 24.1698673,6.01502286 24.2287268,5.86592527 C24.2287268,5.60444009 24.2263606,5.29132533 24.2295155,4.97821057 C24.2318817,4.74999997 24.1877124,4.48360704 24.2625439,4.30388506 C24.3443754,4.10747671 24.2126563,3.86473916 24.3784883,3.71544525 C24.3962348,3.69944597 24.3776995,3.62033297 24.3813474,3.57115726 C24.4265026,2.97663184 24.4651508,2.38249904 24.6031798,1.80544522 C24.6447857,1.63112177 24.6273348,1.43765808 24.67249,1.24812058 C24.7107438,1.08783331 24.6383772,0.882689159 24.6118559,0.673226183 C24.655335,0.398882687 24.9696468,0.575267396 25.0089851,0.311328341 C25.4277059,0.255576246 25.810835,0.0906756831 26.2198939,0.0829214304 C26.6118963,0.0755597981 27.0030113,-0.047232228 27.4201547,0.0201021684 C27.486803,0.217688378 27.5576908,0.42764213 27.6285786,0.637595883 C27.7568469,0.96396158 27.419859,1.3042653 27.648297,1.63985758 C27.6262123,1.67136536 27.6012685,1.70709382 27.5654796,1.75813447 C27.5827332,1.80652493 27.602353,1.86198256 27.6302546,1.94060479 C27.6182264,1.97810004 27.5827332,2.04141008 27.5792825,2.10766477 C27.5705078,2.27236902 27.5658739,2.43972346 27.578198,2.60364247 C27.6313391,3.30721821 27.5004088,3.99744485 27.4900566,4.69738884 C27.4867044,4.92559944 27.4030983,5.15920857 27.4262675,5.40086642 C27.4332675,5.47448274 27.4640282,5.54436917 27.4867044,5.62564159 C27.3677037,5.77866539 27.3501543,5.98940438 27.3442388,6.22095226 C27.3312246,6.73734622 27.2876469,7.25236601 27.2748299,7.76875998 C27.2621115,8.28132589 27.2724637,8.79467705 27.2714778,9.30773374 C27.2713792,9.37163271 27.2826187,9.46723577 27.2562946,9.49422843 C27.0968711,9.65746035 27.298492,9.84856832 27.2260268,10.0166099 C27.2166605,10.0383021 27.2713792,10.0968026 27.2694073,10.1358683 C27.258858,10.3398346 27.1228008,10.5418378 27.2031534,10.7353996 C27.2878441,10.9397585 27.2697031,11.1399949 27.2705904,11.3447465 C27.2741398,12.1390175 27.2699003,12.9334849 27.273844,13.7277559 C27.2746327,13.8861782 27.308647,14.0443061 27.30914,14.2026303 C27.3095343,14.3478998 27.286168,14.4933657 27.2718721,14.6384389 C27.2471255,14.8896178 27.2116323,15.1398151 27.1987168,15.3919756 C27.186097,15.639032 27.2421959,15.9077806 27.1861956,16.1322613 C27.0735047,16.5842655 27.1496179,17.0361716 27.1189557,17.4853293 C27.1062373,17.6725111 27.1473503,17.8590058 27.0538849,18.0485433 C27.0077438,18.1421832 27.0554624,18.3290705 27.0822794,18.466684 C27.1323642,18.7243411 27.1382798,18.7325861 27.0526032,19.0050647 C27.0805048,19.0683747 27.1084064,19.1317829 27.1341389,19.1901852 C27.0954908,19.2443668 27.070054,19.2799971 27.0733075,19.275482 C27.0917443,19.4123102 27.1177726,19.5169435 27.1180684,19.621675 C27.1211247,20.6476902 27.119843,21.6738036 27.119843,22.6998188 L27.119843,22.7544993 C27.7067773,22.7255294 28.3066769,22.7286434 28.8928159,22.7595266 C29.2124516,22.7763111 29.5224253,22.8626876 29.8809064,22.8273518 C29.9219207,22.7804336 29.9722027,22.7228166 30.0299777,22.6565619 C30.0606399,22.7894639 30.2540777,22.8177326 30.4015716,22.8828094 C30.5127835,22.9317888 30.583967,23.1067993 30.5104173,23.1566621 C30.3314725,23.2778837 30.7234749,23.3029132 30.5930375,23.4076447 C30.487051,23.4927452 30.453924,23.6038567 30.405811,23.6770804 C30.6456857,23.8037987 30.8446447,23.9090209 31.0692376,24.0276904 C31.1257309,24.0129672 31.2282668,23.9864653 31.351014,23.9547612 C31.362845,24.000207 31.373,24.0388801 31.383155,24.0779458 C31.2728304,24.1068034 31.172365,24.133109 31.0421248,24.1671688 C31.1687171,24.1924928 31.2603092,24.2107497 31.373986,24.2335217 C31.3278448,24.2646368 31.2863375,24.2927092 31.2419711,24.3226465 C31.3715212,24.5576298 31.3715212,24.5576298 31.1550128,25.0677418 C31.0920124,24.996972 31.0454769,24.9445572 30.9940118,24.8866457 C30.9612792,24.9062767 30.9018281,24.9278708 30.9078423,24.9404347 C30.9556595,25.039964 31.0159979,25.1376283 31.0816602,25.2517827 C31.1986891,25.1965213 31.2538021,25.1706084 31.3084222,25.1447936 C31.3894649,25.1882763 31.464395,25.2284217 31.54948,25.274162 C31.3442111,25.3240248 31.1434775,25.372906 30.9408706,25.4221799 C30.8950253,25.4802877 30.8473067,25.5407513 30.7885458,25.615251 C30.8868421,25.7140932 31.0339416,25.8336461 30.7490103,25.9484875 C30.7999825,25.9784248 30.8505602,26.008264 31.0281247,26.1127992 C30.5925446,26.0751076 30.3459656,26.0387902 30.0982035,26.0364345 C29.8390047,26.0338825 29.5288338,26.1178051 29.3325369,26.0652921 C29.1198736,26.0084603 28.8803932,26.1167254 28.7146598,25.9973688 C28.6863639,25.9769525 28.5629265,25.9946204 28.4834612,25.9944241 C28.02532,25.99338 27.5672502,25.9898073 27.1092275,25.9846025 C27.1065649,25.995508 27.1037307,26.0063314 27.1007162,26.0170685 C27.0030113,26.3649302 27.1458714,26.7319321 26.9810253,27.0433782 C27.0838569,27.2098492 27.0412651,27.4066502 27.0401806,27.5907892 C27.039589,27.6935575 27.0025184,27.7958352 26.9729407,27.9427733 C26.9828,27.9598523 27.0114903,28.009028 27.0472792,28.0705713 C26.9695886,28.3090882 26.9056023,28.5571261 27.0215467,28.8294083 C27.0595046,28.9187295 27.0697582,29.0699865 27.0382087,29.1606818 C26.9125037,29.522187 26.9799408,29.8970413 26.9705745,30.2648285 C26.9587435,30.7277279 26.9394194,31.1958296 26.9808281,31.6528397 C26.9988705,31.8519964 26.8453625,31.9738069 26.9249264,32.1923983 C26.9753069,32.3311896 26.899884,32.5432046 26.8934755,32.7230247 C26.8857853,32.9377881 26.8916022,33.1532385 26.8916022,33.3683945 L26.8916022,33.9641959 C26.8916022,34.1627637 26.8848979,34.3618222 26.8935741,34.559801 C26.9017572,34.7469828 26.715418,34.9266066 26.881743,35.1177146 C26.7542633,35.2832041 26.8302779,35.490704 26.818644,35.6779839 C26.8053341,35.8917657 26.8155877,36.1080014 26.8155877,36.3231574 L26.8155877,36.9188606 C26.8155877,37.1340166 26.8216018,37.3495652 26.8139116,37.5642304 C26.8060242,37.7845886 26.8435878,38.0055357 26.7487422,38.2251087 C26.7100941,38.3147243 26.8200243,38.5136846 26.7813762,38.6033984 C26.7237984,38.7368893 26.7459816,38.8572275 26.7423337,38.9801177 C26.7334604,39.2773313 26.7394745,39.5753302 26.7394745,39.8842243 C26.7820663,39.9033645 26.8263342,39.92329 26.8830247,39.9489085 C26.8420104,40.0539344 26.8018834,40.1569973 26.7561366,40.2741945 C26.7975453,40.4870929 26.9820112,40.699206 26.8268272,40.9819909 C26.8588696,40.9965178 26.9030389,41.0165415 26.9575604,41.0411784 C26.9332081,41.1035069 26.9094474,41.1645593 26.8734613,41.2569233 C26.9322222,41.2900016 26.9824056,41.3182702 27.0158283,41.337116 C27.0512229,41.7628147 27.0994345,42.1754587 27.1160965,42.5902621 C27.1332516,43.0193962 27.1187585,43.4505916 27.1202374,43.8809035 C27.1216177,44.2839283 26.9878282,44.6724262 27.0445186,45.0807514 C27.0566455,45.1682076 27.0781386,45.2533081 27.0994345,45.3602971 C27.0997302,45.3599045 27.0701526,45.3799281 27.0656174,45.4072153 C26.9954197,45.82408 26.8987994,47.0434607 26.9771802,47.3362574 C27.0765611,47.7076763 27.0415609,48.0747763 27.0356453,48.4411893 C27.0322932,48.6467261 27.1083078,48.8345949 27.0546736,49.0585849 C27.0040959,49.2696183 27.0222368,49.5219751 27.049744,49.7480263 C27.0788287,49.9874265 26.9691942,50.1781419 26.9631801,50.4029171 C26.9578561,50.6050184 27.0307157,50.82626 26.8952501,51.0119694 C26.8699119,51.0467163 26.8862782,51.1407489 26.8924895,51.2059239 C26.9487857,51.7943637 26.7949819,52.3664116 26.8123341,52.9523975 C26.8144046,53.0220877 26.7576155,53.0927593 26.7535732,53.1653941 C26.7479534,53.2668865 26.766193,53.3706364 26.7780241,53.5226787 C26.7888692,53.5066794 26.7655028,53.5411318 26.7346435,53.5865776 C26.770531,53.6005157 26.8042496,53.6097422 26.8353061,53.6271157 C26.8551231,53.6383054 26.8709965,53.6616663 26.8959403,53.6869903 C26.84694,53.7094678 26.8027707,53.7295896 26.7433196,53.7568767 C26.755545,53.9676157 26.6814037,54.1962189 26.8153905,54.3934125 C26.6991503,54.7631628 26.7015165,55.132913 26.8097707,55.5224906 C26.7902495,55.5882545 26.7524887,55.67149 26.7425309,55.7600259 C26.7298125,55.8733951 26.7445027,55.9915738 26.7379956,56.1068079 C26.7321787,56.2103615 26.7479534,56.2960509 26.8118412,56.3617167 C26.7157138,56.4370016 26.759193,56.5083604 26.8347145,56.5790321 C26.7621507,56.7166455 26.6955024,56.842873 26.6214597,56.9834311 C26.6085441,56.9703764 26.5838961,56.9455432 26.5579664,56.9193358 C26.5266141,56.9421078 26.4928955,56.9664502 26.4465572,57.0000193 C26.4429093,56.9319978 26.4404445,56.8871409 26.4378811,56.8383578 C26.4863885,56.8145061 26.5301634,56.7930102 26.5739383,56.7715142 C26.6208682,56.6065155 26.5685157,56.4928519 26.45967,56.4033344 C26.3082324,56.4769508 26.1539357,56.5500763 26.0010193,56.6280115 C25.979329,56.639103 25.9646388,56.6731628 25.9519204,56.6896529 C25.8876383,56.6491148 25.8255253,56.6099509 25.7496093,56.5619531 L25.7496093,56.0765761 C25.6790173,56.130954 25.6240029,56.1497017 25.6013267,56.1956383 C25.5574532,56.2845668 25.5318192,56.3888075 25.4981007,56.4884349 C25.3672689,56.4007824 25.2360428,56.3311904 25.1227604,56.4772452 C24.9762525,56.4015677 24.8358572,56.329031 24.6905324,56.2539424 C24.6852084,56.222042 24.677814,56.1769888 24.6692365,56.1255555 C24.6468561,56.1369415 24.6286165,56.1438124 24.6120531,56.1549039 C24.4649536,56.2540405 24.5807008,56.4636998 24.4826016,56.6430292 C24.4323196,56.4918703 24.3925869,56.3723174 24.3415162,56.2189992 C24.2628397,56.1830744 24.153008,56.132819 24.0358805,56.0792263 C24.0115283,56.1687438 23.9959507,56.2262626 23.9709083,56.3187247 C23.8870064,56.2756347 23.8038932,56.2330354 23.7205828,56.1903379 C23.7123997,56.1615784 23.6973151,56.1329172 23.6972165,56.1041577 C23.695639,55.7401005 23.6995827,55.3758469 23.6936672,55.0119859 C23.6921883,54.9250205 23.6595543,54.8389385 23.6333288,54.7148705 C23.6487091,54.6375243 23.7069771,54.5062909 23.6858784,54.4026391 C23.6669487,54.3094899 23.691301,54.2116293 23.6687233,54.1491045 C23.600399,53.9594688 23.6675402,53.7764096 23.6531458,53.610233 C23.6355964,53.407739 23.7040193,53.211527 23.6495965,53.0158057 C23.6294837,52.9432691 23.6164695,52.8590521 23.6237653,52.7840616 C23.6306668,52.712801 23.6873573,52.6465463 23.6871601,52.5783285 C23.6869629,52.5085402 23.62554,52.4390464 23.6253428,52.36916 C23.625047,52.2993717 23.6672445,52.229289 23.6930756,52.1526298 C23.5860045,51.8249881 23.5868919,51.4815434 23.6646811,51.1350559 C23.7259068,50.8624792 23.7064841,50.4241186 23.6204132,50.2001286 C23.7527239,50.0788089 23.6787797,49.8985962 23.6952446,49.7447871 C23.7125969,49.5836165 23.7418787,49.4190104 23.7310336,49.2599991 C23.72078,49.1109015 23.6647797,48.9671043 23.6289907,48.8209514 C23.789203,48.6787246 23.5960609,48.5491599 23.6213005,48.406835 C23.6710896,48.3760143 23.7230476,48.3438194 23.7969917,48.297981 C23.7407942,48.1985499 23.6912024,48.1108974 23.6286949,48.0002766 C23.6609346,47.9849644 23.6974137,47.9676891 23.7669211,47.9346108 C23.7550901,47.6941309 23.8055693,47.4311734 23.733104,47.1581059 C23.707963,47.0631899 23.7698789,46.9347049 23.7701747,46.8214339 C23.7736254,45.7623404 23.7713578,44.7031487 23.7734282,43.6440553 C23.773724,43.5296064 23.7768789,43.4210469 23.7014559,43.3404615 C23.7978791,43.2657655 23.7690902,43.1418938 23.7718507,43.0311748 C23.7738226,42.9485282 23.7769775,42.8650964 23.7709634,42.7831369 C23.7641606,42.6897914 23.7429632,42.5981145 23.7372449,42.504769 C23.7336956,42.4472502 23.7667239,42.3501748 23.7500619,42.3354515 C23.6297794,42.2298366 23.7921607,42.1892004 23.7761888,42.102235 C23.7588366,42.0083987 23.7722451,41.9049432 23.7722451,41.8056103 C23.7722451,40.7465168 23.7741184,39.6873251 23.7702733,38.6282316 C23.7696817,38.4656868 23.7310336,38.303142 23.7319209,38.1408916 C23.7328082,37.9499799 23.763076,37.7596572 23.7706676,37.5684511 C23.7778649,37.3868641 23.7722451,37.204492 23.7722451,37.0224143 L23.7722451,36.426711 C23.7722451,36.2446333 23.7644563,36.0618685 23.7738226,35.8806742 C23.7939354,35.4910966 23.8338652,35.102795 23.8454005,34.712923 C23.8582175,34.2832981 23.8070481,33.8432688 23.8620626,33.4254226 C23.9021896,33.1210436 23.8797106,32.8105791 23.9355137,32.5237699 C23.9916126,32.235292 23.9942746,31.9549611 24.0013733,31.6676611 C24.0061057,31.4788107 24.1028246,31.3165603 24.0816273,31.1121033 C24.0641765,30.9434728 24.0407115,30.7553095 24.1509376,30.6058193 C24.1635574,30.5886421 24.1552756,30.5413314 24.1522193,30.5087439 C24.095233,29.8877166 24.2399663,29.2816089 24.2307972,28.6631336 C24.2215295,28.0345484 24.2306,27.4054723 24.2261634,26.7765926 C24.2258676,26.7227055 24.2060506,26.6689165 24.186135,26.6072751 C24.1869237,26.5772396 24.1877124,26.547106 24.1885012,26.5169724 C24.2164028,26.485072 24.2490368,26.4476749 24.268558,26.4253937 C24.2432198,26.3923154 24.2183746,26.3600224 24.1935294,26.3276312 C24.1968935,26.1978088 24.2001511,26.0679826 24.2032575,25.9381538 C22.3580236,25.9055219 20.5127195,25.8771786 18.6657533,25.9117775 C18.1830461,25.9208078 17.6985643,25.9534934 17.2223642,25.9980559 C16.7930185,26.0381314 16.3508539,26.078376 15.9517216,26.1649821 C15.9422171,26.2698099 15.9336474,26.3750464 15.9286774,26.4812243 C15.9249309,26.5607299 15.9255225,26.6391559 15.9295648,26.7160113 C15.891804,26.7421206 15.8576911,26.7930631 15.8336346,26.8964204 C15.8336346,26.965816 15.8341275,27.0380582 15.8346205,27.11138 C15.8063246,27.1555498 15.7841413,27.2126761 15.7736906,27.2878629 C15.7489506,27.4656186 15.7285165,27.6437835 15.7118275,27.8222887 C15.7436695,28.3536034 15.7810886,28.8846149 15.7513496,29.4189966 C15.8888856,30.1010763 15.8023217,30.7984683 15.8166176,31.4884986 C15.8220401,31.7518487 15.7708708,32.0168675 15.7538144,32.2821807 C15.7492791,32.3526561 15.7757018,32.4270576 15.7948287,32.5404268 C15.7116617,32.7414279 15.711978,33.0025211 15.6807921,33.2561674 C15.7042704,33.4472109 15.7277693,33.6316352 15.7482538,33.8061466 C15.7878878,34.1435056 15.8204232,34.4815518 15.8484234,34.8200887 C15.7608736,35.5255294 15.7523947,36.2415708 15.7575214,36.9615385 C15.7585074,37.1082803 15.8259444,37.2299927 15.7936062,37.3873353 C15.7627468,37.5369236 15.7654088,37.7028058 15.7648173,37.8615226 C15.7622539,38.5811957 15.7171973,39.3086231 15.7766483,40.0184808 C15.8375783,40.7445341 15.8235782,41.4650906 15.8318599,42.1881992 C15.8401417,42.9076761 15.8371839,43.6276437 15.8312684,44.3472187 C15.8296909,44.5330263 15.8920011,44.704307 15.8425079,44.908077 C15.7998175,45.0839709 15.8336346,45.2963785 15.8336346,45.4926887 C15.8336346,45.7053908 15.8625221,45.9278103 15.8278176,46.1286356 C15.7512115,46.5721003 15.7644229,47.0175281 15.7653102,47.4639375 C15.765606,47.6662352 15.7354368,47.8732443 15.8277191,48.0668061 C15.8513812,48.1165708 15.8012964,48.2356329 15.7835498,48.3308433 C15.7962682,48.378743 15.833536,48.450887 15.8304796,48.5193993 C15.8164796,48.8338882 15.890818,49.1615299 15.765113,49.4614919 C15.7548595,49.4858344 15.7573243,49.5290226 15.7647187,49.5580765 C15.8900293,50.0550358 15.7252818,50.548167 15.7567327,51.0483653 C15.7883808,51.5515084 15.800902,52.0688839 15.7517045,52.5663339 C15.7139437,52.9480591 15.6977746,53.3243857 15.6936337,53.7094482 C15.6475912,53.7773715 15.6001684,53.8473561 15.5520554,53.9182241 C15.5631963,54.1388767 15.5367736,54.3645353 15.5814359,54.6590006 C15.5369708,54.7710937 15.4606605,54.9631832 15.368674,55.1948293 C15.2474056,55.2867024 15.086799,55.4083166 14.9162346,55.5375869 C14.8934598,55.5172688 14.8660512,55.4929263 14.8324313,55.462989 C14.7329518,55.5576105 14.5831903,55.5898054 14.5013588,55.515502 C14.3748651,55.4005623 14.2775546,55.6214113 14.1745258,55.507944 C14.1600328,55.4512104 14.1456383,55.3943786 14.1310467,55.3371542 L13.9791162,55.3371542 C13.9588062,55.3969306 13.93613,55.4638724 13.9134538,55.530716 C13.7623121,55.5425928 13.748312,55.3559018 13.6995089,55.1972831 C13.5339726,55.3738642 13.3784928,55.3811276 13.2327736,55.2176994 C13.1953086,55.2634397 13.1697732,55.294653 13.1477872,55.3215475 C13.0458429,55.2053319 12.9431099,55.0884291 12.8408698,54.971919 C12.8646305,54.9607294 12.9043632,54.9420799 12.9550395,54.9183264 L12.9550395,54.0905844 C12.8805038,53.9708352 12.7976864,53.8377369 12.7075732,53.6929581 C12.7102352,53.6883448 12.7297564,53.6552666 12.7461227,53.6274887 C12.7260099,53.458073 12.6925872,53.2921909 12.6891365,53.1251309 C12.6808547,52.7166094 12.6410235,52.2949351 12.6960379,51.9011368 C12.8063626,51.1112828 12.727686,50.3224103 12.7536157,49.5345193 C12.7599256,49.3430187 12.7214747,49.1492605 12.7220663,48.9565821 C12.7227564,48.7346534 12.7486861,48.5132155 12.7550946,48.2910905 C12.7612073,48.078781 12.7563763,47.8658826 12.7563763,47.6531805 L12.7563763,45.0524631 C12.7563763,44.8398592 12.762489,44.6267644 12.7542073,44.4147494 C12.7488833,44.2774305 12.8027146,44.1179284 12.7010661,44.0145711 C12.7314325,43.9262315 12.750165,43.8718536 12.7672215,43.822089 C12.7339959,43.772128 12.710531,43.7367922 12.6943619,43.7124497 C12.715855,43.655029 12.748489,43.6033013 12.7541087,43.5462731 C12.7722497,43.3619379 12.7055028,43.1871236 12.7482918,42.9866909 C12.7867427,42.8065763 12.7563763,42.597506 12.7563763,42.4012939 C12.7563763,42.1885918 12.7361649,41.9706875 12.7632778,41.7651508 C12.7823061,41.6206665 12.6671504,41.5130885 12.7305452,41.3890204 C12.7840807,41.2839945 12.7270945,41.1453995 12.8182922,41.0377233 C12.8642361,40.9835417 12.8340669,40.7882131 12.823912,40.6589428 C12.8156302,40.5533279 12.8936166,40.4814784 12.8386022,40.3379756 C12.7914751,40.2148892 12.8508276,40.0114136 12.8706446,39.7386406 C12.8726165,39.7473764 12.830419,39.6467675 12.8294331,39.5452751 C12.8261179,39.2136024 12.8256675,38.8818737 12.8257434,38.5501339 C12.7202113,38.3770823 12.6782935,38.088747 12.6409644,37.8898796 C12.5821048,37.576863 12.5366539,37.2510862 12.5144706,36.9286467 C12.4859775,36.5129599 12.5597244,36.114352 12.5790485,35.7015117 C12.582795,35.6219079 12.5822034,35.5435801 12.5781612,35.4667247 C12.615922,35.4406154 12.6500348,35.3896729 12.6739927,35.2862175 C12.6739927,34.8478568 12.6587109,34.324003 12.6842463,33.8040755 C12.6911478,33.6640082 12.5825978,33.5801837 12.6444151,33.4239208 C12.6747815,33.3469672 12.6136543,33.2048386 12.605767,33.0905861 C12.5961049,32.9508132 12.5931472,32.8230153 12.5440483,32.6830461 C12.4979071,32.5512238 12.5098368,32.3526561 12.5413863,32.2020862 C12.569978,32.0653561 12.4557097,31.9889915 12.5152594,31.8258577 C12.5546962,31.7177889 12.4589632,31.5180433 12.4606393,31.3395973 C12.4685267,30.4564959 12.4600478,29.5731001 12.4674422,28.6899005 C12.4690196,28.4904493 12.4954423,28.2851089 12.5367525,28.0937064 C12.6676112,27.4877652 12.7213332,26.8721073 12.741134,26.2510771 C11.6507693,26.2512948 10.5604006,26.2505093 9.47006327,26.2483514 C9.25049855,26.2478606 9.03122961,26.2162546 8.77321394,26.1961328 C8.58115643,26.211445 8.32284499,26.2649396 8.09618163,26.2389285 C7.93892715,26.2208679 7.7925178,26.155104 7.60075607,26.1634472 C7.41658593,26.1714959 7.22985239,26.1619749 7.04469633,26.1661955 C6.98325656,26.1676162 6.90541812,26.1664349 6.83220305,26.1669763 C6.84323464,26.5959217 6.87043916,27.0246399 6.93192663,27.4457552 C6.90432082,27.837983 6.8593628,28.2296218 6.88568691,28.6275426 C6.92679983,29.2483735 6.95716622,29.8801979 6.90639126,30.4961211 C6.87336289,30.8962013 6.90984198,31.3018763 6.85117965,31.6876259 C6.72300986,32.5308763 6.84694019,33.3709858 6.82140482,34.2111934 C6.81588366,34.391308 6.82594006,34.5722078 6.82879923,34.7527151 C6.65606578,34.8545019 6.82820768,35.0301995 6.77289748,35.1832233 C6.72054505,35.3282966 6.7186718,35.5536607 6.81351745,35.7396646 C6.85699659,35.8249613 6.87277133,35.9718014 6.84408102,36.0641653 C6.71669996,36.4744536 6.80986954,36.8941648 6.78808068,37.3076922 C6.77053127,37.6395546 6.73533387,37.9704355 6.72695354,38.3025923 C6.71877039,38.6303322 6.73158737,38.9591517 6.74144659,39.2872842 C6.74470013,39.3925065 6.76806647,39.4969435 6.78965815,39.6572308 C6.77161579,39.6727393 6.70871399,39.7266264 6.66661514,39.7626494 L6.67519266,40.2989688 C6.67755887,40.4466922 6.68337581,40.5945138 6.68130537,40.7421391 C6.67903776,40.9019356 6.70427735,41.0821483 6.65241787,41.2152466 C6.60460068,41.3378424 6.79577086,41.4811488 6.54100874,41.5347415 C6.66306583,41.6336818 6.72981271,41.6877653 6.77378481,41.7233956 C6.77575666,42.1538057 6.92867308,42.5176666 6.87750376,42.907146 C6.85758814,43.0590901 6.8192358,43.2080896 6.80770051,43.3607207 C6.7965596,43.5067755 6.80434838,43.6562657 6.81371464,43.8033021 C6.81982735,43.8989051 6.88115167,44.0199304 6.85147543,44.0818662 C6.79508072,44.1992597 6.88765875,44.3072303 6.882039,44.3174385 C6.75840444,44.543097 6.85216557,44.7877977 6.83244714,45.0192474 C6.80277091,45.3662257 6.91763076,45.7276328 6.76717914,46.0630287 C6.84565849,46.1657971 6.78157359,46.26886 6.77979893,46.3756527 C6.76885521,47.0195501 6.69668575,47.6576564 6.71167176,48.306069 C6.72734791,48.9802964 6.6282628,49.6557997 6.67391096,50.3345422 C6.51793818,50.9385887 6.63092478,51.5562787 6.63240367,52.1664108 C6.63299522,52.3972716 6.55214966,52.5938762 6.54731864,52.8162957 C6.54298059,53.0168266 6.63417833,53.2402276 6.48185345,53.4183791 C6.47524778,53.4261333 6.48234641,53.4501813 6.48155767,53.4664751 C6.46174065,53.9021855 6.45257158,54.3392702 6.4184587,54.7732139 C6.39183882,55.1110637 6.334261,55.4450855 6.29088045,55.7781257 C6.18440093,55.8223937 6.09152712,55.8610668 5.98189265,55.9067089 C5.97144188,55.8957155 5.94294875,55.8657782 5.91435702,55.8358409 C5.88763855,55.8661709 5.85973697,55.8977768 5.83331427,55.9278123 C5.80255352,55.8956174 5.7726801,55.8643059 5.73827144,55.8283811 C5.58841137,55.8894336 5.45304434,56.0517821 5.27212774,55.8669561 C5.20873299,55.8021737 5.06626733,55.8566498 4.96028077,55.84919 C4.78104023,55.8366262 4.59726446,55.9064145 4.42285494,55.7696844 C4.38124905,55.7370969 4.28453015,55.8093391 4.20743109,55.8353502 C4.15547303,55.8123819 4.08537401,55.781463 4.01034538,55.7483847 C3.92575331,55.8361354 3.84964017,55.9150521 3.75055506,56.0178205 C3.64861077,55.7869597 3.56115953,55.5888827 3.4761731,55.3964987 C3.4572434,55.4188781 3.42865168,55.4524471 3.40055292,55.4855254 C3.22170675,55.3615555 3.22170675,55.3615555 3.15338239,55.0201721 C3.12991746,55.2295369 3.11591737,55.3551754 3.1018187,55.4807158 C3.03793098,55.2626152 2.99040956,55.0463795 3.10043841,54.83407 C3.05193107,54.7769438 3.00352232,54.7197193 2.95373328,54.6611207 C3.01900129,54.5311634 3.08436788,54.4009116 3.15643875,54.257507 C3.14095978,54.1846759 3.12341038,54.0856374 3.09846656,53.9894454 C3.07943828,53.916418 2.97207142,53.8514393 3.09057919,53.7725226 C3.0351704,53.6875203 2.94880367,53.6062479 3.06741003,53.5002404 C2.92977539,53.2320807 3.04936767,52.9709881 3.07825517,52.7071472 C3.07963546,52.6942889 3.0716495,52.6767191 3.06386072,52.6659221 C3.04601554,52.6413833 3.02560696,52.619691 2.99040956,52.5782696 C3.05222684,52.5223212 3.11414271,52.4663728 3.17921353,52.4074797 C3.14667812,52.2783076 3.12153713,52.1778949 3.09343836,52.0662926 C3.11788922,52.0551029 3.16432612,52.0339996 3.25059425,51.9947375 C3.17487548,51.9574386 3.12745265,51.9341758 3.05488883,51.8984474 C3.11995965,51.8606577 3.16866417,51.8324872 3.22880539,51.7975439 C3.1696501,51.7637786 3.1180864,51.7344302 3.06346635,51.703315 C3.09057919,51.6655253 3.1156216,51.6306803 3.13997386,51.5968168 C3.11286102,51.5622662 3.08555099,51.5272248 3.04611413,51.4767731 C3.24448154,51.2359005 3.04562117,50.8977562 3.18690372,50.6214496 C3.24112941,50.5153439 3.24103081,50.3393518 3.12843858,50.2282403 C3.15712889,50.165421 3.18581921,50.1026017 3.2123405,50.0443958 C3.1708332,49.9907049 3.14381895,49.9558599 3.10014263,49.8994207 C3.1620585,49.8402332 3.22476311,49.7800641 3.26804506,49.7385445 C3.23669276,49.4887398 3.21174895,49.2720133 3.18138256,49.0564647 C3.16245287,48.9217959 3.198439,48.8107825 3.2563126,48.7008488 C3.31615803,48.5869889 3.16057962,48.5131762 3.216087,48.3708514 C3.24655197,48.2927199 3.17832621,48.1568732 3.15338239,48.041541 C3.21697433,48.0118982 3.26331264,47.9904022 3.34021452,47.9546737 C3.2474393,47.8790943 3.17043883,47.8162751 3.10033981,47.7592469 C3.22919976,47.7046727 3.26548167,47.5459559 3.32443978,47.3927358 C3.29762271,47.3466029 3.26981972,47.2987032 3.23728431,47.2427548 C3.28569306,47.2208662 3.33203137,47.1997629 3.4183981,47.160599 C3.3505667,47.130858 3.31290449,47.1144661 3.23876319,47.0818786 C3.24546746,46.9943243 3.25394639,46.8819367 3.26498871,46.7372561 C3.26222813,46.7362745 3.21835462,46.7215513 3.12626955,46.6907306 C3.21559404,46.6028818 3.28214374,46.5374123 3.37265134,46.4483856 C3.32443978,46.4191354 3.25710134,46.3782047 3.21224191,46.3510158 C3.38507395,45.9425924 3.20248128,45.5343654 3.33804549,45.1579406 C3.34445398,45.1651059 3.31093265,45.1459656 3.30738333,45.1206416 C3.29200296,45.0111005 3.28796068,44.8993019 3.27484792,44.78927 C3.26124221,44.6754101 3.27997471,44.5752919 3.34228495,44.4885228 C3.24487591,44.4116674 3.24970692,44.2965314 3.28283389,44.1894442 C3.31349605,44.0900131 3.36732736,44.0012809 3.41366567,43.9021443 C3.39404583,43.8768202 3.36791891,43.8428586 3.34238355,43.8097803 C3.3681161,43.7748371 3.3945388,43.7389123 3.43200381,43.688068 C3.41129946,43.6384015 3.38872186,43.5842199 3.3655527,43.5284678 C3.41967979,43.1193574 3.47518718,42.6996462 3.53562417,42.2436176 C3.40922903,42.1391806 3.5502158,41.9513117 3.51146909,41.7878835 C3.50683526,41.7681543 3.5502158,41.7338982 3.54715945,41.7109299 C3.4836661,41.2254548 3.64693471,40.7560771 3.60838517,40.2724669 C3.59793441,40.142117 3.59566679,40.0093131 3.60296261,39.878865 C3.6093711,39.7641217 3.67552643,39.6252322 3.64101918,39.543469 C3.59290621,39.4296091 3.58561039,39.3502998 3.6168641,39.2347713 C3.64841359,39.1184575 3.65738547,38.9906595 3.66349819,38.8668859 C3.66990668,38.7362415 3.65166713,38.6032414 3.66162494,38.4733822 C3.67325881,38.3205547 3.80202016,38.1647825 3.72531547,38.0259912 C3.63687831,37.8656058 3.76169597,37.74674 3.72689294,37.6088321 C3.68903355,37.4584585 3.74128739,37.2990546 3.76603402,37.1688028 C3.79718915,37.0051782 3.78328765,36.8521544 3.78979473,36.6958915 C3.79728774,36.5160714 3.7864426,36.3349752 3.78358343,36.1543698 L3.76701995,35.1203059 C3.76307626,34.8741329 3.77954115,34.62423 3.74927336,34.3827685 C3.72137178,34.1602509 3.83140062,33.9504935 3.76140019,33.7326873 C3.88296432,33.6347285 3.64585019,33.5114457 3.78496372,33.3756972 C3.84628804,33.3158226 3.81000612,33.102826 3.81237234,32.9592251 C3.81454136,32.8279918 3.8091188,32.6966603 3.80694977,32.5653287 C3.80468215,32.4176053 3.79245672,32.2688022 3.80221734,32.1223548 C3.81680898,31.9047449 3.85782332,31.689589 3.86728817,31.471881 C3.87714738,31.2430814 3.85259793,31.0117299 3.86265433,30.7829303 C3.87034452,30.6063493 3.98786637,30.4621595 3.90307712,30.2453349 C3.84865425,30.1061509 3.90800672,29.8980621 3.92516176,29.7221682 C3.93226039,29.6487482 3.962331,29.5788618 3.97672545,29.5263488 C3.95572533,29.4351627 3.91628846,29.3470194 3.91993637,29.2621153 C3.92664064,29.111349 3.95947183,28.9624477 3.98135929,28.8128594 C3.83721756,28.7215751 4.10913471,28.5123085 3.90849968,28.4370235 C4.03104973,28.291165 3.96795075,28.106339 3.97357051,27.9377085 C3.97899307,27.7739858 3.97002119,27.6094779 3.96745779,27.4453626 L3.95957042,26.9529185 C3.95700702,26.7888031 3.94793655,26.6243933 3.95316193,26.4606706 C3.954814,26.4084365 3.95405245,26.3561125 3.95240329,26.3037428 C3.40158979,26.3200148 2.85093761,26.3313152 2.30083633,26.3260902 C1.50933853,26.3184341 0.742981734,26.1807225 0.0304562501,26.0079695 C0.0304562501,25.7058481 -0.0483188796,25.4423017 0.0475126924,25.1984844 C0.227344778,24.7406891 0.158823232,24.2827955 0.198161501,23.8248039 C0.21048552,23.6815956 0.324359456,23.5409393 0.407768417,23.365438 C0.539487532,23.2927051 0.723657673,23.1911145 0.903391166,23.0919779 C1.94790358,23.0719828 2.98790549,23.0467328 4.02684485,23.0284257 C4.0461479,22.5848233 4.06087996,22.1410568 4.03716244,21.6966149 C4.18179713,20.5136496 4.04376812,19.3262674 4.06112034,18.1413391 C4.19510707,17.6194484 4.10578258,17.0846013 4.11357136,16.5556435 C4.11485306,16.4699541 4.07728945,16.383185 4.05490903,16.2849318 C4.07906411,16.2740365 4.1255996,16.2530313 4.19698032,16.2209346 C4.15685332,16.0658496 4.24903698,15.8829866 4.11859956,15.7345761 C4.21117759,15.5829265 4.17548723,15.4078178 4.17558583,15.2401689 C4.17568442,15.0596617 4.12865596,14.8587382 4.17864218,14.7038495 C4.23622,14.5255016 4.09700788,14.3574601 4.16868437,14.2465449 C4.27969914,14.0746753 4.22251569,13.9052596 4.23040306,13.735942 C4.23888199,13.5562201 4.23513549,13.3742405 4.22202273,13.1947148 C4.20950153,13.0237287 4.26402299,12.8378229 4.14886735,12.6601622 C4.24706514,12.4830904 4.3053331,12.2754924 4.28886821,12.0349142 C4.2537694,11.5206797 4.40619287,11.0170459 4.34792491,10.4979036 C4.33717836,10.4019079 4.4133901,10.2952133 4.4133901,10.1933283 C4.41348869,10.0724012 4.44415085,9.94548667 4.36409402,9.82141862 C4.33175579,9.77135953 4.39810831,9.63492394 4.40678442,9.53617991 C4.43271416,9.23788657 4.46327773,8.93929877 4.47155947,8.63992572 C4.48003839,8.32867591 4.42009436,8.00535302 4.46840452,7.70666706 C4.58868694,6.96284774 4.47254539,6.21942104 4.51060196,5.4791353 C4.52598233,5.18084196 4.60485606,4.88676929 4.5691657,4.58278295 C4.56058818,4.51005003 4.52588374,4.44163592 4.50103852,4.36468233 C4.68432133,4.17710794 4.49472862,3.9299534 4.53465844,3.70252804 C4.57547559,3.46921338 4.5351514,3.21607138 4.54826416,2.97313752 C4.56167269,2.72186047 4.51030618,2.47657088 4.5917433,2.21371153 C4.65789863,2.0002242 4.59351796,1.72970875 4.60525042,1.48598965 C4.61737726,1.23569415 4.65149014,0.987165444 4.67643396,0.733336364 C4.74357521,0.677289804 4.82836447,0.630862443 4.88416762,0.553221761 C4.94036515,0.475090304 4.96777377,0.366039992 5.00326694,0.281430298 L5.19828222,0.277896715 C5.213564,0.329624451 5.23022608,0.386259942 5.25142339,0.457913162 L5.8568778,0.446919792 C5.9724278,0.140774044 6.26159858,0.146172575 6.47564215,0.0860035005 C6.76530589,0.00473108027 7.10249105,-0.0567140103 7.37352088,0.23755497 C7.52624012,0.212034645 7.48985962,0.516119135 7.65125497,0.47538477 C7.64238167,0.633610786 7.80574887,0.732452968 7.70045245,0.956639209 C7.61871956,1.13047189 7.46097211,1.40147811 7.66081841,1.64647323 C7.53215565,1.86329784 7.61891674,2.10839112 7.60698709,2.33984083 C7.60343777,2.40835309 7.64642395,2.4806934 7.66821282,2.55175769 C7.65115638,2.60947288 7.61231107,2.68014455 7.6131984,2.75032545 C7.61556461,2.9255323 7.61901533,3.10574505 7.65421273,3.2741792 C7.68664955,3.42946056 7.61260684,3.55372492 7.61724068,3.70311697 C7.62749426,4.03448858 7.67452272,4.36851038 7.56952207,4.70204139 C7.5290007,4.83062457 7.6093533,5.01005209 7.60876175,5.16602054 C7.60836738,5.29038304 7.59417011,5.43486735 7.54073317,5.53370953 C7.4548594,5.69252448 7.51164848,5.84908186 7.50247941,6.00485399 C7.4938033,6.15159586 7.50484562,6.30010453 7.50721183,6.44782795 C7.51036678,6.64482523 7.52338095,6.84250959 7.51431047,7.03852532 C7.50109912,7.32160462 7.46146508,7.60281897 7.4523946,7.88589827 C7.44332412,8.16416797 7.49202864,8.45215502 7.4485495,8.7193332 C7.42685923,8.8522352 7.38623926,8.98562798 7.38919703,9.12667685 C7.39974639,9.63335346 7.41236618,10.1399319 7.42784515,10.6464122 C7.4285353,10.6700676 7.46422566,10.6922506 7.50356392,10.738678 C7.44076072,10.792467 7.37795752,10.846256 7.33576008,10.8822789 C7.33990095,11.139936 7.33073188,11.3548957 7.35074609,11.565831 C7.3669152,11.7365227 7.30135142,11.8873871 7.31190078,12.0580788 C7.32461917,12.2623396 7.28961895,12.4699376 7.2852809,12.6764559 C7.28114003,12.8731587 7.29316827,13.0704505 7.29129502,13.2673496 C7.29070347,13.326439 7.28005552,13.3972088 7.25185816,13.4417712 C7.15395615,13.5964636 7.25935116,13.7034527 7.30214016,13.8259503 C7.27660479,13.911247 7.23775948,13.9943844 7.22829464,14.0824295 C7.21015368,14.2508637 7.28695697,14.4064395 7.24426656,14.5949954 C7.19970291,14.7918946 7.24032288,15.0180439 7.2437736,15.2314331 L7.25323845,15.8223268 C7.2563934,16.0193241 7.2626047,16.2163213 7.26211174,16.4132205 C7.26023849,17.1776524 7.15997027,17.9386488 7.21853401,18.705142 C7.09588537,19.0264036 7.15642096,19.3668055 7.15701251,19.6999439 C7.1571111,19.7687506 7.1998015,19.8376555 7.21380159,19.8796659 C7.16785765,20.0331804 7.08385713,20.1777629 7.08977266,20.3172413 C7.11678691,20.9525992 6.99187065,21.5799085 7.02194126,22.2140885 C7.00961724,22.2423572 6.99896929,22.2729816 6.99157488,22.3081211 C6.94337375,22.5367296 6.90923104,22.7685465 6.88507522,23.0023662 C7.8662227,23.0015368 8.84756833,23.0063867 9.82874152,23.0063867 C10.8063369,23.0063867 11.7840149,23.0084431 12.7616418,23.0075242 C12.7616248,22.7247495 12.7543757,22.4431538 12.730979,22.1642552 C12.6701476,21.4382019 12.6841477,20.7176454 12.675866,19.9945368 C12.6675842,19.2750599 12.670542,18.5550923 12.6764575,17.8355173 C12.6779364,17.6497097 12.6156262,17.4783309 12.665218,17.2745609 C12.7079084,17.0987651 12.6739927,16.8862593 12.6739927,16.6900473 C12.6739927,16.4773452 12.6452038,16.2549257 12.6799083,16.0541004 C12.756613,15.6107338 12.743303,15.1652079 12.7424157,14.7187985 C12.7421199,14.5164027 12.7722891,14.3094917 12.6800068,14.1159299 C12.6563447,14.0661652 12.7064295,13.9471031 12.7241761,13.8518927 C12.7114577,13.803993 12.6741899,13.731849 12.6772463,13.6633367 C12.6912464,13.3488478 12.6169079,13.0212061 12.7426129,12.7212441 C12.7527679,12.6969016 12.7504016,12.6537134 12.7430072,12.6246595 C12.6176966,12.1277002 12.7823455,11.634569 12.7508946,11.1343706 C12.7193451,10.6312276 12.7067253,10.1138521 12.7560214,9.61640207 C12.7937822,9.2346769 12.8098527,8.85835026 12.8140922,8.47328782 C12.8601347,8.40536449 12.9075575,8.33537991 12.9556705,8.26451193 C12.9445296,8.04385927 12.9709523,7.8182007 12.92629,7.52373541 C12.9707551,7.41164229 13.0470654,7.21955276 13.1389533,6.98790674 C13.1650416,6.96814217 13.1929551,6.94699663 13.2223983,6.92469294 Z M15.811172,10.2853029 C15.701609,11.0739193 15.7799994,11.8615572 15.7541102,12.6482167 C15.7478003,12.8397173 15.7862512,13.0334755 15.7856596,13.2261539 C15.7849695,13.4479844 15.7590398,13.6695205 15.7526313,13.8916455 C15.7465186,14.1039549 15.7513496,14.3168534 15.7513496,14.5294573 L15.7513496,17.1044108 C16.3081642,16.8864139 16.8083526,16.5533495 17.1758386,16.0708555 C17.3006562,15.9069365 17.4163048,15.7233864 17.5179533,15.5272726 C17.7097151,15.2729527 17.9217868,15.039638 17.9939562,14.6634096 C17.9939562,14.4264631 17.9780829,14.1870629 17.9978999,13.9530611 C18.024717,13.6358238 17.9283925,13.3591246 17.8703217,13.0692726 C17.8348285,12.8920045 17.8261524,12.6494633 17.735842,12.5603384 C17.5977144,12.424001 17.6814191,12.2247462 17.5907143,12.0913534 C17.5491085,12.0301046 17.551869,11.9155576 17.5299816,11.801894 C17.4561361,11.6498518 17.3625721,11.5313786 17.2577686,11.4321438 C16.9417164,10.93607 16.4187292,10.5520698 15.811172,10.2853029 Z" id="path-1"></path>
    </defs>
    <g id="Desktop" stroke="none" stroke-width="1" fill="none" fill-rule="evenodd">
        <g id="Our-Impact" transform="translate(-30.000000, -11.000000)">
            <g id="E-Design-Tiles/Nav/Marcon/Desktop">
                <g id="D-Logo/1/Black" transform="translate(30.000000, 11.000000)">
                    <mask id="mask-2" fill="white">
                        <use xlink:href="#path-1"></use>
                    </mask>
                    <use id="Combined-Shape" fill="#000000" fill-rule="evenodd" xlink:href="#path-1"></use>
                    <g id="C-Color/Black" mask="url(#mask-2)" fill="#222223" fill-rule="evenodd">
                        <rect id="Rectangle" x="0" y="0" width="155" height="56"></rect>
                    </g>
                </g>
            </g>
        </g>
    </g>
</svg>