<?xml version="1.0" encoding="UTF-8"?>
<svg width="121px" height="118px" viewBox="0 0 121 118" version="1.1" xmlns="http://www.w3.org/2000/svg" xmlns:xlink="http://www.w3.org/1999/xlink">
    <!-- Generator: Sketch 50.2 (55047) - http://www.bohemiancoding.com/sketch -->
    <title>Group 19</title>
    <desc>Created with Sketch.</desc>
    <defs></defs>
    <g id="Desktop" stroke="none" stroke-width="1" fill="none" fill-rule="evenodd">
        <g id="Home" transform="translate(-302.000000, -1098.000000)">
            <g id="Group-19" transform="translate(285.000000, 1086.000000)">
                <path d="M135.36718,86.6308056 C141.883127,115.454023 96.6053771,135.939728 67.3352875,131.358721 C38.0678477,126.777713 18.06291,99.4026595 22.6564009,70.2121156 C27.2498918,41.0228929 54.7008689,21.0736428 83.9696336,25.6546502 C113.239723,30.2343363 128.122528,54.582252 135.36718,86.6308056" id="Fill-1-Copy" fill="#DEB540" transform="translate(79.000000, 78.500000) rotate(138.000000) translate(-79.000000, -78.500000) "></path>
                <path d="M110.846963,104.299783 L103.199842,96.7075632 C84.2991282,115.956793 53.3434585,116.687965 33.5411547,98.3089271 C13.6760538,79.8716055 12.3815532,49.0211465 30.6333244,29.0071992 C48.8841634,8.99427407 79.930066,7.21770171 100.375884,25.0161058 C120.764288,42.7645312 123.093766,73.4332716 105.657403,94.0138404 L113.429701,101.730339 L115.34658,99.7696731 C117.643359,97.5449995 121.307414,97.5449995 123.606396,99.7718337 L138.355467,114.415016 L135.753012,116.980591 L135.577495,116.806334 L121.007862,102.341301 C120.178875,101.519289 118.835175,101.519289 118.006188,102.341301 L118.006299,102.341192 L112.106907,108.19822 C111.287017,109.024056 111.287017,110.349764 112.105343,111.174037 L126.870816,125.785805 L124.269692,128.350069 L124.094202,128.179036 L109.446055,113.903039 C108.330493,112.824203 107.701178,111.343388 107.701178,109.796851 C107.701178,108.250315 108.330493,106.7695 109.44371,105.692961 L110.846963,104.299783 Z M67.5556769,107.991966 C93.0551592,107.957455 113.717178,87.4437191 113.751845,62.1294165 C113.751845,36.8006347 93.0695934,16.2668669 67.5558456,16.2668669 C42.0420978,16.2668669 21.3598458,36.8006347 21.3598458,62.1294165 C21.3598458,87.4581426 42.0420066,107.991876 67.5556769,107.991966 Z" id="Shape" stroke="#666B49" stroke-width="0.5" fill="#000000" fill-rule="nonzero"></path>
                <path d="M95.135789,55.9676186 C96.4534288,57.2815184 97.6982172,58.6654648 98.8662081,60.1153241 C99.3779306,60.7654799 99.3779306,61.6777801 98.8728294,62.3191308 C98.5272627,62.8003853 97.4029239,64.1143902 96.1022581,65.4712102 C94.0901634,67.5701739 91.8008541,69.6572617 89.2883008,71.5866931 C82.2263227,77.0097037 74.6943865,80.25 67,80.25 C59.3093027,80.25 51.7831598,77.0000275 44.7114868,71.5575151 C42.2045831,69.6281478 39.9215011,67.5452202 37.8979256,65.43876 C37.1700818,64.681104 36.5211014,63.9668469 35.9548916,63.3115745 C35.5883904,62.8874242 35.3214028,62.5640941 35.1337919,62.3279358 C34.6220694,61.6777801 34.6220694,60.7654799 35.1367933,60.1115851 C36.6174755,58.3028247 38.2153825,56.591596 39.9203484,54.9887357 L36.6233811,51.1007964 C35.9769938,50.3411074 36.0745435,49.2052984 36.8408905,48.5650256 C37.6058929,47.9258762 38.7482269,48.022214 39.3917865,48.7786003 L42.7134307,52.6014685 C43.8039446,51.6936038 44.8612132,50.8602655 45.9302459,50.0741992 C45.894705,50.02565 45.8612085,49.9756534 45.8298641,49.9243527 L42.8186325,45.0105182 C42.3768544,44.0755528 42.725774,42.9610259 43.6229797,42.4385859 C44.5189452,41.916868 45.6681577,42.1565441 46.2873487,43.0089348 L49.2233295,47.797224 C50.345485,47.1086267 51.4635236,46.482059 52.5887637,45.9163467 L50.5882166,41.4055241 C50.0524907,40.456086 50.3668451,39.2568031 51.3057323,38.6830029 C52.2609453,38.1323062 53.4853935,38.4474588 54.0639254,39.4169737 L56.2316436,44.2908222 C57.514956,43.8005168 58.8275379,43.38904 60.1619273,43.0587318 L59.433479,37.9080983 C59.1690809,36.8532165 59.7893206,35.7795909 60.8458124,35.4701204 C61.9126267,35.1883129 63.0099985,35.8108183 63.3118785,36.8968354 L64.1346835,42.3225462 C65.1016087,42.2175282 66.0736134,42.1640334 67.0468488,42.1623109 C67.7949036,42.1623109 67.8731721,42.1623109 68.4698589,42.1623109 L68.8745498,36.6520366 C68.9640106,35.4915402 69.8981243,34.75 71.0094726,34.75 C72.134141,34.75 72.9775064,35.5128694 72.8868004,36.6894939 L72.4499525,42.6603086 C74.1175888,43.0083261 75.754853,43.4864238 77.3464481,44.0901314 L79.7313979,38.7247092 C80.295979,37.7820531 81.5204272,37.4669004 82.4829031,38.0219499 C83.4074916,38.5975647 83.7197034,39.7886731 83.2040471,40.718417 L81.0217234,45.650744 C82.4906562,46.3684979 83.9188119,47.1654481 85.2997724,48.0380127 L87.8173172,43.9210089 C88.4255398,43.0850173 89.5747523,42.8453412 90.4707178,43.367059 C91.3679235,43.8894991 91.7168431,45.0040259 91.2623601,45.9625302 L88.6020642,50.3166319 C89.85911,51.2489514 91.0782358,52.2363453 92.2241812,53.242898 L94.8248659,50.1258692 C95.6097636,49.3558817 96.8730993,49.3558817 97.6641966,50.13217 C98.4122695,50.9198284 98.4122695,52.1492912 97.6748691,52.9249645 L95.135789,55.9676186 Z M95.0267007,61.2301753 C92.3873738,58.2457303 88.9404994,55.0309302 84.9507787,52.2602328 C79.0451283,48.1590007 72.978764,45.7881706 66.9687675,45.7881706 C60.9591924,45.7881706 54.8968786,48.158364 48.9926498,52.2602067 C45.0100134,55.0270623 41.5901075,58.2153493 38.9122534,61.2293634 C41.5846995,64.2370118 45.0139443,67.4308582 49.0022976,70.1984497 C54.9133037,74.3002053 60.9833047,76.670564 67,76.670564 C73.0243648,76.670564 79.094274,74.2991059 84.9896694,70.198606 C88.9779751,67.4245686 92.4392436,64.1839584 95.0267007,61.2301753 Z" id="Shape" stroke="#666B49" stroke-width="0.5" fill="#000000" fill-rule="nonzero"></path>
                <path d="M73.6111506,50.4519782 C76.6606515,52.1411096 78.8870279,54.9284004 79.7982619,58.1996274 C80.7098702,61.4721978 80.230034,64.9591797 78.465037,67.8905307 C74.8000049,73.9775073 66.7042969,76.0563401 60.3749361,72.5391366 C54.0398543,69.018754 51.8681602,61.222618 55.5278142,55.1249229 C59.1839981,49.0330097 67.2766855,46.9432911 73.6111506,50.4519782 Z M75.2177164,66.0835138 L75.2257452,66.0546439 C76.4897462,63.9578478 76.8333573,61.4644839 76.1811359,59.1243185 C75.5285395,56.7828072 73.9323606,54.7863677 71.7443649,53.576607 C67.1977255,51.0675988 61.396018,52.571831 58.7802693,56.9344439 C56.1679833,61.2912816 57.7176803,66.8583554 62.2486863,69.3806849 C66.7806962,71.9035733 72.5809532,70.4261408 75.2177164,66.0835138 Z" id="Shape" stroke="#666B49" stroke-width="0.5" fill="#000000" fill-rule="nonzero"></path>
                <circle id="Oval" fill="#000000" fill-rule="nonzero" cx="67.5" cy="61.5" r="4.5"></circle>
                <circle id="Oval" fill="#000000" fill-rule="nonzero" cx="125.5" cy="127.5" r="1.5"></circle>
                <circle id="Oval" fill="#000000" fill-rule="nonzero" cx="136.5" cy="115.5" r="1.5"></circle>
            </g>
        </g>
    </g>
</svg>