<?xml version="1.0" encoding="UTF-8"?>
<svg width="98px" height="91px" viewBox="0 0 98 91" version="1.1" xmlns="http://www.w3.org/2000/svg" xmlns:xlink="http://www.w3.org/1999/xlink">
    <!-- Generator: Sketch 50.2 (55047) - http://www.bohemiancoding.com/sketch -->
    <title>Group 16</title>
    <desc>Created with Sketch.</desc>
    <defs></defs>
    <g id="Desktop" stroke="none" stroke-width="1" fill="none" fill-rule="evenodd">
        <g id="How-We-Work" transform="translate(-188.000000, -2186.000000)">
            <g id="Group-9" transform="translate(0.000000, 2132.000000)">
                <g id="Group">
                    <g id="Group-16" transform="translate(188.000000, 54.000000)">
                        <path d="M36.9422755,85.4835643 C13.4746372,81.794382 -3.17222532,69.1964138 0.510993416,45.6886503 C4.19421215,22.1819509 26.8115648,-3.33134554 50.2802655,0.357836795 C73.7500285,4.04595504 85.6835722,23.6538474 91.4925829,49.4632265 C96.7172929,72.6751744 60.4120385,89.1727466 36.9422755,85.4835643 Z" id="Fill-1" fill="#FFFFFF" opacity="0.370000005"></path>
                        <g id="medical" opacity="0.699999988" transform="translate(8.000000, 13.000000)" fill="#000000" stroke="#000000">
                            <path d="M5.6821,31.6011 C5.1291,31.6011 4.6821,31.1531 4.6821,30.6011 C4.6821,25.3811 8.9291,21.1341 14.1501,21.1341 C14.7031,21.1341 15.1501,21.5821 15.1501,22.1341 C15.1501,22.6861 14.7031,23.1341 14.1501,23.1341 C10.0321,23.1341 6.6821,26.4841 6.6821,30.6011 C6.6821,31.1531 6.2341,31.6011 5.6821,31.6011" id="Fill-1"></path>
                            <path d="M14.1489,71.7373 C8.9279,71.7373 4.6809,67.4903 4.6809,62.2683 C4.6809,61.7163 5.1279,61.2683 5.6809,61.2683 C6.2339,61.2683 6.6809,61.7163 6.6809,62.2683 C6.6809,66.3863 10.0309,69.7373 14.1489,69.7373 C14.7019,69.7373 15.1489,70.1833 15.1489,70.7373 C15.1489,71.2903 14.7019,71.7373 14.1489,71.7373" id="Fill-3"></path>
                            <path d="M74.8506,71.7373 C74.2976,71.7373 73.8506,71.2903 73.8506,70.7373 C73.8506,70.1833 74.2976,69.7373 74.8506,69.7373 C78.9686,69.7373 82.3196,66.3863 82.3196,62.2683 C82.3196,61.7163 82.7656,61.2683 83.3196,61.2683 C83.8716,61.2683 84.3196,61.7163 84.3196,62.2683 C84.3186,67.4903 80.0716,71.7373 74.8506,71.7373" id="Fill-5"></path>
                            <path d="M83.3184,31.6011 C82.7644,31.6011 82.3184,31.1531 82.3184,30.6011 C82.3184,26.4831 78.9674,23.1341 74.8494,23.1341 C74.2974,23.1341 73.8494,22.6861 73.8494,22.1341 C73.8494,21.5821 74.2974,21.1341 74.8494,21.1341 C80.0714,21.1341 84.3184,25.3811 84.3184,30.6011 C84.3184,31.1531 83.8714,31.6011 83.3184,31.6011" id="Fill-7"></path>
                            <path d="M87,64.667 C87,70.374 82.374,75 76.667,75 L12.333,75 C6.626,75 2,70.374 2,64.667 L2,28.333 C2,22.626 6.626,18 12.333,18 L76.667,18 C82.374,18 87,22.626 87,28.333 L87,64.667 Z M58,16 L30,16 L30,12.726 C30,9.261 32.962,6.438 36.417,6.397 L42.059,7.271 C43.24,7.454 44.441,7.456 45.622,7.278 L51.463,6.397 C54.919,6.438 58,9.261 58,12.726 L58,16 Z M26,11.24 C26,6.137 30.137,2 35.24,2 L52.609,2 C57.796,2 62,6.204 62,11.391 L62,16 L60,16 L60,12.726 C60,8.133 56.021,4.397 51.429,4.397 L45.836,5.249 C44.647,5.43 43.438,5.428 42.25,5.244 L36.871,4.409 L36.523,4.397 C31.93,4.397 28,8.133 28,12.726 L28,16 L26,16 L26,11.24 Z M76.667,16 L64,16 L64,11.24 C64,4.959 58.891,0 52.609,0 L35.234,0 C28.953,0 24,4.959 24,11.24 L24,16 L12.333,16 C5.532,16 0,21.494 0,28.294 L0,64.576 C0,71.377 5.532,77 12.333,77 L76.667,77 C83.468,77 89,71.377 89,64.576 L89,28.294 C89,21.494 83.468,16 76.667,16 Z" id="Fill-9"></path>
                            <path d="M57,50 L49,50 C48.447,50 48,50.447 48,51 L48,59 L40,59 L40,51 C40,50.447 39.553,50 39,50 L31,50 L31,42 L39,42 C39.553,42 40,41.553 40,41 L40,33 L48,33 L48,41 C48,41.553 48.447,42 49,42 C49.009,42 49.017,41.995 49.026,41.995 C49.035,41.995 49.043,42 49.052,42 L57,42 L57,50 Z M58,40 L50,40 L50,32 C50,31.448 49.553,31 49,31 L39,31 C38.447,31 38,31.448 38,32 L38,40 L30,40 C29.447,40 29,40.447 29,41 L29,51 C29,51.553 29.447,52 30,52 L38,52 L38,60 C38,60.553 38.447,61 39,61 L49,61 C49.553,61 50,60.553 50,60 L50,52 L58,52 C58.553,52 59,51.553 59,51 L59,41 C59,40.447 58.553,40 58,40 Z" id="Fill-11"></path>
                        </g>
                    </g>
                </g>
            </g>
        </g>
    </g>
</svg>