<?xml version="1.0" encoding="UTF-8"?>
<svg width="115px" height="119px" viewBox="0 0 115 119" version="1.1" xmlns="http://www.w3.org/2000/svg" xmlns:xlink="http://www.w3.org/1999/xlink">
    <!-- Generator: Sketch 50.2 (55047) - http://www.bohemiancoding.com/sketch -->
    <title>Group 10</title>
    <desc>Created with Sketch.</desc>
    <defs></defs>
    <g id="Desktop" stroke="none" stroke-width="1" fill="none" fill-rule="evenodd">
        <g id="Home" transform="translate(-664.000000, -1097.000000)">
            <g id="Group-21" transform="translate(664.000000, 1097.000000)">
                <g id="Group-10">
                    <path d="M46.1778443,117.357458 C16.8432965,112.767429 -3.96528165,97.0932126 0.63874177,67.8451812 C5.24276519,38.5984738 33.514456,6.85518637 62.8503318,11.4452155 C92.1875356,16.0339208 107.104465,40.4297869 114.365729,72.5414563 C120.896616,101.421438 75.5150481,121.947487 46.1778443,117.357458 Z" id="Fill-1" fill="#DEB540"></path>
                    <path d="M37.776,91.426 L38.177,84.74 L76.555,85.003 L76.555,90.164 C76.536,90.997 75.843,91.675 75.01,91.675 L37.776,91.426 Z M18.227,47.721 L19.779,47.116 C26.301,44.572 33.522,45.113 39.592,48.598 L40.088,48.883 L47.22,80.505 L41.504,80.505 L18.227,47.721 Z M17.378,41.424 C19.17,20.672 36.201,4.94 56.994,4.831 C77.801,4.719 94.983,20.273 96.991,41.005 L97.179,42.937 L95.32,42.374 C87.653,40.05 79.452,41.207 72.734,45.541 L71.621,46.392 L70.821,45.864 C62.338,40.1 51.508,39.63 42.56,44.639 L41.929,44.992 L41.296,44.642 C34.51,40.891 26.421,40.207 19.102,42.762 L17.206,43.426 L17.378,41.424 Z M62.072,80.505 L51.557,80.505 L44.348,48.564 L45.249,48.105 C52.64,44.338 61.52,44.86 68.422,49.467 L69.17,49.966 L62.072,80.505 Z M72.753,80.505 L66.394,80.505 L73.401,50.344 L73.782,50.06 C79.685,45.652 87.402,44.348 94.421,46.574 L96.108,47.109 L72.753,80.505 Z M71.82,109.542 C71.82,112.417 69.484,114.756 66.612,114.756 L47.81,114.756 C44.939,114.756 42.602,112.417 42.602,109.541 L42.602,95.896 L71.833,95.896 L71.82,109.542 Z M47.802,119 L66.601,119 C71.799,118.994 76.035,114.75 76.041,109.539 L76.041,95.795 L76.917,95.492 C79.211,94.701 80.761,92.536 80.775,90.105 L80.775,86.271 C80.755,84.538 79.909,82.868 78.514,81.82 L77.508,81.065 L100.932,47.602 C100.974,47.487 101.013,47.393 101.061,47.302 C101.189,47.072 101.267,46.849 101.305,46.616 C101.318,46.494 101.345,46.389 101.375,46.303 C101.401,45.831 101.4,45.355 101.4,44.908 C101.372,20.523 81.546,0.645 57.203,0.599 C32.867,0.642 13.036,20.511 13,44.893 L13.031,46.864 C13.059,46.957 13.086,47.075 13.094,47.213 C13.112,47.459 13.18,47.71 13.295,47.945 L13.345,48.062 C13.365,48.115 13.388,48.169 13.413,48.221 L13.508,48.414 L36.761,81.126 L35.792,81.892 C34.441,82.96 33.655,84.561 33.636,86.285 L33.636,90.112 C33.65,92.536 35.2,94.701 37.494,95.492 L38.37,95.795 L38.37,109.541 C38.376,114.744 42.607,118.988 47.802,119 Z" id="Fill-1" fill="#000000"></path>
                </g>
            </g>
        </g>
    </g>
</svg>