<?xml version="1.0" encoding="UTF-8"?>
<svg width="119px" height="114px" viewBox="0 0 119 114" version="1.1" xmlns="http://www.w3.org/2000/svg" xmlns:xlink="http://www.w3.org/1999/xlink">
    <!-- Generator: Sketch 50.2 (55047) - http://www.bohemiancoding.com/sketch -->
    <title>Group 15</title>
    <desc>Created with Sketch.</desc>
    <defs></defs>
    <g id="Desktop" stroke="none" stroke-width="1" fill="none" fill-rule="evenodd">
        <g id="How-We-Work" transform="translate(-1147.000000, -2670.000000)">
            <g id="Group-9" transform="translate(0.000000, 2132.000000)">
                <g id="Group">
                    <g id="Group-15" transform="translate(1147.000000, 538.000000)">
                        <path d="M55.9422755,103.483564 C32.4746372,99.794382 15.8277747,87.1964138 19.5109934,63.6886503 C23.1942122,40.1819509 45.8115648,14.6686545 69.2802655,18.3578368 C92.7500285,22.045955 104.683572,41.6538474 110.492583,67.4632265 C115.717293,90.6751744 79.4120385,107.172747 55.9422755,103.483564 Z" id="Fill-1" fill="#FFFFFF" opacity="0.469999999"></path>
                        <g id="heart" opacity="0.699999988" fill="#000000">
                            <path d="M76.9584066,61.3121477 L58.4986949,79.7963512 L40.0389832,61.3121477 C35.2918024,56.5542866 35.2918024,48.8197123 40.0389832,44.0618511 C42.3394865,41.7578612 45.4021837,40.4890982 48.6562996,40.4890982 C51.9104154,40.4890982 54.966152,41.7578612 57.2701356,44.0618511 C57.9244391,44.7171462 59.0799113,44.7171462 59.7307345,44.0618511 C64.3352214,39.4503856 72.3643607,39.4573569 76.9584066,44.0618511 C81.7055873,48.8162266 81.7055873,56.5542866 76.9584066,61.3121477 M68.3410902,37 C64.7145782,37 61.2760044,38.2269356 58.4986949,40.4856126 C55.7213853,38.2304212 52.2828116,37 48.6562996,37 C44.4764139,37 40.5366715,38.6312667 37.5783844,41.5940374 C31.4738719,47.7078018 31.4738719,57.6592257 37.5783844,63.7729902 L57.2666553,83.4911006 C57.6077284,83.8326906 58.0532116,84 58.4986949,84 C58.9441781,84 59.3896613,83.829205 59.7307345,83.4911006 L79.4190054,63.7729902 C85.5269982,57.6592257 85.5269982,47.7078018 79.4190054,41.5940374 C76.4607182,38.6347523 72.5279365,37 68.3410902,37" id="Fill-1"></path>
                            <path d="M58,1.3 L58,11.7 C58,12.4176 58.672,13 59.5,13 C60.328,13 61,12.4176 61,11.7 L61,1.3 C61,0.5824 60.328,0 59.5,0 C58.672,0 58,0.5824 58,1.3" id="Fill-3"></path>
                            <path d="M59.5,101 C58.672,101 58,101.5824 58,102.3 L58,112.7 C58,113.4176 58.672,114 59.5,114 C60.328,114 61,113.4176 61,112.7 L61,102.3 C61,101.5824 60.328,101 59.5,101" id="Fill-5"></path>
                            <path d="M11.7,58 L1.3,58 C0.5824,58 0,58.672 0,59.5 C0,60.328 0.5824,61 1.3,61 L11.7,61 C12.4176,61 13,60.328 13,59.5 C13,58.672 12.4176,58 11.7,58" id="Fill-7"></path>
                            <path d="M117.7,58 L107.3,58 C106.5824,58 106,58.672 106,59.5 C106,60.328 106.5824,61 107.3,61 L117.7,61 C118.4176,61 119,60.328 119,59.5 C119,58.672 118.4176,58 117.7,58" id="Fill-9"></path>
                            <path d="M99.769291,17.3821282 L92.3819036,24.7712457 C91.8726988,25.2807499 91.8726988,26.1090208 92.3819036,26.6185251 C92.6378117,26.8745836 92.9694477,27 93.303695,27 C93.6405536,27 93.9748009,26.8719707 94.230709,26.6185251 L101.618096,19.2294075 C102.127301,18.7199033 102.127301,17.8916324 101.618096,17.3821282 C101.108892,16.8726239 100.278496,16.8726239 99.769291,17.3821282" id="Fill-11"></path>
                            <path d="M28.7687084,88.3820283 L21.3820034,95.7718279 C20.8726655,96.281199 20.8726655,97.1092536 21.3820034,97.6186247 C21.6379783,97.8746163 21.9723129,98 22.3066475,98 C22.6409821,98 22.9753167,97.8720042 23.2312916,97.6186247 L30.6179966,90.2288252 C31.1273345,89.7194541 31.1273345,88.8913995 30.6179966,88.3820283 C30.1086587,87.8726572 29.2780462,87.8726572 28.7687084,88.3820283" id="Fill-13"></path>
                            <path d="M25.6933525,27 C26.0276871,27 26.3620217,26.8719707 26.6179966,26.6185251 C27.1273345,26.1090208 27.1273345,25.2807499 26.6179966,24.7712457 L19.2286796,17.3821282 C18.7193418,16.8726239 17.8913413,16.8726239 17.3820034,17.3821282 C16.8726655,17.8916324 16.8726655,18.7199033 17.3820034,19.2294075 L24.7713204,26.6185251 C25.0246833,26.8745836 25.3590179,27 25.6933525,27" id="Fill-15"></path>
                            <path d="M94.2280977,92.3820283 C93.7188928,91.8726572 92.8911085,91.8726572 92.3819036,92.3820283 C91.8726988,92.8913995 91.8726988,93.7194541 92.3819036,94.2288252 L99.769291,101.618625 C100.025199,101.874616 100.359446,102 100.693694,102 C101.027941,102 101.362188,101.872004 101.618096,101.618625 C102.127301,101.109254 102.127301,100.281199 101.618096,99.7718279 L94.2280977,92.3820283 Z" id="Fill-17"></path>
                        </g>
                    </g>
                </g>
            </g>
        </g>
    </g>
</svg>