<svg id="C-Symbols_Play_Copy" data-name="C-Symbols/Play Copy" xmlns="http://www.w3.org/2000/svg" xmlns:xlink="http://www.w3.org/1999/xlink" viewBox="0 0 60 60">
  <defs>
    <style>
      .cls-1 {
        fill: rgba(0,0,0,0);
      }

      .cls-2 {
        clip-path: url(#clip-path);
      }

      .cls-3 {
        fill: #fff;
      }
    </style>
    <clipPath id="clip-path">
      <path id="Combined_Shape" data-name="Combined Shape" d="M25,50A25,25,0,1,1,50,25,25.028,25.028,0,0,1,25,50ZM25,3.7A21.3,21.3,0,1,0,46.3,25,21.32,21.32,0,0,0,25,3.7ZM19.383,37.5c-.234,0-.38-.193-.38-.5V14.6c0-.313.145-.508.378-.508a.651.651,0,0,1,.338.114L36.738,24.894a.984.984,0,0,1,0,1.811L19.719,37.39A.645.645,0,0,1,19.383,37.5Z" transform="translate(0 0)"/>
    </clipPath>
  </defs>
  <rect id="C-Symbols_Play_Copy_background" data-name="C-Symbols/Play Copy background" class="cls-1" width="60" height="60"/>
  <path id="Combined_Shape-2" data-name="Combined Shape" d="M25,50A25,25,0,1,1,50,25,25.028,25.028,0,0,1,25,50ZM25,3.7A21.3,21.3,0,1,0,46.3,25,21.32,21.32,0,0,0,25,3.7ZM19.383,37.5c-.234,0-.38-.193-.38-.5V14.6c0-.313.145-.508.378-.508a.651.651,0,0,1,.338.114L36.738,24.894a.984.984,0,0,1,0,1.811L19.719,37.39A.645.645,0,0,1,19.383,37.5Z" transform="translate(5 5)"/>
  <g class="cls-2" transform="translate(5 5)">
    <g id="C-Color_Black" data-name="C-Color/Black" transform="translate(-5 -5)">
      <rect id="C-Color_Black_background" data-name="C-Color/Black background" class="cls-1" width="60" height="60"/>
      <rect id="Rectangle" class="cls-3" width="60" height="60"/>
    </g>
  </g>
</svg>
