<?xml version="1.0" encoding="UTF-8"?>
<svg width="67px" height="67px" viewBox="0 0 67 67" version="1.1" xmlns="http://www.w3.org/2000/svg" xmlns:xlink="http://www.w3.org/1999/xlink">
    <!-- Generator: Sketch 50.2 (55047) - http://www.bohemiancoding.com/sketch -->
    <title>C-Symbols/Play Copy</title>
    <desc>Created with Sketch.</desc>
    <defs>
        <path d="M39.5,72.4166667 C21.320627,72.4166667 6.58333333,57.679373 6.58333333,39.5 C6.58333333,21.320627 21.320627,6.58333333 39.5,6.58333333 C57.679373,6.58333333 72.4166667,21.320627 72.4166667,39.5 C72.4166667,57.679373 57.679373,72.4166667 39.5,72.4166667 Z M39.5,67.5414204 C54.9868489,67.5414204 67.5414204,54.9868489 67.5414204,39.5 C67.5414204,24.0131511 54.9868489,11.4585796 39.5,11.4585796 C24.0131511,11.4585796 11.4585796,24.0131511 11.4585796,39.5 C11.4585796,54.9868489 24.0131511,67.5414204 39.5,67.5414204 Z M54.9537254,39.3617404 C56.0017521,40.0198786 56.0113364,41.0809127 54.9537254,41.7450696 L32.5480849,55.8153292 C32.0269324,56.1426017 31.6044548,55.9098358 31.6044548,55.2979608 L31.6044548,25.8088491 C31.6044548,25.1958419 32.0215976,24.9608581 32.5480849,25.2914808 L54.9537254,39.3617404 Z" id="path-1"></path>
    </defs>
    <g id="Desktop" stroke="none" stroke-width="1" fill="none" fill-rule="evenodd">
        <g id="Home" transform="translate(-687.000000, -432.000000)">
            <g id="C-Symbols/Play" transform="translate(681.000000, 426.000000)">
                <mask id="mask-2" fill="white">
                    <use xlink:href="#path-1"></use>
                </mask>
                <use id="Combined-Shape" fill="#000000" fill-rule="evenodd" xlink:href="#path-1"></use>
                <g id="C-Color/White" mask="url(#mask-2)" fill="#FFFFFF" fill-rule="evenodd">
                    <rect id="Rectangle" x="0" y="0" width="79" height="79"></rect>
                </g>
            </g>
        </g>
    </g>
</svg>