<?xml version="1.0" encoding="UTF-8"?>
<svg width="53px" height="52px" viewBox="0 0 53 52" version="1.1" xmlns="http://www.w3.org/2000/svg" xmlns:xlink="http://www.w3.org/1999/xlink">
    <!-- Generator: Sketch 50.2 (55047) - http://www.bohemiancoding.com/sketch -->
    <title>Group 4</title>
    <desc>Created with Sketch.</desc>
    <defs></defs>
    <g id="Desktop" stroke="none" stroke-width="1" fill="none" fill-rule="evenodd">
        <g id="Prayer-Network" transform="translate(-1052.000000, -534.000000)">
            <g id="Group-4" transform="translate(1052.000000, 534.000000)">
                <path d="M21.281963,51.7057518 C7.76256273,49.6037758 -1.82747763,42.4258637 0.294376642,29.0319054 C2.41623092,15.6385534 15.4457928,1.10190778 28.9658051,3.20388376 C42.4864294,5.30525345 49.3611883,16.4771921 52.7076836,31.182536 C55.7175709,44.4079482 34.8025874,53.8077277 21.281963,51.7057518 Z" id="Fill-1" fill="#C6B299"></path>
                <path d="M40.3632887,4 C40.2724665,3.64696653 40.1496176,3.31328452 40,3 C40.3403442,3.01725941 40.6782983,3.10041841 41,3.25313808 C40.7705545,3.47541841 40.5564054,3.72332636 40.3632887,4 M33.4578605,2.75970093 L25.4501009,13 C25.428706,12.2235871 25.2728863,11.4609614 25,10.7389092 L31.1080511,2.92790403 C31.7983404,2.04473929 33.0013007,1.77175394 34,2.19639782 C33.8021978,2.36617659 33.618928,2.55328776 33.4578605,2.75970093 M49.4346066,19.7906086 C48.7497222,19.2614452 47.91441,18.9710507 47.0532306,18.9637908 L49.9503592,15.1164663 C51.2835159,13.3454629 50.94764,10.8145937 49.2006078,9.46345243 C48.5161214,8.9338857 47.6804112,8.64349115 46.8196297,8.63663461 C48.1527864,6.86563118 47.8173085,4.33476201 46.0702763,2.98362071 C45.0511078,2.19552216 43.7784407,1.98659942 42.6287422,2.29716026 C42.5817833,2.25723101 42.538008,2.2148818 42.4886613,2.17696918 C41.4344726,1.36184781 40.110071,1.16744479 38.9313217,1.52680805 C38.0020916,0.873823636 36.8066281,0.62779492 35.6330523,0.946825599 C34.658853,0.119201132 33.3141556,-0.224432419 31.998509,0.152273845 C31.1699621,0.389832719 30.4397106,0.893183272 29.9175907,1.58690359 L24.351761,8.97905818 C23.9279366,8.38858927 23.2585725,8.0259994 22.5342904,8.00784974 C21.9675993,7.98647348 21.4204081,8.1716 20.9826552,8.51604021 C20.9325126,8.43214845 20.8903291,8.34422343 20.8366049,8.2623483 C20.4183518,7.61702708 19.7143655,7.22055785 18.9526754,7.20119822 C18.1774547,7.17175544 17.4368564,7.52587546 16.966073,8.15062707 L8.43944157,19.4756112 C5.22912068,23.7056918 4.19124825,29.2296415 5.64299619,34.3595418 C5.76238335,34.7886805 6.20172812,35.0383391 6.6251546,34.9173414 C7.04818313,34.7963436 7.29451865,34.351072 7.17513148,33.9219334 C7.17513148,33.9215301 7.17513148,33.9211267 7.17473352,33.9207234 C5.8614747,29.2792505 6.80025578,24.281641 9.70494553,20.4544828 L18.2315769,9.12949869 C18.389168,8.91210611 18.6434626,8.78909175 18.9092981,8.80119152 C19.1552356,8.80643476 19.3832651,8.93348237 19.5193665,9.14119514 C19.663427,9.36141101 19.784008,9.59130669 19.8942422,9.82523564 L12.0210565,20.2822627 C8.81073566,24.5123433 7.77286323,30.036293 9.22461116,35.1661934 C9.34399833,35.595332 9.7833431,35.8449906 10.2067696,35.7239929 C10.6297981,35.6029952 10.8761336,35.1577235 10.7567465,34.7285849 C10.7567465,34.7281816 10.7567465,34.7277783 10.7563485,34.7273749 C9.44308968,30.0859021 10.3818708,25.0882925 13.2865605,21.2611343 L21.8131919,9.93615022 C21.970783,9.71875763 22.2250776,9.59574328 22.490913,9.60784305 C22.7368506,9.61308628 22.9648801,9.7401339 23.1009815,9.94784667 C24.4138423,11.9568123 24.323904,14.5893196 22.8769315,16.5018903 L19.0143588,21.632194 C18.7477274,21.9859107 18.8145842,22.4920846 19.1643886,22.7623128 C19.5137951,23.0325411 20.0132314,22.9647824 20.2798627,22.6106623 L34.7643117,3.37242674 C35.5642057,2.30966335 37.0629126,2.10558052 38.1115298,2.9162653 C39.1593512,3.72695009 39.3607176,5.24587491 38.5608235,6.30823498 L27.4562253,21.0578582 C27.189196,21.4119782 27.2564508,21.918152 27.6058572,22.1879769 C27.9556616,22.4582052 28.4546999,22.3904465 28.7213313,22.0363265 L41.7576139,4.72195475 C42.5575079,3.65919136 44.0558168,3.45510852 45.1044341,4.26579331 C46.1530514,5.07688142 46.3540198,6.59540292 45.5541258,7.65776298 L32.5178432,24.972538 C32.2512118,25.326658 32.3184666,25.8328319 32.667873,26.1026568 C33.0172795,26.3728851 33.5171137,26.3051263 33.7837451,25.9514096 L44.8883433,11.2017865 C45.6886353,10.1390231 47.1865463,9.93494024 48.2351636,10.745625 C49.2833829,11.5567131 49.4847492,13.0752346 48.6848552,14.1375947 L36.6144148,30.1693905 C36.3477834,30.5235105 36.4146403,31.0296843 36.7644447,31.2999126 C37.1138511,31.5705442 37.6132874,31.5023821 37.8799187,31.1482621 L45.1223422,21.529346 C45.9222362,20.4665826 47.4205451,20.2624997 48.4687644,21.0731845 C49.5173817,21.8842726 49.7187481,23.4023908 48.9184561,24.4651542 L37.3311357,39.855662 C34.5064354,43.6073983 31.4740014,47.3555046 28.1622014,48.4166547 C27.7391729,48.5368458 27.4920414,48.9821174 27.6106327,49.411256 C27.7292239,49.8399913 28.1685687,50.0900533 28.5919952,49.9698622 C28.6087094,49.9654256 28.6250256,49.9597791 28.6417398,49.9541325 C32.3976601,48.7546417 35.617134,44.7907561 38.5962417,40.8345337 L50.1839601,25.4440258 C51.5171168,23.6730224 51.1816388,21.1421532 49.4346066,19.7906086" id="Fill-1" fill="#263835"></path>
            </g>
        </g>
    </g>
</svg>