<?xml version="1.0" encoding="UTF-8"?>
<svg width="108px" height="100px" viewBox="0 0 108 100" version="1.1" xmlns="http://www.w3.org/2000/svg" xmlns:xlink="http://www.w3.org/1999/xlink">
    <!-- Generator: Sketch 50.2 (55047) - http://www.bohemiancoding.com/sketch -->
    <title>Group 10</title>
    <desc>Created with Sketch.</desc>
    <defs></defs>
    <g id="Desktop" stroke="none" stroke-width="1" fill="none" fill-rule="evenodd">
        <g id="Get-Involved" transform="translate(-497.000000, -482.000000)">
            <g id="Group-8" transform="translate(37.000000, 433.000000)">
                <g id="Group-10" transform="translate(460.000000, 49.000000)">
                    <path d="M43.367019,99.3994934 C15.8180523,95.1097465 -3.72391668,80.4609463 0.599861836,53.1263376 C4.92364036,25.7929662 31.4744456,-3.8736576 59.0246594,0.416089296 C86.5761204,4.70459889 100.585063,27.5044737 107.404336,57.5153797 C113.537692,84.5060168 70.91848,103.68924 43.367019,99.3994934 Z" id="Fill-1" fill="#FFFFFF" opacity="0.370000005"></path>
                    <path d="M81.0401114,11.662688 C80.9036813,11.178092 80.7191416,10.7200592 80.4943909,10.2900252 C81.0056448,10.3137165 81.5133085,10.4278658 81.9965583,10.6374984 C81.6518928,10.9426143 81.3302049,11.2829083 81.0401114,11.662688 M68.4224798,9.2605281 L54.1784576,27.9235728 C54.1404007,26.5085527 53.8632322,25.1186599 53.3778282,23.8027128 L64.2426918,9.56707988 C65.4705629,7.95750356 67.6103616,7.45998509 69.3868253,8.2339027 C69.0349792,8.54332616 68.708983,8.8843381 68.4224798,9.2605281 M97.1754859,40.2272833 C95.9397162,39.2853725 94.4325225,38.7684702 92.8786552,38.7555476 L98.1060829,31.9073101 C100.511561,28.754924 99.9055243,24.2499768 96.7532705,21.8449453 C95.518219,20.9023165 94.0103072,20.3854142 92.457158,20.3732096 C94.8626364,17.2208235 94.2573175,12.7158764 91.1050637,10.3108449 C89.2661294,8.90802945 86.9697951,8.53614696 84.8953393,9.08894526 C84.810609,9.01787119 84.7316231,8.9424896 84.6425845,8.87500514 C82.7404615,7.4240891 80.3507803,7.07805173 78.2239066,7.71771832 C76.5472522,6.55540607 74.3902203,6.11747496 72.2726813,6.68534957 C70.5148869,5.21217801 68.088585,4.60051029 65.714701,5.27104744 C64.2197141,5.69390224 62.9020864,6.58986623 61.9600006,7.82468838 L51.9173079,20.9827236 C51.1525812,19.9316889 49.9448156,19.2862789 48.6379587,19.2539725 C47.6154509,19.2159228 46.6281277,19.545448 45.8382691,20.1585516 C45.7477944,20.0092242 45.6716808,19.8527177 45.5747436,19.70698 C44.8200696,18.5583082 43.5498334,17.852593 42.1754795,17.8181328 C40.7767118,17.7657247 39.4404147,18.3960583 38.5909577,19.5081162 L23.2059489,39.6665879 C17.4134134,47.1961314 15.5407305,57.0287618 18.1601888,66.1599845 C18.3756047,66.9238512 19.1683355,67.3682436 19.9323442,67.1528676 C20.6956348,66.9374917 21.1401097,66.1449082 20.9246938,65.3810414 C20.9246938,65.3803235 20.9246938,65.3796056 20.9239757,65.3788877 C18.5544,57.1170659 20.2482876,48.221321 25.4893582,41.4089794 L40.8743671,21.2505077 C41.1587161,20.8635489 41.6175522,20.6445833 42.0972117,20.6661209 C42.5409686,20.6754539 42.9524131,20.9015986 43.1979874,21.2713274 C43.4579226,21.6633116 43.6754928,22.0725259 43.8743935,22.4889194 L29.6684281,41.1024276 C23.8758926,48.6319711 22.0032097,58.4646015 24.622668,67.5958242 C24.8380839,68.3596909 25.6308147,68.8040833 26.3948234,68.5887074 C27.158114,68.3733314 27.6025889,67.5807479 27.387173,66.8168812 C27.387173,66.8161632 27.387173,66.8154453 27.3864549,66.8147274 C25.0168792,58.5529057 26.7107668,49.6571607 31.9518374,42.8448191 L47.3368463,22.6863474 C47.6211953,22.2993886 48.0800314,22.080423 48.5596909,22.1019606 C49.0034478,22.1112936 49.4148923,22.3374383 49.6604666,22.7071671 C52.0293242,26.2831259 51.8670442,30.9689888 49.2562026,34.3733648 L42.2867778,43.5053054 C41.8056821,44.1349211 41.9263151,45.0359105 42.5574839,45.5169168 C43.1879346,45.9979231 44.0890914,45.8773126 44.5701871,45.246979 L70.705171,11.0029196 C72.1484581,9.11120077 74.8526466,8.74793332 76.7447169,10.1909522 C78.6353511,11.6339712 78.998686,14.3376573 77.555399,16.2286583 L57.5188413,42.4829875 C57.0370275,43.1133212 57.1583785,44.0143106 57.7888293,44.494599 C58.4199981,44.9756053 59.3204369,44.8549947 59.8015325,44.2246611 L83.3235207,13.4050795 C84.7668077,11.5133606 87.4702782,11.1500932 89.3623485,12.5931121 C91.2544188,14.0368489 91.6170357,16.7398172 90.1737487,18.6308181 L66.6517605,49.4511177 C66.1706648,50.0814513 66.2920158,50.9824407 66.9224666,51.4627291 C67.5529173,51.9437354 68.4547922,51.8231249 68.9358879,51.1935092 L88.9724456,24.9391799 C90.4164507,23.0474611 93.1192031,22.6841936 95.0112734,24.1272126 C96.9026256,25.5709494 97.2659606,28.2739177 95.8226735,30.1649186 L74.0434006,58.7015151 C73.5623049,59.3318487 73.6829379,60.2328381 74.3141067,60.7138444 C74.9445574,61.1955687 75.8457142,61.0742402 76.3268099,60.4439066 L89.3946609,43.3222358 C90.8379479,41.430517 93.5414184,41.0672496 95.4327706,42.5102685 C97.3248409,43.9540053 97.6881759,46.6562557 96.2441708,48.5479745 L75.3366145,75.9430784 C70.2398725,82.6211689 64.7683068,89.2927982 58.7926677,91.1816453 C58.0293771,91.3955855 57.5834661,92.188169 57.7974459,92.9520357 C58.0114258,93.7151845 58.8041566,94.1602948 59.5681652,93.9463547 C59.5983235,93.9384576 59.6277636,93.9284067 59.6579219,93.9183558 C66.4349084,91.7832622 72.2439592,84.7275458 77.6193057,77.6854699 L98.5275801,50.290366 C100.933058,47.1379799 100.32774,42.6330328 97.1754859,40.2272833" id="Fill-1" fill="#263835"></path>
                </g>
            </g>
        </g>
    </g>
</svg>