<?xml version="1.0" encoding="UTF-8"?>
<svg width="120px" height="86px" viewBox="0 0 120 86" version="1.1" xmlns="http://www.w3.org/2000/svg" xmlns:xlink="http://www.w3.org/1999/xlink">
    <!-- Generator: Sketch 50.2 (55047) - http://www.bohemiancoding.com/sketch -->
    <title>Group 17</title>
    <desc>Created with Sketch.</desc>
    <defs></defs>
    <g id="Desktop" stroke="none" stroke-width="1" fill="none" fill-rule="evenodd">
        <g id="How-We-Work" transform="translate(-664.000000, -2698.000000)">
            <g id="Group-9" transform="translate(0.000000, 2132.000000)">
                <g id="Group">
                    <g id="Group-17" transform="translate(666.000000, 566.000000)">
                        <path d="M47.9422755,85.4835643 C24.4746372,81.794382 7.82777468,69.1964138 11.5109934,45.6886503 C15.1942122,22.1819509 37.8115648,-3.33134554 61.2802655,0.357836795 C84.7500285,4.04595504 96.6835722,23.6538474 102.492583,49.4632265 C107.717293,72.6751744 71.4120385,89.1727466 47.9422755,85.4835643 Z" id="Fill-1" fill="#FFFFFF" opacity="0.370000005"></path>
                        <g id="community" opacity="0.699999988" transform="translate(0.000000, 14.000000)" stroke="#000000" stroke-width="3">
                            <path d="M81.7110561,58.3781095 C81.7110561,59.8258706 80.2767215,60.9925373 78.5001598,60.9925373 L64.6399585,60.9925373 L64.6399585,37.7014925 L52.3600415,37.7014925 L52.3600415,60.9477612 L38.5023566,61 C36.7182457,61 35.2914603,59.8258706 35.2914603,58.3781095 L35.2889439,32.1641791 L27,32.1641791 L58.4949672,0 L90,32.1641791 L81.7110561,32.1641791 L81.7110561,58.3781095 Z" id="Stroke-1"></path>
                            <path d="M85.847552,50 L98.720903,50 L104.419965,50 L108.165347,50 C109.371445,50 110.348285,49.1847509 110.348285,48.1863843 L110.348285,29.3001983 L116,29.3001983 L94.5518909,7 L82,20.0540194" id="Stroke-3"></path>
                            <path d="M30.1471817,50 L17.2753793,50 L11.5783918,50 L7.83522686,50 C6.62156417,50 5.64963718,49.1872594 5.64963718,48.1863843 L5.64963718,29.3001983 L0,29.3001983 L21.4422048,7 L34,20.0540194" id="Stroke-5"></path>
                        </g>
                    </g>
                </g>
            </g>
        </g>
    </g>
</svg>