<?xml version="1.0" encoding="UTF-8"?>
<svg width="108px" height="100px" viewBox="0 0 108 100" version="1.1" xmlns="http://www.w3.org/2000/svg" xmlns:xlink="http://www.w3.org/1999/xlink">
    <!-- Generator: Sketch 50.2 (55047) - http://www.bohemiancoding.com/sketch -->
    <title>Group 11</title>
    <desc>Created with Sketch.</desc>
    <defs></defs>
    <g id="Desktop" stroke="none" stroke-width="1" fill="none" fill-rule="evenodd">
        <g id="Get-Involved" transform="translate(-844.000000, -482.000000)">
            <g id="Group-8" transform="translate(37.000000, 433.000000)">
                <g id="Group-11" transform="translate(807.000000, 49.000000)">
                    <path d="M43.367019,99.3994934 C15.8180523,95.1097465 -3.72391668,80.4609463 0.599861836,53.1263376 C4.92364036,25.7929662 31.4744456,-3.8736576 59.0246594,0.416089296 C86.5761204,4.70459889 100.585063,27.5044737 107.404336,57.5153797 C113.537692,84.5060168 70.91848,103.68924 43.367019,99.3994934 Z" id="Fill-1" fill="#FFFFFF" opacity="0.370000005"></path>
                    <path d="M39.5520833,52.3896923 L52.8229167,62.6883077 C53.2183333,63.0027692 53.7816667,63.0027692 54.1770833,62.6883077 L67.4479167,52.3896923 L95.00575,75.8461538 L11.9953333,75.8461538 L39.5520833,52.3896923 Z M96.8333333,29.6063077 L96.8333333,74.5678462 L69.2083333,51.0101538 L96.8333333,29.6063077 Z M10.1666667,29.6063077 L37.7916667,51.0101538 L10.1666667,74.5678462 L10.1666667,29.6063077 Z M10.1666667,24.1538462 L96.8333333,24.1538462 L96.8333333,26.8127692 L53.5,60.4332308 L10.1666667,26.8127692 L10.1666667,24.1538462 Z M9.08333333,22 C8.48533333,22 8,22.4824615 8,23.0769231 L8,76.9230769 C8,77.5186154 8.48533333,78 9.08333333,78 L97.9166667,78 C98.51575,78 99,77.5186154 99,76.9230769 L99,23.0769231 C99,22.4824615 98.51575,22 97.9166667,22 L9.08333333,22 Z" id="Fill-1" stroke="#000000" stroke-width="0.899999976" fill="#263835"></path>
                </g>
            </g>
        </g>
    </g>
</svg>